SplineFontDB: 3.0
FontName: BluuNext-Bold
FullName: Bluu Next Bold
FamilyName: Bluu Next
Weight: Bold
Copyright: Created by Jean Baptiste Morizot, certains droits reserves (c) 2014
Version: 001.001
ItalicAngle: 0
UnderlinePosition: -50
UnderlineWidth: 50
Ascent: 740
Descent: 260
InvalidEm: 0
sfntRevision: 0x00010106
LayerCount: 2
Layer: 0 0 "Arri+AOgA-re" 1
Layer: 1 0 "Avant" 0
XUID: [1021 738 -1775506550 6426]
FSType: 8
OS2Version: 2
OS2_WeightWidthSlopeOnly: 0
OS2_UseTypoMetrics: 1
CreationTime: 1413500850
ModificationTime: 1413500850
PfmFamily: 17
TTFWeight: 700
TTFWidth: 5
LineGap: 0
VLineGap: 0
Panose: 2 0 8 0 0 0 0 0 0 0
OS2TypoAscent: 740
OS2TypoAOffset: 0
OS2TypoDescent: -260
OS2TypoDOffset: 0
OS2TypoLinegap: 200
OS2WinAscent: 940
OS2WinAOffset: 0
OS2WinDescent: 260
OS2WinDOffset: 0
HheadAscent: 940
HheadAOffset: 0
HheadDescent: -260
HheadDOffset: 0
OS2SubXSize: 650
OS2SubYSize: 600
OS2SubXOff: 0
OS2SubYOff: 75
OS2SupXSize: 650
OS2SupYSize: 600
OS2SupXOff: 0
OS2SupYOff: 350
OS2StrikeYSize: 50
OS2StrikeYPos: 294
OS2CapHeight: 0
OS2XHeight: 0
OS2CodePages: 20000003.00000000
OS2UnicodeRanges: 00000007.00000000.00000000.00000000
Lookup: 1 0 0 "'aalt' Activer toutes les variantes dans Latin lookup 0" { "sous-table 'aalt' Activer toutes les variantes dans Latin lookup 0"  } ['aalt' ('latn' <'dflt' > ) ]
Lookup: 3 0 0 "'aalt' Activer toutes les variantes dans Latin lookup 1" { "sous-table 'aalt' Activer toutes les variantes dans Latin lookup 1"  } ['aalt' ('latn' <'dflt' > ) ]
Lookup: 6 0 0 "'locl' Formes localis+AOkA-es g+AOkA-ographiquement dans Latin lookup 2" { "'locl' Formes localis+AOkA-es g+AOkA-ographiquement dans Latin lookup 2 contextual 0"  "'locl' Formes localis+AOkA-es g+AOkA-ographiquement dans Latin lookup 2 contextual 1"  } ['locl' ('latn' <'CAT ' > ) ]
Lookup: 1 0 0 "'sups' Exposant dans Latin lookup 3" { "sous-table 'sups' Exposant dans Latin lookup 3" ("superior") } ['sups' ('latn' <'CAT ' 'dflt' > ) ]

StartChar: .notdef
Encoding: 65536 -1 0
Width: 500
Flags: MW
HStem: 0 50<99 400 99 450> 227 42<168 331> 443 50<99 400 99 99>
VStem: 49 50<50 443 50 493> 400 50<50 443 443 443>
LayerCount: 2
Back
Fore
SplineSet
450 493 m 1
 450 0 l 1
 49 0 l 1
 49 493 l 1
 450 493 l 1
400 443 m 1
 99 443 l 1
 99 50 l 1
 400 50 l 1
 400 443 l 1
192 110 m 1
 190 110 l 1
 239 227 l 1
 168 227 l 1
 307 386 l 1
 309 386 l 1
 260 269 l 1
 331 269 l 1
 192 110 l 1
EndSplineSet
EndChar

StartChar: A
Encoding: 65 65 1
Width: 727
Flags: MW
HStem: 0 259<203 226 5 427 414 427 203 722 414 414> 214 45<203 427 203 445 185 427> 675 20G<330 377 377 377>
VStem: 5 717<0 0>
LayerCount: 2
Back
Fore
SplineSet
414 0 m 1x00
 506 69 l 1x70
 445 214 l 1
 185 214 l 1xb0
 131 78 l 1
 226 0 l 1
 5 0 l 1
 76 79 l 1
 330 695 l 1
 377 695 l 1
 647 67 l 1
 722 0 l 1
 414 0 l 1x00
313 533 m 1
 203 259 l 1
 427 259 l 1xb0
 313 533 l 1
EndSplineSet
Position2: "sous-table 'cpsp' Chasses pour composition en capitales dans Grec lookup 2" dx=5 dy=0 dh=10 dv=0
Position2: "sous-table 'cpsp' Chasses pour composition en capitales dans '    ' lookup 1" dx=5 dy=0 dh=10 dv=0
Position2: "sous-table 'cpsp' Chasses pour composition en capitales dans Latin lookup 0" dx=5 dy=0 dh=10 dv=0
EndChar

StartChar: Aacute
Encoding: 193 193 2
Width: 730
Flags: MW
HStem: 0 254<208 233 12 436 421 421 421 436 208 729> 214 40<192 436 208 436 208 452> 675 20G<337 384 384 384> 740 129<359 361 346 490>
VStem: 12 717<0 0>
LayerCount: 2
Back
Fore
SplineSet
361 740 m 1x78
 346 740 l 1
 359 869 l 1
 490 869 l 1
 361 740 l 1x78
192 214 m 1
 138 78 l 1
 233 0 l 1
 12 0 l 1
 83 79 l 1
 337 695 l 1
 384 695 l 1
 654 67 l 1
 729 0 l 1
 421 0 l 1
 513 69 l 1xb8
 452 214 l 1
 192 214 l 1
436 254 m 1x78
 320 533 l 1
 208 254 l 1
 436 254 l 1x78
EndSplineSet
Position2: "sous-table 'cpsp' Chasses pour composition en capitales dans Grec lookup 2" dx=5 dy=0 dh=10 dv=0
Position2: "sous-table 'cpsp' Chasses pour composition en capitales dans '    ' lookup 1" dx=5 dy=0 dh=10 dv=0
Position2: "sous-table 'cpsp' Chasses pour composition en capitales dans Latin lookup 0" dx=5 dy=0 dh=10 dv=0
EndChar

StartChar: Acircumflex
Encoding: 194 194 3
Width: 730
Flags: MW
HStem: 0 254<208 233 12 436 421 421 421 436 208 729> 214 40<192 436 208 436 208 452> 675 20G<337 384 384 384> 810 59<362 362>
VStem: 12 717<0 0>
LayerCount: 2
Back
Fore
SplineSet
258 740 m 1x78
 320 869 l 1
 403 869 l 1
 466 740 l 1
 451 740 l 1
 362 810 l 1
 273 740 l 1
 258 740 l 1x78
192 214 m 1
 138 78 l 1
 233 0 l 1
 12 0 l 1
 83 79 l 1
 337 695 l 1
 384 695 l 1
 654 67 l 1
 729 0 l 1
 421 0 l 1
 513 69 l 1xb8
 452 214 l 1
 192 214 l 1
436 254 m 1x78
 320 533 l 1
 208 254 l 1
 436 254 l 1x78
EndSplineSet
Position2: "sous-table 'cpsp' Chasses pour composition en capitales dans Grec lookup 2" dx=5 dy=0 dh=10 dv=0
Position2: "sous-table 'cpsp' Chasses pour composition en capitales dans '    ' lookup 1" dx=5 dy=0 dh=10 dv=0
Position2: "sous-table 'cpsp' Chasses pour composition en capitales dans Latin lookup 0" dx=5 dy=0 dh=10 dv=0
EndChar

StartChar: Adieresis
Encoding: 196 196 4
Width: 730
Flags: MW
HStem: 0 254<208 233 12 436 421 421 421 436 208 729> 214 40<192 436 208 436 208 452> 675 20G<337 384 384 384>
VStem: 12 717<0 0>
LayerCount: 2
Back
Fore
SplineSet
159 830 m 1x70
 236 917 l 1
 313 830 l 1
 236 742 l 1
 159 830 l 1x70
392 830 m 1
 470 917 l 1
 546 830 l 1
 470 742 l 1
 392 830 l 1
192 214 m 1
 138 78 l 1
 233 0 l 1
 12 0 l 1
 83 79 l 1
 337 695 l 1
 384 695 l 1
 654 67 l 1
 729 0 l 1
 421 0 l 1
 513 69 l 1xb0
 452 214 l 1
 192 214 l 1
436 254 m 1x70
 320 533 l 1
 208 254 l 1
 436 254 l 1x70
EndSplineSet
Position2: "sous-table 'cpsp' Chasses pour composition en capitales dans Grec lookup 2" dx=5 dy=0 dh=10 dv=0
Position2: "sous-table 'cpsp' Chasses pour composition en capitales dans '    ' lookup 1" dx=5 dy=0 dh=10 dv=0
Position2: "sous-table 'cpsp' Chasses pour composition en capitales dans Latin lookup 0" dx=5 dy=0 dh=10 dv=0
EndChar

StartChar: Agrave
Encoding: 192 192 5
Width: 730
Flags: MW
HStem: 0 254<208 233 12 436 421 421 421 436 208 729> 214 40<192 436 208 436 208 452> 675 20G<337 384 384 384> 740 129<353 353 353 355 224 368>
VStem: 12 717<0 0>
LayerCount: 2
Back
Fore
SplineSet
353 740 m 1x78
 224 869 l 1
 355 869 l 1
 368 740 l 1
 353 740 l 1x78
192 214 m 1
 138 78 l 1
 233 0 l 1
 12 0 l 1
 83 79 l 1
 337 695 l 1
 384 695 l 1
 654 67 l 1
 729 0 l 1
 421 0 l 1
 513 69 l 1xb8
 452 214 l 1
 192 214 l 1
436 254 m 1x78
 320 533 l 1
 208 254 l 1
 436 254 l 1x78
EndSplineSet
Position2: "sous-table 'cpsp' Chasses pour composition en capitales dans Grec lookup 2" dx=5 dy=0 dh=10 dv=0
Position2: "sous-table 'cpsp' Chasses pour composition en capitales dans '    ' lookup 1" dx=5 dy=0 dh=10 dv=0
Position2: "sous-table 'cpsp' Chasses pour composition en capitales dans Latin lookup 0" dx=5 dy=0 dh=10 dv=0
EndChar

StartChar: Aring
Encoding: 197 197 6
Width: 730
Flags: MW
HStem: 0 254<208 233 12 436 421 421 421 436 208 729> 214 40<192 436 208 436 208 452> 675 20G<337 384 384 384> 731 34<342.5 377.5 342.5 387> 893 34<342.5 377.5>
VStem: 262 34<811.5 846.5 811.5 856> 424 34<811.5 846.5>
LayerCount: 2
Back
Fore
SplineSet
262 829 m 0x7e
 262 883 306 927 360 927 c 0
 414 927 458 883 458 829 c 0
 458 775 414 731 360 731 c 0
 306 731 262 775 262 829 c 0x7e
296 829 m 0
 296 794 325 765 360 765 c 0
 395 765 424 794 424 829 c 0
 424 864 395 893 360 893 c 0
 325 893 296 864 296 829 c 0
192 214 m 1
 138 78 l 1
 233 0 l 1
 12 0 l 1
 83 79 l 1
 337 695 l 1
 384 695 l 1
 654 67 l 1
 729 0 l 1
 421 0 l 1
 513 69 l 1xbe
 452 214 l 1
 192 214 l 1
436 254 m 1x7e
 320 533 l 1
 208 254 l 1
 436 254 l 1x7e
EndSplineSet
Position2: "sous-table 'cpsp' Chasses pour composition en capitales dans Grec lookup 2" dx=5 dy=0 dh=10 dv=0
Position2: "sous-table 'cpsp' Chasses pour composition en capitales dans '    ' lookup 1" dx=5 dy=0 dh=10 dv=0
Position2: "sous-table 'cpsp' Chasses pour composition en capitales dans Latin lookup 0" dx=5 dy=0 dh=10 dv=0
EndChar

StartChar: Atilde
Encoding: 195 195 7
Width: 727
Flags: MW
HStem: 0 259<203 226 5 427 414 427 203 722 414 414> 214 45<203 427 203 445 185 427> 675 20G<330 377 377 377> 724 20G<223 223> 778 62
VStem: 5 717<0 0>
LayerCount: 2
Back
Fore
SplineSet
490 868 m 1x7c
 431 767 l 1
 382 771 326 778 277 778 c 0
 264 778 250 757 237 735 c 1
 223 744 l 1
 286 851 l 1
 332 847 385 840 431 840 c 0
 446 840 460 855 475 874 c 1
 490 868 l 1x7c
414 0 m 1xbc
 506 69 l 1xbc
 445 214 l 1
 185 214 l 1x7c
 131 78 l 1
 226 0 l 1
 5 0 l 1
 76 79 l 1
 330 695 l 1
 377 695 l 1
 647 67 l 1
 722 0 l 1
 414 0 l 1xbc
313 533 m 1
 203 259 l 1
 427 259 l 1x7c
 313 533 l 1
EndSplineSet
Position2: "sous-table 'cpsp' Chasses pour composition en capitales dans Grec lookup 2" dx=5 dy=0 dh=10 dv=0
Position2: "sous-table 'cpsp' Chasses pour composition en capitales dans '    ' lookup 1" dx=5 dy=0 dh=10 dv=0
Position2: "sous-table 'cpsp' Chasses pour composition en capitales dans Latin lookup 0" dx=5 dy=0 dh=10 dv=0
EndChar

StartChar: AE
Encoding: 198 198 8
Width: 910
Flags: MW
HStem: 0 36<563 736 563 874> 214 40<230 433 230 433 207 433> 332 40<563 836 563 836> 649 36<563 727 563 563>
VStem: 433 130<106 214 214 214 254 332 372 598 598 598>
LayerCount: 2
Back
Fore
SplineSet
874 0 m 1
 373 0 l 1
 433 106 l 1
 433 214 l 1
 207 214 l 1
 126 76 l 1
 209 0 l 1
 0 0 l 1
 75 85 l 1
 397 625 l 1
 320 686 l 1
 518 686 l 1
 517 685 l 1
 855 685 l 1
 855 475 l 1
 849 475 l 1
 727 649 l 1
 563 649 l 1
 563 372 l 1
 836 372 l 1
 836 332 l 1
 563 332 l 1
 563 36 l 1
 736 36 l 1
 880 219 l 1
 885 217 l 1
 874 0 l 1
433 598 m 1
 429 601 l 1
 416 575 l 1
 230 254 l 1
 433 254 l 1
 433 598 l 1
EndSplineSet
Position2: "sous-table 'cpsp' Chasses pour composition en capitales dans Grec lookup 2" dx=5 dy=0 dh=10 dv=0
Position2: "sous-table 'cpsp' Chasses pour composition en capitales dans '    ' lookup 1" dx=5 dy=0 dh=10 dv=0
Position2: "sous-table 'cpsp' Chasses pour composition en capitales dans Latin lookup 0" dx=5 dy=0 dh=10 dv=0
EndChar

StartChar: B
Encoding: 66 66 9
Width: 630
Flags: MW
HStem: 0 39<230 260> 353 25<230 294> 653 32<230 230 230 264>
VStem: 100 130<106 353 378 581 581 581> 422 129<489 574> 448 147<138 234 111 252>
LayerCount: 2
Back
Fore
SplineSet
40 685 m 1xf4
 269 685 l 2
 437 685 551 653 551 534 c 0xf8
 551 444 467 400 393 372 c 1
 518 344 595 285 595 183 c 0
 595 39 402 0 260 0 c 2
 40 0 l 1
 100 106 l 1
 100 581 l 1
 40 685 l 1xf4
230 653 m 1
 230 378 l 1
 358 378 422 436 422 514 c 0
 422 634 333 653 264 653 c 2
 230 653 l 1
230 39 m 1
 261 39 l 2
 363 39 448 90 448 186 c 0xf4
 448 318 358 353 230 353 c 1
 230 39 l 1
EndSplineSet
Position2: "sous-table 'cpsp' Chasses pour composition en capitales dans Grec lookup 2" dx=5 dy=0 dh=10 dv=0
Position2: "sous-table 'cpsp' Chasses pour composition en capitales dans '    ' lookup 1" dx=5 dy=0 dh=10 dv=0
Position2: "sous-table 'cpsp' Chasses pour composition en capitales dans Latin lookup 0" dx=5 dy=0 dh=10 dv=0
EndChar

StartChar: C
Encoding: 67 67 10
Width: 651
Flags: MW
HStem: -12 117<318 403.5> 644 41<288.5 565>
VStem: 35 145<321.5 408> 552 13<482 482>
LayerCount: 2
Back
Fore
SplineSet
565 482 m 1
 552 482 l 1
 519 566 451 644 347 644 c 0
 230 644 180 538 180 406 c 0
 180 237 248 105 388 105 c 0
 509 105 569 170 601 221 c 1
 616 211 l 1
 572 107 480 -12 327 -12 c 0
 147 -12 35 123 35 319 c 0
 35 497 168 685 409 685 c 2
 565 685 l 1
 565 482 l 1
EndSplineSet
Position2: "sous-table 'cpsp' Chasses pour composition en capitales dans Grec lookup 2" dx=5 dy=0 dh=10 dv=0
Position2: "sous-table 'cpsp' Chasses pour composition en capitales dans '    ' lookup 1" dx=5 dy=0 dh=10 dv=0
Position2: "sous-table 'cpsp' Chasses pour composition en capitales dans Latin lookup 0" dx=5 dy=0 dh=10 dv=0
EndChar

StartChar: Cacute
Encoding: 262 262 11
Width: 651
Flags: MW
HStem: -12 117<318 403.5> 644 41<288.5 565> 740 129<339 341 326 470>
VStem: 35 145<321.5 408> 552 13<482 482>
LayerCount: 2
Back
Fore
SplineSet
341 740 m 1
 326 740 l 1
 339 869 l 1
 470 869 l 1
 341 740 l 1
565 482 m 1
 552 482 l 1
 519 566 451 644 347 644 c 0
 230 644 180 538 180 406 c 0
 180 237 248 105 388 105 c 0
 509 105 569 170 601 221 c 1
 616 211 l 1
 572 107 480 -12 327 -12 c 0
 147 -12 35 123 35 319 c 0
 35 497 168 685 409 685 c 2
 565 685 l 1
 565 482 l 1
EndSplineSet
Position2: "sous-table 'cpsp' Chasses pour composition en capitales dans Grec lookup 2" dx=5 dy=0 dh=10 dv=0
Position2: "sous-table 'cpsp' Chasses pour composition en capitales dans '    ' lookup 1" dx=5 dy=0 dh=10 dv=0
Position2: "sous-table 'cpsp' Chasses pour composition en capitales dans Latin lookup 0" dx=5 dy=0 dh=10 dv=0
EndChar

StartChar: Ccaron
Encoding: 268 268 12
Width: 651
Flags: MW
HStem: -12 117<318 403.5> 644 41<288.5 565> 740 59<361 361 361 402 319 361>
VStem: 35 145<321.5 408> 552 13<482 482>
LayerCount: 2
Back
Fore
SplineSet
361 799 m 1
 450 869 l 1
 465 869 l 1
 402 740 l 1
 319 740 l 1
 257 869 l 1
 272 869 l 1
 361 799 l 1
565 482 m 1
 552 482 l 1
 519 566 451 644 347 644 c 0
 230 644 180 538 180 406 c 0
 180 237 248 105 388 105 c 0
 509 105 569 170 601 221 c 1
 616 211 l 1
 572 107 480 -12 327 -12 c 0
 147 -12 35 123 35 319 c 0
 35 497 168 685 409 685 c 2
 565 685 l 1
 565 482 l 1
EndSplineSet
Position2: "sous-table 'cpsp' Chasses pour composition en capitales dans Grec lookup 2" dx=5 dy=0 dh=10 dv=0
Position2: "sous-table 'cpsp' Chasses pour composition en capitales dans '    ' lookup 1" dx=5 dy=0 dh=10 dv=0
Position2: "sous-table 'cpsp' Chasses pour composition en capitales dans Latin lookup 0" dx=5 dy=0 dh=10 dv=0
EndChar

StartChar: Ccedilla
Encoding: 199 199 13
Width: 651
Flags: MW
HStem: -171 24<308.5 336.5 308.5 346> -34 22<329 329> -12 117<318 403.5 318 341 341 341> 644 41<288.5 565>
VStem: 35 145<321.5 408> 374 45<-120.5 -108> 552 13<482 482>
LayerCount: 2
Back
Fore
SplineSet
565 482 m 1xbe
 552 482 l 1
 519 566 451 644 347 644 c 0
 230 644 180 538 180 406 c 0
 180 237 248 105 388 105 c 0
 509 105 569 170 601 221 c 1
 616 211 l 1
 572 107 480 -12 327 -12 c 0
 147 -12 35 123 35 319 c 0
 35 497 168 685 409 685 c 2
 565 685 l 1
 565 482 l 1xbe
341 -12 m 1
 329 -34 l 1
 358 -45 419 -63 419 -96 c 0
 419 -145 371 -171 321 -171 c 0
 287 -171 265 -160 239 -137 c 1
 250 -119 l 1
 270 -138 294 -147 323 -147 c 0
 350 -147 374 -138 374 -124 c 0
 374 -92 305 -89 265 -79 c 1
 265 -76 l 1
 310 -12 l 1xde
 341 -12 l 1
EndSplineSet
Position2: "sous-table 'cpsp' Chasses pour composition en capitales dans Grec lookup 2" dx=5 dy=0 dh=10 dv=0
Position2: "sous-table 'cpsp' Chasses pour composition en capitales dans '    ' lookup 1" dx=5 dy=0 dh=10 dv=0
Position2: "sous-table 'cpsp' Chasses pour composition en capitales dans Latin lookup 0" dx=5 dy=0 dh=10 dv=0
EndChar

StartChar: Ccircumflex
Encoding: 264 264 14
Width: 651
Flags: MW
HStem: -12 117<318 403.5> 644 41<288.5 565> 810 59<368 368>
VStem: 35 145<321.5 408> 552 13<482 482>
LayerCount: 2
Back
Fore
SplineSet
264 740 m 1
 326 869 l 1
 409 869 l 1
 472 740 l 1
 457 740 l 1
 368 810 l 1
 279 740 l 1
 264 740 l 1
565 482 m 1
 552 482 l 1
 519 566 451 644 347 644 c 0
 230 644 180 538 180 406 c 0
 180 237 248 105 388 105 c 0
 509 105 569 170 601 221 c 1
 616 211 l 1
 572 107 480 -12 327 -12 c 0
 147 -12 35 123 35 319 c 0
 35 497 168 685 409 685 c 2
 565 685 l 1
 565 482 l 1
EndSplineSet
Position2: "sous-table 'cpsp' Chasses pour composition en capitales dans Grec lookup 2" dx=5 dy=0 dh=10 dv=0
Position2: "sous-table 'cpsp' Chasses pour composition en capitales dans '    ' lookup 1" dx=5 dy=0 dh=10 dv=0
Position2: "sous-table 'cpsp' Chasses pour composition en capitales dans Latin lookup 0" dx=5 dy=0 dh=10 dv=0
EndChar

StartChar: D
Encoding: 68 68 15
Width: 735
Flags: MW
HStem: 0 38<244 289> 653 32<244 306 306 314 244 244>
VStem: 114 130<106 579 579 579> 562 138<283 443 256.5 444>
LayerCount: 2
Back
Fore
SplineSet
40 685 m 1
 306 685 l 2
 608 685 700 514 700 372 c 0
 700 141 535 0 289 0 c 2
 40 0 l 1
 114 106 l 1
 114 579 l 1
 40 685 l 1
244 38 m 1
 307 38 l 2
 519 38 562 222 562 344 c 0
 562 544 472 653 314 653 c 2
 244 653 l 1
 244 38 l 1
EndSplineSet
Position2: "sous-table 'cpsp' Chasses pour composition en capitales dans Grec lookup 2" dx=5 dy=0 dh=10 dv=0
Position2: "sous-table 'cpsp' Chasses pour composition en capitales dans '    ' lookup 1" dx=5 dy=0 dh=10 dv=0
Position2: "sous-table 'cpsp' Chasses pour composition en capitales dans Latin lookup 0" dx=5 dy=0 dh=10 dv=0
EndChar

StartChar: Eth
Encoding: 208 208 16
Width: 708
Flags: MW
HStem: 0 38<229 274> 328 50<25 99 25 99 229 375> 653 32<229 291 291 299 229 229>
VStem: 99 130<106 328 378 579 579 579> 533 140<283 444>
LayerCount: 2
Back
Fore
SplineSet
25 685 m 1
 291 685 l 2
 593 685 673 524 673 382 c 0
 673 140 520 0 274 0 c 2
 25 0 l 1
 99 106 l 1
 99 328 l 1
 25 328 l 1
 25 378 l 1
 99 378 l 1
 99 579 l 1
 25 685 l 1
229 38 m 1
 292 38 l 2
 504 38 533 222 533 344 c 0
 533 544 457 653 299 653 c 2
 229 653 l 1
 229 378 l 1
 375 378 l 1
 375 328 l 1
 229 328 l 1
 229 38 l 1
EndSplineSet
Position2: "sous-table 'cpsp' Chasses pour composition en capitales dans Grec lookup 2" dx=5 dy=0 dh=10 dv=0
Position2: "sous-table 'cpsp' Chasses pour composition en capitales dans '    ' lookup 1" dx=5 dy=0 dh=10 dv=0
Position2: "sous-table 'cpsp' Chasses pour composition en capitales dans Latin lookup 0" dx=5 dy=0 dh=10 dv=0
EndChar

StartChar: Dcaron
Encoding: 270 270 17
Width: 735
Flags: MW
HStem: 0 38<244 289> 653 32<244 306 306 314 244 244> 740 59<348 348 348 389 306 348>
VStem: 114 130<106 579 579 579> 562 138<283 443 256.5 444>
LayerCount: 2
Back
Fore
SplineSet
348 799 m 1
 437 869 l 1
 452 869 l 1
 389 740 l 1
 306 740 l 1
 244 869 l 1
 259 869 l 1
 348 799 l 1
40 685 m 1
 306 685 l 2
 608 685 700 514 700 372 c 0
 700 141 535 0 289 0 c 2
 40 0 l 1
 114 106 l 1
 114 579 l 1
 40 685 l 1
244 38 m 1
 307 38 l 2
 519 38 562 222 562 344 c 0
 562 544 472 653 314 653 c 2
 244 653 l 1
 244 38 l 1
EndSplineSet
Position2: "sous-table 'cpsp' Chasses pour composition en capitales dans Grec lookup 2" dx=5 dy=0 dh=10 dv=0
Position2: "sous-table 'cpsp' Chasses pour composition en capitales dans '    ' lookup 1" dx=5 dy=0 dh=10 dv=0
Position2: "sous-table 'cpsp' Chasses pour composition en capitales dans Latin lookup 0" dx=5 dy=0 dh=10 dv=0
EndChar

StartChar: E
Encoding: 69 69 18
Width: 592
Flags: MW
HStem: 0 36<230 409 230 541> 327 45<230 503 230 503> 649 36<230 400 230 230>
VStem: 100 130<106 327 372 581 581 581> 510 12<475 685>
LayerCount: 2
Back
Fore
SplineSet
552 217 m 1
 541 0 l 1
 40 0 l 1
 100 106 l 1
 100 581 l 1
 40 685 l 1
 522 685 l 1
 522 475 l 1
 510 475 l 1
 400 649 l 1
 230 649 l 1
 230 372 l 1
 503 372 l 1
 503 327 l 1
 230 327 l 1
 230 36 l 1
 409 36 l 1
 541 219 l 1
 552 217 l 1
EndSplineSet
Position2: "sous-table 'cpsp' Chasses pour composition en capitales dans Grec lookup 2" dx=5 dy=0 dh=10 dv=0
Position2: "sous-table 'cpsp' Chasses pour composition en capitales dans '    ' lookup 1" dx=5 dy=0 dh=10 dv=0
Position2: "sous-table 'cpsp' Chasses pour composition en capitales dans Latin lookup 0" dx=5 dy=0 dh=10 dv=0
EndChar

StartChar: Eacute
Encoding: 201 201 19
Width: 592
Flags: MW
HStem: 0 36<230 409 230 541> 327 45<230 503 230 503> 649 220<271 400 230 402>
VStem: 100 130<106 327 372 581 581 581> 510 12<475 685>
LayerCount: 2
Back
Fore
SplineSet
258 740 m 1
 271 869 l 1
 402 869 l 1
 273 740 l 1
 258 740 l 1
541 0 m 1
 40 0 l 1
 100 106 l 1
 100 581 l 1
 40 685 l 1
 522 685 l 1
 522 475 l 1
 510 475 l 1
 400 649 l 1
 230 649 l 1xf8
 230 372 l 1
 503 372 l 1
 503 327 l 1
 230 327 l 1
 230 36 l 1
 409 36 l 1
 541 219 l 1
 552 217 l 1
 541 0 l 1
EndSplineSet
Position2: "sous-table 'cpsp' Chasses pour composition en capitales dans Grec lookup 2" dx=5 dy=0 dh=10 dv=0
Position2: "sous-table 'cpsp' Chasses pour composition en capitales dans '    ' lookup 1" dx=5 dy=0 dh=10 dv=0
Position2: "sous-table 'cpsp' Chasses pour composition en capitales dans Latin lookup 0" dx=5 dy=0 dh=10 dv=0
EndChar

StartChar: Ecaron
Encoding: 282 282 20
Width: 592
Flags: MW
HStem: 0 36<230 409 230 541> 327 45<230 503 230 503> 649 36<230 400 230 230> 740 59<308 308 308 349 266 308>
VStem: 100 130<106 327 372 581 581 581> 510 12<475 685>
LayerCount: 2
Back
Fore
SplineSet
308 799 m 1
 397 869 l 1
 412 869 l 1
 349 740 l 1
 266 740 l 1
 204 869 l 1
 219 869 l 1
 308 799 l 1
541 0 m 1
 40 0 l 1
 100 106 l 1
 100 581 l 1
 40 685 l 1
 522 685 l 1
 522 475 l 1
 510 475 l 1
 400 649 l 1
 230 649 l 1
 230 372 l 1
 503 372 l 1
 503 327 l 1
 230 327 l 1
 230 36 l 1
 409 36 l 1
 541 219 l 1
 552 217 l 1
 541 0 l 1
EndSplineSet
Position2: "sous-table 'cpsp' Chasses pour composition en capitales dans Grec lookup 2" dx=5 dy=0 dh=10 dv=0
Position2: "sous-table 'cpsp' Chasses pour composition en capitales dans '    ' lookup 1" dx=5 dy=0 dh=10 dv=0
Position2: "sous-table 'cpsp' Chasses pour composition en capitales dans Latin lookup 0" dx=5 dy=0 dh=10 dv=0
EndChar

StartChar: Ecircumflex
Encoding: 202 202 21
Width: 592
Flags: MW
HStem: 0 36<230 409 230 541> 327 45<230 503 230 503> 649 36<230 400 230 230> 810 59<303 303>
VStem: 100 130<106 327 372 581 581 581> 510 12<475 685>
LayerCount: 2
Back
Fore
SplineSet
199 740 m 1
 261 869 l 1
 344 869 l 1
 407 740 l 1
 392 740 l 1
 303 810 l 1
 214 740 l 1
 199 740 l 1
541 0 m 1
 40 0 l 1
 100 106 l 1
 100 581 l 1
 40 685 l 1
 522 685 l 1
 522 475 l 1
 510 475 l 1
 400 649 l 1
 230 649 l 1
 230 372 l 1
 503 372 l 1
 503 327 l 1
 230 327 l 1
 230 36 l 1
 409 36 l 1
 541 219 l 1
 552 217 l 1
 541 0 l 1
EndSplineSet
Position2: "sous-table 'cpsp' Chasses pour composition en capitales dans Grec lookup 2" dx=5 dy=0 dh=10 dv=0
Position2: "sous-table 'cpsp' Chasses pour composition en capitales dans '    ' lookup 1" dx=5 dy=0 dh=10 dv=0
Position2: "sous-table 'cpsp' Chasses pour composition en capitales dans Latin lookup 0" dx=5 dy=0 dh=10 dv=0
EndChar

StartChar: Edieresis
Encoding: 203 203 22
Width: 592
Flags: MW
HStem: 0 36<230 409 230 541> 327 45<230 503 230 503> 649 36<230 400 230 230>
VStem: 100 130<106 327 372 581 581 581> 510 12<475 685>
LayerCount: 2
Back
Fore
SplineSet
110 829 m 1
 188 916 l 1
 264 829 l 1
 188 741 l 1
 110 829 l 1
344 829 m 1
 422 916 l 1
 498 829 l 1
 422 741 l 1
 344 829 l 1
541 0 m 1
 40 0 l 1
 100 106 l 1
 100 581 l 1
 40 685 l 1
 522 685 l 1
 522 475 l 1
 510 475 l 1
 400 649 l 1
 230 649 l 1
 230 372 l 1
 503 372 l 1
 503 327 l 1
 230 327 l 1
 230 36 l 1
 409 36 l 1
 541 219 l 1
 552 217 l 1
 541 0 l 1
EndSplineSet
Position2: "sous-table 'cpsp' Chasses pour composition en capitales dans Grec lookup 2" dx=5 dy=0 dh=10 dv=0
Position2: "sous-table 'cpsp' Chasses pour composition en capitales dans '    ' lookup 1" dx=5 dy=0 dh=10 dv=0
Position2: "sous-table 'cpsp' Chasses pour composition en capitales dans Latin lookup 0" dx=5 dy=0 dh=10 dv=0
EndChar

StartChar: Edotaccent
Encoding: 278 278 23
Width: 592
Flags: MW
HStem: 0 36<230 409 230 541> 327 45<230 503 230 503> 649 36<230 400 230 230>
VStem: 100 130<106 327 372 581 581 581> 510 12<475 685>
LayerCount: 2
Back
Fore
SplineSet
231 820 m 1
 302 900 l 1
 372 820 l 1
 302 739 l 1
 231 820 l 1
541 0 m 1
 40 0 l 1
 100 106 l 1
 100 581 l 1
 40 685 l 1
 522 685 l 1
 522 475 l 1
 510 475 l 1
 400 649 l 1
 230 649 l 1
 230 372 l 1
 503 372 l 1
 503 327 l 1
 230 327 l 1
 230 36 l 1
 409 36 l 1
 541 219 l 1
 552 217 l 1
 541 0 l 1
EndSplineSet
Position2: "sous-table 'cpsp' Chasses pour composition en capitales dans Grec lookup 2" dx=5 dy=0 dh=10 dv=0
Position2: "sous-table 'cpsp' Chasses pour composition en capitales dans '    ' lookup 1" dx=5 dy=0 dh=10 dv=0
Position2: "sous-table 'cpsp' Chasses pour composition en capitales dans Latin lookup 0" dx=5 dy=0 dh=10 dv=0
EndChar

StartChar: Egrave
Encoding: 200 200 24
Width: 592
Flags: MW
HStem: 0 36<230 409 230 541> 327 45<230 503 230 503> 649 220<230 329 198 400 230 230>
VStem: 100 130<106 327 372 581 581 581> 510 12<475 685>
LayerCount: 2
Back
Fore
SplineSet
327 740 m 1
 198 869 l 1
 329 869 l 1
 342 740 l 1
 327 740 l 1
541 0 m 1
 40 0 l 1
 100 106 l 1
 100 581 l 1
 40 685 l 1
 522 685 l 1
 522 475 l 1
 510 475 l 1
 400 649 l 1
 230 649 l 1xf8
 230 372 l 1
 503 372 l 1
 503 327 l 1
 230 327 l 1
 230 36 l 1
 409 36 l 1
 541 219 l 1
 552 217 l 1
 541 0 l 1
EndSplineSet
Position2: "sous-table 'cpsp' Chasses pour composition en capitales dans Grec lookup 2" dx=5 dy=0 dh=10 dv=0
Position2: "sous-table 'cpsp' Chasses pour composition en capitales dans '    ' lookup 1" dx=5 dy=0 dh=10 dv=0
Position2: "sous-table 'cpsp' Chasses pour composition en capitales dans Latin lookup 0" dx=5 dy=0 dh=10 dv=0
EndChar

StartChar: F
Encoding: 70 70 25
Width: 562
Flags: MW
HStem: 0 106<100 100 40 100> 323 46<230 495 230 495> 649 36<230 400 230 230>
VStem: 100 130<106 323 369 581 581 581> 512 10<481 685>
LayerCount: 2
Back
Fore
SplineSet
40 6 m 1
 100 106 l 1
 100 581 l 1
 40 685 l 1
 522 685 l 1
 522 481 l 1
 512 481 l 1
 400 649 l 1
 230 649 l 1
 230 369 l 1
 495 369 l 1
 495 323 l 1
 230 323 l 1
 230 106 l 1
 337 0 l 1
 40 0 l 1
 40 6 l 1
EndSplineSet
Position2: "sous-table 'cpsp' Chasses pour composition en capitales dans Grec lookup 2" dx=5 dy=0 dh=10 dv=0
Position2: "sous-table 'cpsp' Chasses pour composition en capitales dans '    ' lookup 1" dx=5 dy=0 dh=10 dv=0
Position2: "sous-table 'cpsp' Chasses pour composition en capitales dans Latin lookup 0" dx=5 dy=0 dh=10 dv=0
EndChar

StartChar: G
Encoding: 71 71 26
Width: 687
Flags: MW
HStem: -13 73<310 360> -6 21G<595 610 595 595> 299 10<377 663> 643 41<289.5 565>
VStem: 35 149<328 407> 482 128<79 245 245 245> 552 13<481 684>
LayerCount: 2
Back
Fore
SplineSet
663 309 m 1xbc
 663 299 l 1
 610 262 l 1
 610 -6 l 1
 595 -6 l 1x7c
 500 47 l 1
 452 14 393 -13 327 -13 c 0
 147 -13 35 122 35 318 c 0
 35 496 168 684 409 684 c 2
 565 684 l 1
 565 481 l 1
 552 481 l 1xba
 506 561 453 643 340 643 c 0
 239 643 184 562 184 405 c 0
 184 251 221 60 399 60 c 0
 419 60 455 66 482 79 c 1
 482 245 l 1
 377 298 l 1
 377 309 l 1
 663 309 l 1xbc
EndSplineSet
Position2: "sous-table 'cpsp' Chasses pour composition en capitales dans Grec lookup 2" dx=5 dy=0 dh=10 dv=0
Position2: "sous-table 'cpsp' Chasses pour composition en capitales dans '    ' lookup 1" dx=5 dy=0 dh=10 dv=0
Position2: "sous-table 'cpsp' Chasses pour composition en capitales dans Latin lookup 0" dx=5 dy=0 dh=10 dv=0
EndChar

StartChar: H
Encoding: 72 72 27
Width: 780
Flags: MW
HStem: 0 21G<30 308 30 30 461 739 461 461> 333 45<234 535 234 535> 665 20G<31 309 309 309 462 740 740 740>
VStem: 104 130<106 333 106 378 378 579> 535 130<106 333 333 333 378 579>
LayerCount: 2
Back
Fore
SplineSet
665 106 m 1
 739 0 l 1
 461 0 l 1
 535 106 l 1
 535 333 l 1
 234 333 l 1
 234 106 l 1
 308 0 l 1
 30 0 l 1
 104 106 l 1
 104 580 l 1
 31 685 l 1
 309 685 l 1
 234 579 l 1
 234 378 l 1
 535 378 l 1
 535 580 l 1
 462 685 l 1
 740 685 l 1
 665 579 l 1
 665 106 l 1
EndSplineSet
Position2: "sous-table 'cpsp' Chasses pour composition en capitales dans Grec lookup 2" dx=5 dy=0 dh=10 dv=0
Position2: "sous-table 'cpsp' Chasses pour composition en capitales dans '    ' lookup 1" dx=5 dy=0 dh=10 dv=0
Position2: "sous-table 'cpsp' Chasses pour composition en capitales dans Latin lookup 0" dx=5 dy=0 dh=10 dv=0
EndChar

StartChar: I
Encoding: 73 73 28
Width: 358
Flags: MW
HStem: 0 21G<40 318 40 40> 665 20G<40 318 318 318>
VStem: 114 130<106 579 106 579>
LayerCount: 2
Back
Fore
SplineSet
318 0 m 1
 40 0 l 1
 114 106 l 1
 114 579 l 1
 40 685 l 1
 318 685 l 1
 244 579 l 1
 244 106 l 1
 318 0 l 1
EndSplineSet
Position2: "sous-table 'cpsp' Chasses pour composition en capitales dans Grec lookup 2" dx=5 dy=0 dh=10 dv=0
Position2: "sous-table 'cpsp' Chasses pour composition en capitales dans '    ' lookup 1" dx=5 dy=0 dh=10 dv=0
Position2: "sous-table 'cpsp' Chasses pour composition en capitales dans Latin lookup 0" dx=5 dy=0 dh=10 dv=0
EndChar

StartChar: IJ
Encoding: 306 306 29
Width: 691
Flags: MW
HStem: 0 21G<40 318 40 40> 665 20G<40 318 318 318 373 651 651 651>
VStem: 114 130<106 579 106 579> 447 130<-34.5 4 4 579>
LayerCount: 2
Back
Fore
SplineSet
318 0 m 1
 40 0 l 1
 114 106 l 1
 114 579 l 1
 40 685 l 1
 318 685 l 1
 244 579 l 1
 244 106 l 1
 318 0 l 1
651 685 m 1
 577 579 l 1
 577 4 l 2
 577 -73 488 -142 432 -176 c 1
 425 -172 l 1
 437 -147 447 -106 447 -73 c 2
 447 579 l 1
 373 685 l 1
 651 685 l 1
EndSplineSet
Position2: "sous-table 'cpsp' Chasses pour composition en capitales dans Grec lookup 2" dx=5 dy=0 dh=10 dv=0
Position2: "sous-table 'cpsp' Chasses pour composition en capitales dans '    ' lookup 1" dx=5 dy=0 dh=10 dv=0
Position2: "sous-table 'cpsp' Chasses pour composition en capitales dans Latin lookup 0" dx=5 dy=0 dh=10 dv=0
EndChar

StartChar: Iacute
Encoding: 205 205 30
Width: 358
Flags: MW
HStem: 0 21G<40 318 40 40> 665 20G<40 318 318 318> 740 129<154 156 141 285>
VStem: 114 130<106 579 106 579>
LayerCount: 2
Back
Fore
SplineSet
156 740 m 1
 141 740 l 1
 154 869 l 1
 285 869 l 1
 156 740 l 1
318 0 m 1
 40 0 l 1
 114 106 l 1
 114 579 l 1
 40 685 l 1
 318 685 l 1
 244 579 l 1
 244 106 l 1
 318 0 l 1
EndSplineSet
Position2: "sous-table 'cpsp' Chasses pour composition en capitales dans Grec lookup 2" dx=5 dy=0 dh=10 dv=0
Position2: "sous-table 'cpsp' Chasses pour composition en capitales dans '    ' lookup 1" dx=5 dy=0 dh=10 dv=0
Position2: "sous-table 'cpsp' Chasses pour composition en capitales dans Latin lookup 0" dx=5 dy=0 dh=10 dv=0
EndChar

StartChar: Icircumflex
Encoding: 206 206 31
Width: 358
Flags: MW
HStem: 0 21G<40 318 40 40> 665 20G<40 318 318 318> 810 59<182 182>
VStem: 114 130<106 579 106 579>
LayerCount: 2
Back
Fore
SplineSet
78 740 m 1
 140 869 l 1
 223 869 l 1
 286 740 l 1
 271 740 l 1
 182 810 l 1
 93 740 l 1
 78 740 l 1
318 0 m 1
 40 0 l 1
 114 106 l 1
 114 579 l 1
 40 685 l 1
 318 685 l 1
 244 579 l 1
 244 106 l 1
 318 0 l 1
EndSplineSet
Position2: "sous-table 'cpsp' Chasses pour composition en capitales dans Grec lookup 2" dx=5 dy=0 dh=10 dv=0
Position2: "sous-table 'cpsp' Chasses pour composition en capitales dans '    ' lookup 1" dx=5 dy=0 dh=10 dv=0
Position2: "sous-table 'cpsp' Chasses pour composition en capitales dans Latin lookup 0" dx=5 dy=0 dh=10 dv=0
EndChar

StartChar: Idieresis
Encoding: 207 207 32
Width: 446
Flags: MW
HStem: 0 21G<84 362 84 84> 665 20G<84 362 362 362>
VStem: 158 130<106 579 106 579>
LayerCount: 2
Back
Fore
SplineSet
30 830 m 1
 106 917 l 1
 184 830 l 1
 106 742 l 1
 30 830 l 1
262 830 m 1
 340 917 l 1
 416 830 l 1
 340 742 l 1
 262 830 l 1
362 0 m 1
 84 0 l 1
 158 106 l 1
 158 579 l 1
 84 685 l 1
 362 685 l 1
 288 579 l 1
 288 106 l 1
 362 0 l 1
EndSplineSet
Position2: "sous-table 'cpsp' Chasses pour composition en capitales dans Grec lookup 2" dx=5 dy=0 dh=10 dv=0
Position2: "sous-table 'cpsp' Chasses pour composition en capitales dans '    ' lookup 1" dx=5 dy=0 dh=10 dv=0
Position2: "sous-table 'cpsp' Chasses pour composition en capitales dans Latin lookup 0" dx=5 dy=0 dh=10 dv=0
EndChar

StartChar: Igrave
Encoding: 204 204 33
Width: 358
Flags: MW
HStem: 0 21G<40 318 40 40> 665 20G<40 318 318 318> 740 129<203 203 203 205 74 218>
VStem: 114 130<106 579 106 579>
LayerCount: 2
Back
Fore
SplineSet
203 740 m 1
 74 869 l 1
 205 869 l 1
 218 740 l 1
 203 740 l 1
318 0 m 1
 40 0 l 1
 114 106 l 1
 114 579 l 1
 40 685 l 1
 318 685 l 1
 244 579 l 1
 244 106 l 1
 318 0 l 1
EndSplineSet
Position2: "sous-table 'cpsp' Chasses pour composition en capitales dans Grec lookup 2" dx=5 dy=0 dh=10 dv=0
Position2: "sous-table 'cpsp' Chasses pour composition en capitales dans '    ' lookup 1" dx=5 dy=0 dh=10 dv=0
Position2: "sous-table 'cpsp' Chasses pour composition en capitales dans Latin lookup 0" dx=5 dy=0 dh=10 dv=0
EndChar

StartChar: J
Encoding: 74 74 34
Width: 338
Flags: MW
HStem: 665 20G<30 308 308 308>
VStem: 104 130<-34.5 4 4 579>
LayerCount: 2
Back
Fore
SplineSet
308 685 m 1
 234 579 l 1
 234 4 l 2
 234 -73 145 -142 89 -176 c 1
 82 -172 l 1
 94 -147 104 -106 104 -73 c 2
 104 579 l 1
 30 685 l 1
 308 685 l 1
EndSplineSet
Position2: "sous-table 'cpsp' Chasses pour composition en capitales dans Grec lookup 2" dx=5 dy=0 dh=10 dv=0
Position2: "sous-table 'cpsp' Chasses pour composition en capitales dans '    ' lookup 1" dx=5 dy=0 dh=10 dv=0
Position2: "sous-table 'cpsp' Chasses pour composition en capitales dans Latin lookup 0" dx=5 dy=0 dh=10 dv=0
EndChar

StartChar: K
Encoding: 75 75 35
Width: 769
Flags: MW
HStem: 0 63<474 474 474 757 428 474> 591 20G<502 502> 611 75<502 502>
VStem: 114 130<106 282 106 345 345 580>
LayerCount: 2
Back
Fore
SplineSet
428 0 m 1xd0
 474 63 l 1
 286 324 l 1
 244 282 l 1
 244 106 l 1
 318 0 l 1
 40 0 l 1
 114 106 l 1
 114 580 l 1
 40 686 l 1
 318 686 l 1
 244 580 l 1
 244 345 l 1
 392 495 l 1
 502 611 l 1
 470 686 l 1
 702 686 l 1
 557 596 l 1xb0
 382 421 l 1
 639 76 l 1
 757 0 l 1
 428 0 l 1xd0
EndSplineSet
Position2: "sous-table 'cpsp' Chasses pour composition en capitales dans Grec lookup 2" dx=5 dy=0 dh=10 dv=0
Position2: "sous-table 'cpsp' Chasses pour composition en capitales dans '    ' lookup 1" dx=5 dy=0 dh=10 dv=0
Position2: "sous-table 'cpsp' Chasses pour composition en capitales dans Latin lookup 0" dx=5 dy=0 dh=10 dv=0
EndChar

StartChar: L
Encoding: 76 76 36
Width: 610
Flags: MW
HStem: 0 45<230 438 230 569> 665 20G<40 306 306 306>
VStem: 100 130<106 580 45 581 45 581>
LayerCount: 2
Back
Fore
SplineSet
580 216 m 1
 569 0 l 1
 40 0 l 1
 100 106 l 1
 100 581 l 1
 40 685 l 1
 306 685 l 1
 230 580 l 1
 230 45 l 1
 438 45 l 1
 570 216 l 1
 580 216 l 1
EndSplineSet
Position2: "sous-table 'cpsp' Chasses pour composition en capitales dans Grec lookup 2" dx=5 dy=0 dh=10 dv=0
Position2: "sous-table 'cpsp' Chasses pour composition en capitales dans '    ' lookup 1" dx=5 dy=0 dh=10 dv=0
Position2: "sous-table 'cpsp' Chasses pour composition en capitales dans Latin lookup 0" dx=5 dy=0 dh=10 dv=0
EndChar

StartChar: Lacute
Encoding: 313 313 37
Width: 610
Flags: MW
HStem: 0 45<230 438 230 569> 665 20G<40 306 306 306> 740 129<161 163 148 292>
VStem: 100 130<106 580 45 581 45 581>
LayerCount: 2
Back
Fore
SplineSet
163 740 m 1
 148 740 l 1
 161 869 l 1
 292 869 l 1
 163 740 l 1
580 216 m 1
 569 0 l 1
 40 0 l 1
 100 106 l 1
 100 581 l 1
 40 685 l 1
 306 685 l 1
 230 580 l 1
 230 45 l 1
 438 45 l 1
 570 216 l 1
 580 216 l 1
EndSplineSet
Position2: "sous-table 'cpsp' Chasses pour composition en capitales dans Grec lookup 2" dx=5 dy=0 dh=10 dv=0
Position2: "sous-table 'cpsp' Chasses pour composition en capitales dans '    ' lookup 1" dx=5 dy=0 dh=10 dv=0
Position2: "sous-table 'cpsp' Chasses pour composition en capitales dans Latin lookup 0" dx=5 dy=0 dh=10 dv=0
EndChar

StartChar: Lcaron
Encoding: 317 317 38
Width: 614
Flags: MW
HStem: 0 45<230 438 230 569> 665 20G<40 306 306 306>
VStem: 100 130<106 580 45 581 45 581> 464 96<524 631>
LayerCount: 2
Back
Fore
SplineSet
413 429 m 1
 399 439 l 1
 433 467 464 505 464 543 c 0
 464 569 448 581 435 595 c 2
 396 626 l 1
 479 711 l 1
 512 691 560 648 560 614 c 0
 560 516 435 443 413 429 c 1
580 216 m 1
 569 0 l 1
 40 0 l 1
 100 106 l 1
 100 581 l 1
 40 685 l 1
 306 685 l 1
 230 580 l 1
 230 45 l 1
 438 45 l 1
 570 216 l 1
 580 216 l 1
EndSplineSet
Position2: "sous-table 'cpsp' Chasses pour composition en capitales dans Grec lookup 2" dx=5 dy=0 dh=10 dv=0
Position2: "sous-table 'cpsp' Chasses pour composition en capitales dans '    ' lookup 1" dx=5 dy=0 dh=10 dv=0
Position2: "sous-table 'cpsp' Chasses pour composition en capitales dans Latin lookup 0" dx=5 dy=0 dh=10 dv=0
EndChar

StartChar: Ldot
Encoding: 319 319 39
Width: 614
Flags: MW
HStem: 0 45<230 438 230 569> 665 20G<40 306 306 306>
VStem: 100 130<106 580 45 581 45 581>
LayerCount: 2
Back
Fore
SplineSet
580 216 m 1
 569 0 l 1
 40 0 l 1
 100 106 l 1
 100 581 l 1
 40 685 l 1
 306 685 l 1
 230 580 l 1
 230 45 l 1
 438 45 l 1
 570 216 l 1
 580 216 l 1
457 287 m 1
 371 379 l 1
 457 472 l 1
 542 379 l 1
 457 287 l 1
EndSplineSet
Ligature2: "sous-table Remplacement de ligature lookups36" L periodcentered
Position2: "sous-table 'cpsp' Chasses pour composition en capitales dans Grec lookup 2" dx=5 dy=0 dh=10 dv=0
Position2: "sous-table 'cpsp' Chasses pour composition en capitales dans '    ' lookup 1" dx=5 dy=0 dh=10 dv=0
Position2: "sous-table 'cpsp' Chasses pour composition en capitales dans Latin lookup 0" dx=5 dy=0 dh=10 dv=0
EndChar

StartChar: Lslash
Encoding: 321 321 40
Width: 624
Flags: MW
HStem: 0 36<239 440 239 578> 665 20G<49 315 315 315>
VStem: 109 130<106 289 289 289 389 580>
LayerCount: 2
Back
Fore
SplineSet
578 0 m 1
 49 0 l 1
 109 106 l 1
 109 289 l 1
 10 260 l 1
 10 322 l 1
 109 351 l 1
 109 581 l 1
 49 685 l 1
 315 685 l 1
 239 580 l 1
 239 389 l 1
 370 428 l 1
 370 364 l 1
 239 326 l 1
 239 36 l 1
 440 36 l 1
 579 215 l 1
 589 215 l 1
 578 0 l 1
EndSplineSet
Position2: "sous-table 'cpsp' Chasses pour composition en capitales dans Grec lookup 2" dx=5 dy=0 dh=10 dv=0
Position2: "sous-table 'cpsp' Chasses pour composition en capitales dans '    ' lookup 1" dx=5 dy=0 dh=10 dv=0
Position2: "sous-table 'cpsp' Chasses pour composition en capitales dans Latin lookup 0" dx=5 dy=0 dh=10 dv=0
EndChar

StartChar: M
Encoding: 77 77 41
Width: 916
Flags: MW
HStem: -12 21G<410 417 410 410> 0 21G<29 234 29 29 592 592 592 881> 508 177<153 153> 587 98<676 676>
VStem: 106 47<96 508> 676 130<105 587 587 587>
LayerCount: 2
Back
Fore
SplineSet
153 96 m 1x5c
 234 0 l 1
 29 0 l 1
 106 96 l 1
 106 581 l 1
 20 685 l 1
 218 685 l 1
 456 185 l 1
 671 685 l 1
 880 685 l 1
 806 603 l 1
 806 105 l 1
 881 0 l 1
 592 0 l 1
 676 104 l 1
 676 587 l 1x5c
 417 -12 l 1
 410 -12 l 1
 153 508 l 1xac
 153 96 l 1x5c
EndSplineSet
Position2: "sous-table 'cpsp' Chasses pour composition en capitales dans Grec lookup 2" dx=5 dy=0 dh=10 dv=0
Position2: "sous-table 'cpsp' Chasses pour composition en capitales dans '    ' lookup 1" dx=5 dy=0 dh=10 dv=0
Position2: "sous-table 'cpsp' Chasses pour composition en capitales dans Latin lookup 0" dx=5 dy=0 dh=10 dv=0
EndChar

StartChar: N
Encoding: 78 78 42
Width: 756
Flags: MW
HStem: 0 21G<47 253 47 47 535 690 535 535> 0 114<599 599 599 690 535 599> 599 86<599 599>
VStem: 121 47<93 489 86 558> 599 48<114 592>
LayerCount: 2
Back
Fore
SplineSet
647 58 m 1xb8
 690 0 l 1
 535 0 l 1
 168 489 l 1
 168 86 l 1
 253 0 l 1
 47 0 l 1
 121 93 l 1
 121 558 l 1
 24 685 l 1
 189 685 l 1
 599 114 l 1x78
 599 599 l 1
 513 685 l 1
 721 685 l 1
 647 592 l 1
 647 58 l 1xb8
EndSplineSet
Position2: "sous-table 'cpsp' Chasses pour composition en capitales dans Grec lookup 2" dx=5 dy=0 dh=10 dv=0
Position2: "sous-table 'cpsp' Chasses pour composition en capitales dans '    ' lookup 1" dx=5 dy=0 dh=10 dv=0
Position2: "sous-table 'cpsp' Chasses pour composition en capitales dans Latin lookup 0" dx=5 dy=0 dh=10 dv=0
EndChar

StartChar: Nacute
Encoding: 323 323 43
Width: 756
Flags: MW
HStem: 0 86<164 164 164 250> 599 86<593 593> 740 129<359 361 346 490>
VStem: 110 54<93 487 86 558> 593 54<130 592 58 599 58 599>
LayerCount: 2
Back
Fore
SplineSet
361 740 m 1
 346 740 l 1
 359 869 l 1
 490 869 l 1
 361 740 l 1
164 487 m 1
 164 86 l 1
 250 0 l 1
 36 0 l 1
 110 93 l 1
 110 558 l 1
 13 685 l 1
 178 685 l 1
 593 130 l 1
 593 599 l 1
 507 685 l 1
 721 685 l 1
 647 592 l 1
 647 58 l 1
 690 0 l 1
 535 0 l 1
 164 487 l 1
EndSplineSet
Position2: "sous-table 'cpsp' Chasses pour composition en capitales dans Grec lookup 2" dx=5 dy=0 dh=10 dv=0
Position2: "sous-table 'cpsp' Chasses pour composition en capitales dans '    ' lookup 1" dx=5 dy=0 dh=10 dv=0
Position2: "sous-table 'cpsp' Chasses pour composition en capitales dans Latin lookup 0" dx=5 dy=0 dh=10 dv=0
EndChar

StartChar: Ncaron
Encoding: 327 327 44
Width: 756
Flags: MW
HStem: 0 86<164 164 164 250> 599 86<593 593> 740 59<380 380 380 421 338 380>
VStem: 110 54<93 487 86 558> 593 54<130 592 58 599 58 599>
LayerCount: 2
Back
Fore
SplineSet
380 799 m 1
 469 869 l 1
 484 869 l 1
 421 740 l 1
 338 740 l 1
 276 869 l 1
 291 869 l 1
 380 799 l 1
164 487 m 1
 164 86 l 1
 250 0 l 1
 36 0 l 1
 110 93 l 1
 110 558 l 1
 13 685 l 1
 178 685 l 1
 593 130 l 1
 593 599 l 1
 507 685 l 1
 721 685 l 1
 647 592 l 1
 647 58 l 1
 690 0 l 1
 535 0 l 1
 164 487 l 1
EndSplineSet
Position2: "sous-table 'cpsp' Chasses pour composition en capitales dans Grec lookup 2" dx=5 dy=0 dh=10 dv=0
Position2: "sous-table 'cpsp' Chasses pour composition en capitales dans '    ' lookup 1" dx=5 dy=0 dh=10 dv=0
Position2: "sous-table 'cpsp' Chasses pour composition en capitales dans Latin lookup 0" dx=5 dy=0 dh=10 dv=0
EndChar

StartChar: Ntilde
Encoding: 209 209 45
Width: 756
Flags: MW
HStem: 0 21G<47 253 47 47 535 690 535 535> 0 114<599 599 599 690 535 599> 599 86<599 599> 746 62
VStem: 121 47<93 489 86 558> 599 48<114 592>
LayerCount: 2
Back
Fore
SplineSet
511 836 m 1xbc
 452 735 l 1
 403 739 347 746 298 746 c 0
 285 746 271 725 258 703 c 1
 244 712 l 1
 307 819 l 1
 353 815 406 808 452 808 c 0
 467 808 481 823 496 842 c 1
 511 836 l 1xbc
647 58 m 1
 690 0 l 1
 535 0 l 1
 168 489 l 1
 168 86 l 1
 253 0 l 1
 47 0 l 1
 121 93 l 1
 121 558 l 1
 24 685 l 1
 189 685 l 1
 599 114 l 1x7c
 599 599 l 1
 513 685 l 1
 721 685 l 1
 647 592 l 1
 647 58 l 1
EndSplineSet
Position2: "sous-table 'cpsp' Chasses pour composition en capitales dans Grec lookup 2" dx=5 dy=0 dh=10 dv=0
Position2: "sous-table 'cpsp' Chasses pour composition en capitales dans '    ' lookup 1" dx=5 dy=0 dh=10 dv=0
Position2: "sous-table 'cpsp' Chasses pour composition en capitales dans Latin lookup 0" dx=5 dy=0 dh=10 dv=0
EndChar

StartChar: O
Encoding: 79 79 46
Width: 738
Flags: MW
HStem: -12 42<331 453> 655 43<285 407>
VStem: 35 142<331 413.5> 563 140<272.5 355>
LayerCount: 2
Back
Fore
SplineSet
703 373 m 0
 703 172 575 -12 331 -12 c 0
 147 -12 35 150 35 313 c 0
 35 514 163 698 407 698 c 0
 591 698 703 536 703 373 c 0
336 655 m 0
 201 655 177 513 177 434 c 0
 177 228 260 30 402 30 c 0
 522 30 563 173 563 252 c 0
 563 458 478 655 336 655 c 0
EndSplineSet
Position2: "sous-table 'cpsp' Chasses pour composition en capitales dans Grec lookup 2" dx=5 dy=0 dh=10 dv=0
Position2: "sous-table 'cpsp' Chasses pour composition en capitales dans '    ' lookup 1" dx=5 dy=0 dh=10 dv=0
Position2: "sous-table 'cpsp' Chasses pour composition en capitales dans Latin lookup 0" dx=5 dy=0 dh=10 dv=0
EndChar

StartChar: Oacute
Encoding: 211 211 47
Width: 738
Flags: MW
HStem: -12 42<331 453> 655 43<285 407> 740 129<344 346 331 475>
VStem: 35 142<331 413.5> 563 140<272.5 355>
LayerCount: 2
Back
Fore
SplineSet
346 740 m 1
 331 740 l 1
 344 869 l 1
 475 869 l 1
 346 740 l 1
703 373 m 0
 703 172 575 -12 331 -12 c 0
 147 -12 35 150 35 313 c 0
 35 514 163 698 407 698 c 0
 591 698 703 536 703 373 c 0
336 655 m 0
 201 655 177 513 177 434 c 0
 177 228 260 30 402 30 c 0
 522 30 563 173 563 252 c 0
 563 458 478 655 336 655 c 0
EndSplineSet
Position2: "sous-table 'cpsp' Chasses pour composition en capitales dans Grec lookup 2" dx=5 dy=0 dh=10 dv=0
Position2: "sous-table 'cpsp' Chasses pour composition en capitales dans '    ' lookup 1" dx=5 dy=0 dh=10 dv=0
Position2: "sous-table 'cpsp' Chasses pour composition en capitales dans Latin lookup 0" dx=5 dy=0 dh=10 dv=0
EndChar

StartChar: Ocircumflex
Encoding: 212 212 48
Width: 738
Flags: MW
HStem: -12 42<331 453> 655 43<285 407> 810 59<367 367>
VStem: 35 142<331 413.5> 563 140<272.5 355>
LayerCount: 2
Back
Fore
SplineSet
263 740 m 1
 325 869 l 1
 408 869 l 1
 471 740 l 1
 456 740 l 1
 367 810 l 1
 278 740 l 1
 263 740 l 1
703 373 m 0
 703 172 575 -12 331 -12 c 0
 147 -12 35 150 35 313 c 0
 35 514 163 698 407 698 c 0
 591 698 703 536 703 373 c 0
336 655 m 0
 201 655 177 513 177 434 c 0
 177 228 260 30 402 30 c 0
 522 30 563 173 563 252 c 0
 563 458 478 655 336 655 c 0
EndSplineSet
Position2: "sous-table 'cpsp' Chasses pour composition en capitales dans Grec lookup 2" dx=5 dy=0 dh=10 dv=0
Position2: "sous-table 'cpsp' Chasses pour composition en capitales dans '    ' lookup 1" dx=5 dy=0 dh=10 dv=0
Position2: "sous-table 'cpsp' Chasses pour composition en capitales dans Latin lookup 0" dx=5 dy=0 dh=10 dv=0
EndChar

StartChar: Odieresis
Encoding: 214 214 49
Width: 738
Flags: MW
HStem: -12 42<331 453> 655 43<285 407>
VStem: 35 142<331 413.5> 563 140<272.5 355>
LayerCount: 2
Back
Fore
SplineSet
171 828 m 1
 249 915 l 1
 325 828 l 1
 249 740 l 1
 171 828 l 1
405 828 m 1
 483 915 l 1
 559 828 l 1
 483 740 l 1
 405 828 l 1
703 373 m 0
 703 172 575 -12 331 -12 c 0
 147 -12 35 150 35 313 c 0
 35 514 163 698 407 698 c 0
 591 698 703 536 703 373 c 0
336 655 m 0
 201 655 177 513 177 434 c 0
 177 228 260 30 402 30 c 0
 522 30 563 173 563 252 c 0
 563 458 478 655 336 655 c 0
EndSplineSet
Position2: "sous-table 'cpsp' Chasses pour composition en capitales dans Grec lookup 2" dx=5 dy=0 dh=10 dv=0
Position2: "sous-table 'cpsp' Chasses pour composition en capitales dans '    ' lookup 1" dx=5 dy=0 dh=10 dv=0
Position2: "sous-table 'cpsp' Chasses pour composition en capitales dans Latin lookup 0" dx=5 dy=0 dh=10 dv=0
EndChar

StartChar: Ograve
Encoding: 210 210 50
Width: 738
Flags: MW
HStem: -12 42<331 453> 655 43<285 407> 740 129<337 337 337 339 208 352>
VStem: 35 142<331 413.5> 563 140<272.5 355>
LayerCount: 2
Back
Fore
SplineSet
337 740 m 1
 208 869 l 1
 339 869 l 1
 352 740 l 1
 337 740 l 1
703 373 m 0
 703 172 575 -12 331 -12 c 0
 147 -12 35 150 35 313 c 0
 35 514 163 698 407 698 c 0
 591 698 703 536 703 373 c 0
336 655 m 0
 201 655 177 513 177 434 c 0
 177 228 260 30 402 30 c 0
 522 30 563 173 563 252 c 0
 563 458 478 655 336 655 c 0
EndSplineSet
Position2: "sous-table 'cpsp' Chasses pour composition en capitales dans Grec lookup 2" dx=5 dy=0 dh=10 dv=0
Position2: "sous-table 'cpsp' Chasses pour composition en capitales dans '    ' lookup 1" dx=5 dy=0 dh=10 dv=0
Position2: "sous-table 'cpsp' Chasses pour composition en capitales dans Latin lookup 0" dx=5 dy=0 dh=10 dv=0
EndChar

StartChar: Oslash
Encoding: 216 216 51
Width: 752
Flags: MW
HStem: -12 42<376 463> -5 21G<30 97 30 30> 574 20G<636 636> 655 43<295 381.5> 670 20G<655 722 722 722>
VStem: 45 142<394 413.5> 573 140<272.5 293>
LayerCount: 2
Back
Fore
SplineSet
722 690 m 1x00
 636 594 l 1
 686 534 713 453 713 373 c 0
 713 172 585 -12 341 -12 c 0
 266 -12 202 15 154 58 c 1x76
 97 -5 l 1
 30 -5 l 1
 120 95 l 1
 71 155 45 234 45 313 c 0
 45 514 173 698 417 698 c 0
 491 698 553 672 601 630 c 1xae
 655 690 l 1
 722 690 l 1x00
223 209 m 1
 512 531 l 1
 473 606 417 655 346 655 c 0
 211 655 187 513 187 434 c 0
 187 354 199 276 223 209 c 1
534 481 m 1
 244 159 l 1
 283 81 340 30 412 30 c 0
 532 30 573 173 573 252 c 0
 573 334 560 414 534 481 c 1
EndSplineSet
Position2: "sous-table 'cpsp' Chasses pour composition en capitales dans Grec lookup 2" dx=5 dy=0 dh=10 dv=0
Position2: "sous-table 'cpsp' Chasses pour composition en capitales dans '    ' lookup 1" dx=5 dy=0 dh=10 dv=0
Position2: "sous-table 'cpsp' Chasses pour composition en capitales dans Latin lookup 0" dx=5 dy=0 dh=10 dv=0
EndChar

StartChar: Otilde
Encoding: 213 213 52
Width: 738
Flags: MW
HStem: -12 42<331 453> 655 43<285 407> 719 20G<222 222> 773 62
VStem: 35 142<331 413.5> 563 140<272.5 355>
LayerCount: 2
Back
Fore
SplineSet
222 739 m 1
 285 846 l 1
 331 842 384 835 430 835 c 0
 445 835 459 850 474 869 c 1
 489 863 l 1
 430 762 l 1
 381 766 325 773 276 773 c 0
 263 773 249 752 236 730 c 1
 222 739 l 1
703 373 m 0
 703 172 575 -12 331 -12 c 0
 147 -12 35 150 35 313 c 0
 35 514 163 698 407 698 c 0
 591 698 703 536 703 373 c 0
336 655 m 0
 201 655 177 513 177 434 c 0
 177 228 260 30 402 30 c 0
 522 30 563 173 563 252 c 0
 563 458 478 655 336 655 c 0
EndSplineSet
Position2: "sous-table 'cpsp' Chasses pour composition en capitales dans Grec lookup 2" dx=5 dy=0 dh=10 dv=0
Position2: "sous-table 'cpsp' Chasses pour composition en capitales dans '    ' lookup 1" dx=5 dy=0 dh=10 dv=0
Position2: "sous-table 'cpsp' Chasses pour composition en capitales dans Latin lookup 0" dx=5 dy=0 dh=10 dv=0
EndChar

StartChar: OE
Encoding: 338 338 53
Width: 994
Flags: MW
HStem: 0 36<402 501 632 811> 332 40<632 905 632 905> 648 37<293 924 407 501>
VStem: 35 142<298 413.5> 501 131<36 332 36 372 372 648 648 648> 912 12<481 685>
LayerCount: 2
Back
Fore
SplineSet
905 372 m 1
 905 332 l 1
 632 332 l 1
 632 36 l 1
 811 36 l 1
 943 213 l 1
 954 211 l 1
 943 0 l 1
 331 0 l 2
 147 0 35 150 35 313 c 0
 35 514 163 685 407 685 c 2
 924 685 l 1
 924 481 l 1
 912 481 l 1
 802 649 l 1
 632 649 l 1
 632 372 l 1
 905 372 l 1
501 648 m 1
 378 648 l 2
 208 648 177 471 177 396 c 0
 177 200 260 36 402 36 c 2
 501 36 l 1
 501 648 l 1
EndSplineSet
Position2: "sous-table 'cpsp' Chasses pour composition en capitales dans Grec lookup 2" dx=5 dy=0 dh=10 dv=0
Position2: "sous-table 'cpsp' Chasses pour composition en capitales dans '    ' lookup 1" dx=5 dy=0 dh=10 dv=0
Position2: "sous-table 'cpsp' Chasses pour composition en capitales dans Latin lookup 0" dx=5 dy=0 dh=10 dv=0
EndChar

StartChar: P
Encoding: 80 80 54
Width: 588
Flags: MW
HStem: 0 21G<40 40 40 334> 290 34<244 255.5> 655 30<244 280 280 297.5>
VStem: 114 130<106 290 106 324 324 579 579 579> 416 142<440.5 546>
LayerCount: 2
Back
Fore
SplineSet
40 0 m 1
 114 106 l 1
 114 579 l 1
 40 685 l 1
 280 685 l 2
 377 685 558 668 558 502 c 0
 558 379 441 310 336 297 c 0
 304 292 267 290 244 290 c 1
 244 106 l 1
 334 0 l 1
 40 0 l 1
244 655 m 1
 244 324 l 1
 353 324 416 378 416 490 c 0
 416 602 351 655 244 655 c 1
EndSplineSet
Position2: "sous-table 'cpsp' Chasses pour composition en capitales dans Grec lookup 2" dx=5 dy=0 dh=10 dv=0
Position2: "sous-table 'cpsp' Chasses pour composition en capitales dans '    ' lookup 1" dx=5 dy=0 dh=10 dv=0
Position2: "sous-table 'cpsp' Chasses pour composition en capitales dans Latin lookup 0" dx=5 dy=0 dh=10 dv=0
EndChar

StartChar: Thorn
Encoding: 222 222 55
Width: 605
Flags: MW
HStem: 0 197<244 298.5 244 334> 163 34<244 255.5> 528 30<244 280 280 297.5> 528 157<244 297.5>
VStem: 114 130<106 163 106 197 197 528 558 579> 416 142<313.5 419>
LayerCount: 2
Back
Fore
SplineSet
244 558 m 1x00
 280 558 l 2
 351 558 558 541 558 375 c 0
 558 252 441 183 336 170 c 0
 304 165 267 163 244 163 c 1
 244 106 l 1x9c
 334 0 l 1
 40 0 l 1
 114 106 l 1
 114 579 l 1
 40 685 l 1
 318 685 l 1xac
 244 579 l 1
 244 558 l 1x00
244 528 m 1x6c
 244 197 l 1
 353 197 416 251 416 363 c 0
 416 475 351 528 244 528 c 1x6c
EndSplineSet
Position2: "sous-table 'cpsp' Chasses pour composition en capitales dans Grec lookup 2" dx=5 dy=0 dh=10 dv=0
Position2: "sous-table 'cpsp' Chasses pour composition en capitales dans '    ' lookup 1" dx=5 dy=0 dh=10 dv=0
Position2: "sous-table 'cpsp' Chasses pour composition en capitales dans Latin lookup 0" dx=5 dy=0 dh=10 dv=0
EndChar

StartChar: Q
Encoding: 81 81 56
Width: 738
Flags: MW
HStem: -7 42<331 338> 650 43<285 407>
VStem: 35 142<331 413.5> 563 140<308.5 355>
LayerCount: 2
Back
Fore
SplineSet
586 -119 m 1
 582 -125 l 1
 510 -99 440 -56 371 -5 c 1
 358 -6 345 -7 331 -7 c 0
 147 -7 35 150 35 313 c 0
 35 514 163 693 407 693 c 0
 591 693 703 536 703 373 c 0
 703 244 650 124 548 54 c 1
 586 -119 l 1
336 650 m 0
 201 650 177 513 177 434 c 0
 177 228 260 35 402 35 c 0
 522 35 563 173 563 252 c 0
 563 458 478 650 336 650 c 0
EndSplineSet
Position2: "sous-table 'cpsp' Chasses pour composition en capitales dans Grec lookup 2" dx=5 dy=0 dh=10 dv=0
Position2: "sous-table 'cpsp' Chasses pour composition en capitales dans '    ' lookup 1" dx=5 dy=0 dh=10 dv=0
Position2: "sous-table 'cpsp' Chasses pour composition en capitales dans Latin lookup 0" dx=5 dy=0 dh=10 dv=0
EndChar

StartChar: R
Encoding: 82 82 57
Width: 696
Flags: MW
HStem: 0 21G<40 318 40 40 484 686 484 484> 310 31 655 30<244 293 293 297.5>
VStem: 114 130<106 308 106 341 341 579 579 579> 433 147<467 556>
LayerCount: 2
Back
Fore
SplineSet
686 0 m 1
 484 0 l 1
 416 116 349 233 292 312 c 1
 244 308 l 1
 244 106 l 1
 318 0 l 1
 40 0 l 1
 114 106 l 1
 114 579 l 1
 40 685 l 1
 293 685 l 2
 383 685 580 674 580 508 c 0
 580 426 506 369 425 339 c 1
 580 98 l 1
 686 0 l 1
244 655 m 1
 244 341 l 1
 340 343 433 394 433 496 c 0
 433 616 351 655 244 655 c 1
EndSplineSet
Position2: "sous-table 'cpsp' Chasses pour composition en capitales dans Grec lookup 2" dx=5 dy=0 dh=10 dv=0
Position2: "sous-table 'cpsp' Chasses pour composition en capitales dans '    ' lookup 1" dx=5 dy=0 dh=10 dv=0
Position2: "sous-table 'cpsp' Chasses pour composition en capitales dans Latin lookup 0" dx=5 dy=0 dh=10 dv=0
EndChar

StartChar: Racute
Encoding: 340 340 58
Width: 696
Flags: MW
HStem: 0 21G<40 318 40 40 484 686 484 484> 310 31 655 30<244 293 293 297.5> 740 129<299 301 286 430>
VStem: 114 130<106 308 106 341 341 579 579 579> 433 147<467 556>
LayerCount: 2
Back
Fore
SplineSet
301 740 m 1
 286 740 l 1
 299 869 l 1
 430 869 l 1
 301 740 l 1
686 0 m 1
 484 0 l 1
 416 116 349 233 292 312 c 1
 244 308 l 1
 244 106 l 1
 318 0 l 1
 40 0 l 1
 114 106 l 1
 114 579 l 1
 40 685 l 1
 293 685 l 2
 383 685 580 674 580 508 c 0
 580 426 506 369 425 339 c 1
 580 98 l 1
 686 0 l 1
244 655 m 1
 244 341 l 1
 340 343 433 394 433 496 c 0
 433 616 351 655 244 655 c 1
EndSplineSet
Position2: "sous-table 'cpsp' Chasses pour composition en capitales dans Grec lookup 2" dx=5 dy=0 dh=10 dv=0
Position2: "sous-table 'cpsp' Chasses pour composition en capitales dans '    ' lookup 1" dx=5 dy=0 dh=10 dv=0
Position2: "sous-table 'cpsp' Chasses pour composition en capitales dans Latin lookup 0" dx=5 dy=0 dh=10 dv=0
EndChar

StartChar: Rcaron
Encoding: 344 344 59
Width: 696
Flags: MW
HStem: 0 21G<40 318 40 40 484 686 484 484> 310 31 655 30<244 293 293 297.5> 740 59<310 310 310 351 268 310>
VStem: 114 130<106 308 106 341 341 579 579 579> 433 147<467 556>
LayerCount: 2
Back
Fore
SplineSet
310 799 m 1
 399 869 l 1
 414 869 l 1
 351 740 l 1
 268 740 l 1
 206 869 l 1
 221 869 l 1
 310 799 l 1
686 0 m 1
 484 0 l 1
 416 116 349 233 292 312 c 1
 244 308 l 1
 244 106 l 1
 318 0 l 1
 40 0 l 1
 114 106 l 1
 114 579 l 1
 40 685 l 1
 293 685 l 2
 383 685 580 674 580 508 c 0
 580 426 506 369 425 339 c 1
 580 98 l 1
 686 0 l 1
244 655 m 1
 244 341 l 1
 340 343 433 394 433 496 c 0
 433 616 351 655 244 655 c 1
EndSplineSet
Position2: "sous-table 'cpsp' Chasses pour composition en capitales dans Grec lookup 2" dx=5 dy=0 dh=10 dv=0
Position2: "sous-table 'cpsp' Chasses pour composition en capitales dans '    ' lookup 1" dx=5 dy=0 dh=10 dv=0
Position2: "sous-table 'cpsp' Chasses pour composition en capitales dans Latin lookup 0" dx=5 dy=0 dh=10 dv=0
EndChar

StartChar: S
Encoding: 83 83 60
Width: 533
Flags: MW
HStem: -8 38<225.5 301.5 225.5 312> 653 32<255 276.5>
VStem: 38 98<478.5 547.5> 391 110 434 12<485 485>
LayerCount: 2
Back
Fore
SplineSet
35 268 m 1xf0
 47 268 l 1
 80 138 172 30 279 30 c 0
 324 30 383 57 383 130 c 0
 383 320 38 268 38 500 c 0
 38 595 107 685 255 685 c 2
 398 685 l 1
 446 700 l 1
 446 484 l 1
 434 485 l 1xe8
 401 591 322 653 231 653 c 0
 176 653 136 620 136 562 c 0
 136 395 493 416 493 204 c 0
 493 55 378 -8 246 -8 c 0
 181 -8 96 6 47 28 c 1
 35 268 l 1xf0
EndSplineSet
Position2: "sous-table 'cpsp' Chasses pour composition en capitales dans Grec lookup 2" dx=5 dy=0 dh=10 dv=0
Position2: "sous-table 'cpsp' Chasses pour composition en capitales dans '    ' lookup 1" dx=5 dy=0 dh=10 dv=0
Position2: "sous-table 'cpsp' Chasses pour composition en capitales dans Latin lookup 0" dx=5 dy=0 dh=10 dv=0
EndChar

StartChar: Sacute
Encoding: 346 346 61
Width: 533
Flags: MW
HStem: -8 38<225.5 307.5 225.5 312> 653 32<255 276.5> 740 129<251 253 238 382>
VStem: 38 98<478.5 547.5> 391 110 434 12<485 485>
LayerCount: 2
Back
Fore
SplineSet
253 740 m 1xf8
 238 740 l 1
 251 869 l 1
 382 869 l 1
 253 740 l 1xf8
35 268 m 1
 47 268 l 1
 80 138 172 30 279 30 c 0
 336 30 383 70 383 130 c 0
 383 320 38 268 38 500 c 0
 38 595 107 685 255 685 c 2
 398 685 l 1
 446 700 l 1
 446 484 l 1
 434 485 l 1xf4
 401 591 322 653 231 653 c 0
 176 653 136 620 136 562 c 0
 136 395 493 416 493 204 c 0
 493 55 378 -8 246 -8 c 0
 181 -8 96 6 47 28 c 1
 35 268 l 1
EndSplineSet
Position2: "sous-table 'cpsp' Chasses pour composition en capitales dans Grec lookup 2" dx=5 dy=0 dh=10 dv=0
Position2: "sous-table 'cpsp' Chasses pour composition en capitales dans '    ' lookup 1" dx=5 dy=0 dh=10 dv=0
Position2: "sous-table 'cpsp' Chasses pour composition en capitales dans Latin lookup 0" dx=5 dy=0 dh=10 dv=0
EndChar

StartChar: Scaron
Encoding: 352 352 62
Width: 533
Flags: MW
HStem: -8 38<225.5 307.5 225.5 312> 653 32<255 276.5> 740 59<279 279 279 320 237 279>
VStem: 38 98<478.5 547.5> 391 110 434 12<485 485>
LayerCount: 2
Back
Fore
SplineSet
279 799 m 1xf8
 368 869 l 1
 383 869 l 1
 320 740 l 1
 237 740 l 1
 175 869 l 1
 190 869 l 1
 279 799 l 1xf8
35 268 m 1
 47 268 l 1
 80 138 172 30 279 30 c 0
 336 30 383 70 383 130 c 0
 383 320 38 268 38 500 c 0
 38 595 107 685 255 685 c 2
 398 685 l 1
 446 700 l 1
 446 484 l 1
 434 485 l 1xf4
 401 591 322 653 231 653 c 0
 176 653 136 620 136 562 c 0
 136 395 493 416 493 204 c 0
 493 55 378 -8 246 -8 c 0
 181 -8 96 6 47 28 c 1
 35 268 l 1
EndSplineSet
Position2: "sous-table 'cpsp' Chasses pour composition en capitales dans Grec lookup 2" dx=5 dy=0 dh=10 dv=0
Position2: "sous-table 'cpsp' Chasses pour composition en capitales dans '    ' lookup 1" dx=5 dy=0 dh=10 dv=0
Position2: "sous-table 'cpsp' Chasses pour composition en capitales dans Latin lookup 0" dx=5 dy=0 dh=10 dv=0
EndChar

StartChar: T
Encoding: 84 84 63
Width: 660
Flags: MW
HStem: 0 21G<181 459 181 181> 650 35<385 485 385 385>
VStem: 19 8<465 685> 255 130<106 649 649 649> 614 8<465 685>
LayerCount: 2
Back
Fore
SplineSet
19 466 m 1
 19 685 l 1
 622 685 l 1
 622 466 l 1
 614 465 l 1
 485 650 l 1
 385 650 l 1
 385 106 l 1
 459 0 l 1
 181 0 l 1
 255 106 l 1
 255 649 l 1
 155 649 l 1
 27 465 l 1
 19 466 l 1
EndSplineSet
Position2: "sous-table 'cpsp' Chasses pour composition en capitales dans Grec lookup 2" dx=5 dy=0 dh=10 dv=0
Position2: "sous-table 'cpsp' Chasses pour composition en capitales dans '    ' lookup 1" dx=5 dy=0 dh=10 dv=0
Position2: "sous-table 'cpsp' Chasses pour composition en capitales dans Latin lookup 0" dx=5 dy=0 dh=10 dv=0
EndChar

StartChar: Tcaron
Encoding: 356 356 64
Width: 660
Flags: MW
HStem: 0 21G<181 459 181 181> 650 35<385 485 385 385> 740 59<314 314 314 355 272 314>
VStem: 19 8<465 685> 255 130<106 649 649 649> 614 8<465 685>
LayerCount: 2
Back
Fore
SplineSet
314 799 m 1
 403 869 l 1
 418 869 l 1
 355 740 l 1
 272 740 l 1
 210 869 l 1
 225 869 l 1
 314 799 l 1
19 466 m 1
 19 685 l 1
 622 685 l 1
 622 466 l 1
 614 465 l 1
 485 650 l 1
 385 650 l 1
 385 106 l 1
 459 0 l 1
 181 0 l 1
 255 106 l 1
 255 649 l 1
 155 649 l 1
 27 465 l 1
 19 466 l 1
EndSplineSet
Position2: "sous-table 'cpsp' Chasses pour composition en capitales dans Grec lookup 2" dx=5 dy=0 dh=10 dv=0
Position2: "sous-table 'cpsp' Chasses pour composition en capitales dans '    ' lookup 1" dx=5 dy=0 dh=10 dv=0
Position2: "sous-table 'cpsp' Chasses pour composition en capitales dans Latin lookup 0" dx=5 dy=0 dh=10 dv=0
EndChar

StartChar: U
Encoding: 85 85 65
Width: 781
Flags: MW
HStem: -15 48<385.5 448.5> 665 20G<40 318 318 318 521 746 746 746>
VStem: 113 131<221 236 236 579> 606 48<301 592>
LayerCount: 2
Back
Fore
SplineSet
655 595 m 1
 654 592 l 1
 654 277 l 2
 654 186 641 148 613 96 c 0
 577 30 500 -15 397 -15 c 0
 336 -15 113 -15 113 221 c 2
 113 580 l 1
 40 685 l 1
 318 685 l 1
 244 579 l 1
 244 236 l 2
 244 51 337 33 434 33 c 0
 514 33 606 77 606 301 c 2
 606 595 l 1
 521 685 l 1
 746 685 l 1
 655 595 l 1
EndSplineSet
Position2: "sous-table 'cpsp' Chasses pour composition en capitales dans Grec lookup 2" dx=5 dy=0 dh=10 dv=0
Position2: "sous-table 'cpsp' Chasses pour composition en capitales dans '    ' lookup 1" dx=5 dy=0 dh=10 dv=0
Position2: "sous-table 'cpsp' Chasses pour composition en capitales dans Latin lookup 0" dx=5 dy=0 dh=10 dv=0
EndChar

StartChar: Uacute
Encoding: 218 218 66
Width: 763
Flags: MW
HStem: -15 48<385.5 448.5> 665 20G<40 318 318 318 529 728 728 728> 740 129<396 398 383 527>
VStem: 113 131<221 236 236 579> 606 48<301 595>
LayerCount: 2
Back
Fore
SplineSet
398 740 m 1
 383 740 l 1
 396 869 l 1
 527 869 l 1
 398 740 l 1
244 579 m 1
 244 236 l 2
 244 51 337 33 434 33 c 0
 514 33 606 77 606 301 c 2
 606 595 l 1
 529 685 l 1
 728 685 l 1
 654 595 l 1
 654 277 l 2
 654 186 641 148 613 96 c 0
 577 30 500 -15 397 -15 c 0
 336 -15 113 -15 113 221 c 2
 113 580 l 1
 40 685 l 1
 318 685 l 1
 244 579 l 1
EndSplineSet
Position2: "sous-table 'cpsp' Chasses pour composition en capitales dans Grec lookup 2" dx=5 dy=0 dh=10 dv=0
Position2: "sous-table 'cpsp' Chasses pour composition en capitales dans '    ' lookup 1" dx=5 dy=0 dh=10 dv=0
Position2: "sous-table 'cpsp' Chasses pour composition en capitales dans Latin lookup 0" dx=5 dy=0 dh=10 dv=0
EndChar

StartChar: Ucircumflex
Encoding: 219 219 67
Width: 763
Flags: MW
HStem: -15 48<385.5 448.5> 665 20G<40 318 318 318 529 728 728 728> 810 59<413 413>
VStem: 113 131<221 236 236 579> 606 48<301 595>
LayerCount: 2
Back
Fore
SplineSet
309 740 m 1
 371 869 l 1
 454 869 l 1
 517 740 l 1
 502 740 l 1
 413 810 l 1
 324 740 l 1
 309 740 l 1
244 579 m 1
 244 236 l 2
 244 51 337 33 434 33 c 0
 514 33 606 77 606 301 c 2
 606 595 l 1
 529 685 l 1
 728 685 l 1
 654 595 l 1
 654 277 l 2
 654 186 641 148 613 96 c 0
 577 30 500 -15 397 -15 c 0
 336 -15 113 -15 113 221 c 2
 113 580 l 1
 40 685 l 1
 318 685 l 1
 244 579 l 1
EndSplineSet
Position2: "sous-table 'cpsp' Chasses pour composition en capitales dans Grec lookup 2" dx=5 dy=0 dh=10 dv=0
Position2: "sous-table 'cpsp' Chasses pour composition en capitales dans '    ' lookup 1" dx=5 dy=0 dh=10 dv=0
Position2: "sous-table 'cpsp' Chasses pour composition en capitales dans Latin lookup 0" dx=5 dy=0 dh=10 dv=0
EndChar

StartChar: Udieresis
Encoding: 220 220 68
Width: 763
Flags: MW
HStem: -15 48<385.5 448.5> 665 20G<40 318 318 318 529 728 728 728>
VStem: 113 131<221 236 236 579> 606 48<301 595>
LayerCount: 2
Back
Fore
SplineSet
222 828 m 1
 303 919 l 1
 384 828 l 1
 303 736 l 1
 222 828 l 1
467 828 m 1
 549 919 l 1
 629 828 l 1
 549 736 l 1
 467 828 l 1
244 579 m 1
 244 236 l 2
 244 51 337 33 434 33 c 0
 514 33 606 77 606 301 c 2
 606 595 l 1
 529 685 l 1
 728 685 l 1
 654 595 l 1
 654 277 l 2
 654 186 641 148 613 96 c 0
 577 30 500 -15 397 -15 c 0
 336 -15 113 -15 113 221 c 2
 113 580 l 1
 40 685 l 1
 318 685 l 1
 244 579 l 1
EndSplineSet
Position2: "sous-table 'cpsp' Chasses pour composition en capitales dans Grec lookup 2" dx=5 dy=0 dh=10 dv=0
Position2: "sous-table 'cpsp' Chasses pour composition en capitales dans '    ' lookup 1" dx=5 dy=0 dh=10 dv=0
Position2: "sous-table 'cpsp' Chasses pour composition en capitales dans Latin lookup 0" dx=5 dy=0 dh=10 dv=0
EndChar

StartChar: Ugrave
Encoding: 217 217 69
Width: 763
Flags: MW
HStem: -15 48<385.5 448.5> 665 20G<40 318 318 318 529 728 728 728> 740 129<438 438 438 440 309 453>
VStem: 113 131<221 236 236 579> 606 48<301 595>
LayerCount: 2
Back
Fore
SplineSet
438 740 m 1
 309 869 l 1
 440 869 l 1
 453 740 l 1
 438 740 l 1
244 579 m 1
 244 236 l 2
 244 51 337 33 434 33 c 0
 514 33 606 77 606 301 c 2
 606 595 l 1
 529 685 l 1
 728 685 l 1
 654 595 l 1
 654 277 l 2
 654 186 641 148 613 96 c 0
 577 30 500 -15 397 -15 c 0
 336 -15 113 -15 113 221 c 2
 113 580 l 1
 40 685 l 1
 318 685 l 1
 244 579 l 1
EndSplineSet
Position2: "sous-table 'cpsp' Chasses pour composition en capitales dans Grec lookup 2" dx=5 dy=0 dh=10 dv=0
Position2: "sous-table 'cpsp' Chasses pour composition en capitales dans '    ' lookup 1" dx=5 dy=0 dh=10 dv=0
Position2: "sous-table 'cpsp' Chasses pour composition en capitales dans Latin lookup 0" dx=5 dy=0 dh=10 dv=0
EndChar

StartChar: Uring
Encoding: 366 366 70
Width: 763
Flags: MW
HStem: -15 48<385.5 448.5> 665 20G<40 318 318 318 529 728 728 728> 710 34<395.5 430.5 395.5 440> 872 34<395.5 430.5>
VStem: 113 131<221 236 236 579> 315 34<790.5 825.5 790.5 835> 477 34<790.5 825.5> 606 48<301 595>
LayerCount: 2
Back
Fore
SplineSet
315 808 m 0
 315 862 359 906 413 906 c 0
 467 906 511 862 511 808 c 0
 511 754 467 710 413 710 c 0
 359 710 315 754 315 808 c 0
349 808 m 0
 349 773 378 744 413 744 c 0
 448 744 477 773 477 808 c 0
 477 843 448 872 413 872 c 0
 378 872 349 843 349 808 c 0
244 579 m 1
 244 236 l 2
 244 51 337 33 434 33 c 0
 514 33 606 77 606 301 c 2
 606 595 l 1
 529 685 l 1
 728 685 l 1
 654 595 l 1
 654 277 l 2
 654 186 641 148 613 96 c 0
 577 30 500 -15 397 -15 c 0
 336 -15 113 -15 113 221 c 2
 113 580 l 1
 40 685 l 1
 318 685 l 1xff
 244 579 l 1
EndSplineSet
Position2: "sous-table 'cpsp' Chasses pour composition en capitales dans Grec lookup 2" dx=5 dy=0 dh=10 dv=0
Position2: "sous-table 'cpsp' Chasses pour composition en capitales dans '    ' lookup 1" dx=5 dy=0 dh=10 dv=0
Position2: "sous-table 'cpsp' Chasses pour composition en capitales dans Latin lookup 0" dx=5 dy=0 dh=10 dv=0
EndChar

StartChar: V
Encoding: 86 86 71
Width: 681
Flags: MW
HStem: 599 86<552 552> 624 61<196 196>
VStem: 3 673<685 685>
LayerCount: 2
Back
Fore
SplineSet
383 138 m 1x60
 552 599 l 1xa0
 467 685 l 1
 676 685 l 1
 606 596 l 1
 367 -20 l 1
 319 -20 l 1
 55 626 l 1
 3 685 l 1
 276 685 l 1
 196 624 l 1
 370 185 l 1
 383 138 l 1x60
EndSplineSet
Position2: "sous-table 'cpsp' Chasses pour composition en capitales dans Grec lookup 2" dx=5 dy=0 dh=10 dv=0
Position2: "sous-table 'cpsp' Chasses pour composition en capitales dans '    ' lookup 1" dx=5 dy=0 dh=10 dv=0
Position2: "sous-table 'cpsp' Chasses pour composition en capitales dans Latin lookup 0" dx=5 dy=0 dh=10 dv=0
EndChar

StartChar: W
Encoding: 87 87 72
Width: 1005
Flags: MW
HStem: -12 21G<313 374 313 313 661 722 661 661> 598 87<881 881> 624 61<206 206 564 564>
VStem: 13 991<685 685>
LayerCount: 2
Back
Fore
SplineSet
731 141 m 1xb0
 881 598 l 1xd0
 795 685 l 1
 1004 685 l 1
 936 599 l 1
 722 -12 l 1
 661 -12 l 1
 516 377 l 1
 374 -12 l 1
 313 -12 l 1
 65 626 l 1
 13 685 l 1
 286 685 l 1
 206 624 l 1
 370 185 l 1
 380 148 l 1
 494 436 l 1
 422 628 l 1
 372 685 l 1
 645 685 l 1
 564 624 l 1
 719 185 l 1
 731 141 l 1xb0
EndSplineSet
Position2: "sous-table 'cpsp' Chasses pour composition en capitales dans Grec lookup 2" dx=5 dy=0 dh=10 dv=0
Position2: "sous-table 'cpsp' Chasses pour composition en capitales dans '    ' lookup 1" dx=5 dy=0 dh=10 dv=0
Position2: "sous-table 'cpsp' Chasses pour composition en capitales dans Latin lookup 0" dx=5 dy=0 dh=10 dv=0
EndChar

StartChar: Wacute
Encoding: 7810 7810 73
Width: 1005
Flags: MW
HStem: -12 21G<313 374 313 313 661 722 661 661> 598 87<881 881> 624 61<206 206 564 564> 740 129<507 509 494 638>
VStem: 13 991<685 685>
LayerCount: 2
Back
Fore
SplineSet
509 740 m 1xb8
 494 740 l 1
 507 869 l 1
 638 869 l 1
 509 740 l 1xb8
731 141 m 1
 881 598 l 1xd8
 795 685 l 1
 1004 685 l 1
 936 599 l 1
 722 -12 l 1
 661 -12 l 1
 516 377 l 1
 374 -12 l 1
 313 -12 l 1
 65 626 l 1
 13 685 l 1
 286 685 l 1
 206 624 l 1
 370 185 l 1
 380 148 l 1
 494 436 l 1
 422 628 l 1
 372 685 l 1
 645 685 l 1
 564 624 l 1
 719 185 l 1
 731 141 l 1
EndSplineSet
Position2: "sous-table 'cpsp' Chasses pour composition en capitales dans Grec lookup 2" dx=5 dy=0 dh=10 dv=0
Position2: "sous-table 'cpsp' Chasses pour composition en capitales dans '    ' lookup 1" dx=5 dy=0 dh=10 dv=0
Position2: "sous-table 'cpsp' Chasses pour composition en capitales dans Latin lookup 0" dx=5 dy=0 dh=10 dv=0
EndChar

StartChar: Wcircumflex
Encoding: 372 372 74
Width: 1005
Flags: MW
HStem: -12 21G<313 374 313 313 661 722 661 661> 598 87<881 881> 624 61<206 206 564 564> 810 59<512 512>
VStem: 13 991<685 685>
LayerCount: 2
Back
Fore
SplineSet
408 740 m 1xb8
 470 869 l 1
 553 869 l 1
 616 740 l 1
 601 740 l 1
 512 810 l 1
 423 740 l 1
 408 740 l 1xb8
731 141 m 1
 881 598 l 1xd8
 795 685 l 1
 1004 685 l 1
 936 599 l 1
 722 -12 l 1
 661 -12 l 1
 516 377 l 1
 374 -12 l 1
 313 -12 l 1
 65 626 l 1
 13 685 l 1
 286 685 l 1
 206 624 l 1
 370 185 l 1
 380 148 l 1
 494 436 l 1
 422 628 l 1
 372 685 l 1
 645 685 l 1
 564 624 l 1
 719 185 l 1
 731 141 l 1
EndSplineSet
Position2: "sous-table 'cpsp' Chasses pour composition en capitales dans Grec lookup 2" dx=5 dy=0 dh=10 dv=0
Position2: "sous-table 'cpsp' Chasses pour composition en capitales dans '    ' lookup 1" dx=5 dy=0 dh=10 dv=0
Position2: "sous-table 'cpsp' Chasses pour composition en capitales dans Latin lookup 0" dx=5 dy=0 dh=10 dv=0
EndChar

StartChar: Wdieresis
Encoding: 7812 7812 75
Width: 1005
Flags: MW
HStem: -12 21G<313 374 313 313 661 722 661 661> 598 87<881 881> 624 61<206 206 564 564>
VStem: 13 991<685 685>
LayerCount: 2
Back
Fore
SplineSet
313 829 m 1xb0
 391 916 l 1
 467 829 l 1
 391 741 l 1
 313 829 l 1xb0
547 829 m 1
 625 916 l 1
 701 829 l 1
 625 741 l 1
 547 829 l 1
731 141 m 1
 881 598 l 1xd0
 795 685 l 1
 1004 685 l 1
 936 599 l 1
 722 -12 l 1
 661 -12 l 1
 516 377 l 1
 374 -12 l 1
 313 -12 l 1
 65 626 l 1
 13 685 l 1
 286 685 l 1
 206 624 l 1
 370 185 l 1
 380 148 l 1
 494 436 l 1
 422 628 l 1
 372 685 l 1
 645 685 l 1
 564 624 l 1
 719 185 l 1
 731 141 l 1
EndSplineSet
Position2: "sous-table 'cpsp' Chasses pour composition en capitales dans Grec lookup 2" dx=5 dy=0 dh=10 dv=0
Position2: "sous-table 'cpsp' Chasses pour composition en capitales dans '    ' lookup 1" dx=5 dy=0 dh=10 dv=0
Position2: "sous-table 'cpsp' Chasses pour composition en capitales dans Latin lookup 0" dx=5 dy=0 dh=10 dv=0
EndChar

StartChar: Wgrave
Encoding: 7808 7808 76
Width: 1005
Flags: MW
HStem: -12 21G<313 374 313 313 661 722 661 661> 598 87<881 881> 624 61<206 206 564 564> 740 129<512 512 512 514 383 527>
VStem: 13 991<685 685>
LayerCount: 2
Back
Fore
SplineSet
512 740 m 1xb8
 383 869 l 1
 514 869 l 1
 527 740 l 1
 512 740 l 1xb8
731 141 m 1
 881 598 l 1xd8
 795 685 l 1
 1004 685 l 1
 936 599 l 1
 722 -12 l 1
 661 -12 l 1
 516 377 l 1
 374 -12 l 1
 313 -12 l 1
 65 626 l 1
 13 685 l 1
 286 685 l 1
 206 624 l 1
 370 185 l 1
 380 148 l 1
 494 436 l 1
 422 628 l 1
 372 685 l 1
 645 685 l 1
 564 624 l 1
 719 185 l 1
 731 141 l 1
EndSplineSet
Position2: "sous-table 'cpsp' Chasses pour composition en capitales dans Grec lookup 2" dx=5 dy=0 dh=10 dv=0
Position2: "sous-table 'cpsp' Chasses pour composition en capitales dans '    ' lookup 1" dx=5 dy=0 dh=10 dv=0
Position2: "sous-table 'cpsp' Chasses pour composition en capitales dans Latin lookup 0" dx=5 dy=0 dh=10 dv=0
EndChar

StartChar: X
Encoding: 88 88 77
Width: 722
Flags: MW
HStem: 0 99<382 471 471 471 471 722> 588 97<250 250>
VStem: 4 718<0 0>
LayerCount: 2
Back
Fore
SplineSet
471 99 m 1
 327 294 l 1
 183 94 l 1
 263 0 l 1
 4 0 l 1
 109 104 l 1
 292 341 l 1
 117 579 l 1
 14 685 l 1
 330 685 l 1
 250 588 l 1
 384 413 l 1
 508 584 l 1
 435 685 l 1
 695 685 l 1
 577 582 l 1
 418 371 l 1
 615 106 l 1
 722 0 l 1
 382 0 l 1
 471 99 l 1
EndSplineSet
Position2: "sous-table 'cpsp' Chasses pour composition en capitales dans Grec lookup 2" dx=5 dy=0 dh=10 dv=0
Position2: "sous-table 'cpsp' Chasses pour composition en capitales dans '    ' lookup 1" dx=5 dy=0 dh=10 dv=0
Position2: "sous-table 'cpsp' Chasses pour composition en capitales dans Latin lookup 0" dx=5 dy=0 dh=10 dv=0
EndChar

StartChar: Y
Encoding: 89 89 78
Width: 689
Flags: MW
HStem: 0 21G<205 483 205 205> 579 106<101 101 245 245 245 246>
VStem: 279 130<106 281 281 281>
LayerCount: 2
Back
Fore
SplineSet
409 106 m 1
 483 0 l 1
 205 0 l 1
 279 106 l 1
 279 281 l 1
 101 579 l 1
 10 685 l 1
 331 685 l 1
 246 579 l 1
 245 579 l 1
 363 390 l 1
 379 357 l 1
 510 581 l 1
 425 685 l 1
 679 685 l 1
 576 591 l 1
 409 318 l 1
 409 106 l 1
EndSplineSet
Position2: "sous-table 'cpsp' Chasses pour composition en capitales dans Grec lookup 2" dx=5 dy=0 dh=10 dv=0
Position2: "sous-table 'cpsp' Chasses pour composition en capitales dans '    ' lookup 1" dx=5 dy=0 dh=10 dv=0
Position2: "sous-table 'cpsp' Chasses pour composition en capitales dans Latin lookup 0" dx=5 dy=0 dh=10 dv=0
EndChar

StartChar: Yacute
Encoding: 221 221 79
Width: 689
Flags: MW
HStem: 0 21G<195 493 195 195> 579 106<101 101 245 245 245 246> 740 129<350 494 363 365>
VStem: 279 130<101 281 281 281>
LayerCount: 2
Back
Fore
SplineSet
350 740 m 1
 363 869 l 1
 494 869 l 1
 365 740 l 1
 350 740 l 1
493 0 m 1
 195 0 l 1
 279 101 l 1
 279 281 l 1
 101 579 l 1
 10 685 l 1
 331 685 l 1
 246 579 l 1
 245 579 l 1
 363 390 l 1
 379 357 l 1
 510 581 l 1
 425 685 l 1
 679 685 l 1
 576 591 l 1
 409 318 l 1
 409 101 l 1
 493 0 l 1
EndSplineSet
Position2: "sous-table 'cpsp' Chasses pour composition en capitales dans Grec lookup 2" dx=5 dy=0 dh=10 dv=0
Position2: "sous-table 'cpsp' Chasses pour composition en capitales dans '    ' lookup 1" dx=5 dy=0 dh=10 dv=0
Position2: "sous-table 'cpsp' Chasses pour composition en capitales dans Latin lookup 0" dx=5 dy=0 dh=10 dv=0
EndChar

StartChar: Ycircumflex
Encoding: 374 374 80
Width: 689
Flags: MW
HStem: 0 21G<195 493 195 195> 579 106<101 101 245 245 245 246> 810 59<376 376>
VStem: 279 130<101 281 281 281>
LayerCount: 2
Back
Fore
SplineSet
272 740 m 1
 334 869 l 1
 417 869 l 1
 480 740 l 1
 465 740 l 1
 376 810 l 1
 287 740 l 1
 272 740 l 1
409 101 m 1
 493 0 l 1
 195 0 l 1
 279 101 l 1
 279 281 l 1
 101 579 l 1
 10 685 l 1
 331 685 l 1
 246 579 l 1
 245 579 l 1
 363 390 l 1
 379 357 l 1
 510 581 l 1
 425 685 l 1
 679 685 l 1
 576 591 l 1
 409 318 l 1
 409 101 l 1
EndSplineSet
Position2: "sous-table 'cpsp' Chasses pour composition en capitales dans Grec lookup 2" dx=5 dy=0 dh=10 dv=0
Position2: "sous-table 'cpsp' Chasses pour composition en capitales dans '    ' lookup 1" dx=5 dy=0 dh=10 dv=0
Position2: "sous-table 'cpsp' Chasses pour composition en capitales dans Latin lookup 0" dx=5 dy=0 dh=10 dv=0
EndChar

StartChar: Ydieresis
Encoding: 376 376 81
Width: 689
Flags: MW
HStem: 0 21G<195 493 195 195> 579 106<101 101 245 245 245 246>
VStem: 279 130<101 281 281 281>
LayerCount: 2
Back
Fore
SplineSet
173 830 m 1
 250 917 l 1
 327 830 l 1
 250 742 l 1
 173 830 l 1
406 830 m 1
 484 917 l 1
 560 830 l 1
 484 742 l 1
 406 830 l 1
409 101 m 1
 493 0 l 1
 195 0 l 1
 279 101 l 1
 279 281 l 1
 101 579 l 1
 10 685 l 1
 331 685 l 1
 246 579 l 1
 245 579 l 1
 363 390 l 1
 379 357 l 1
 510 581 l 1
 425 685 l 1
 679 685 l 1
 576 591 l 1
 409 318 l 1
 409 101 l 1
EndSplineSet
Position2: "sous-table 'cpsp' Chasses pour composition en capitales dans Grec lookup 2" dx=5 dy=0 dh=10 dv=0
Position2: "sous-table 'cpsp' Chasses pour composition en capitales dans '    ' lookup 1" dx=5 dy=0 dh=10 dv=0
Position2: "sous-table 'cpsp' Chasses pour composition en capitales dans Latin lookup 0" dx=5 dy=0 dh=10 dv=0
EndChar

StartChar: Ygrave
Encoding: 7922 7922 82
Width: 689
Flags: MW
HStem: 0 21G<195 493 195 195> 579 106<101 101 245 245 245 246> 740 129<375 375 375 377 246 390>
VStem: 279 130<101 281 281 281>
LayerCount: 2
Back
Fore
SplineSet
375 740 m 1
 246 869 l 1
 377 869 l 1
 390 740 l 1
 375 740 l 1
409 101 m 1
 493 0 l 1
 195 0 l 1
 279 101 l 1
 279 281 l 1
 101 579 l 1
 10 685 l 1
 331 685 l 1
 246 579 l 1
 245 579 l 1
 363 390 l 1
 379 357 l 1
 510 581 l 1
 425 685 l 1
 679 685 l 1
 576 591 l 1
 409 318 l 1
 409 101 l 1
EndSplineSet
Position2: "sous-table 'cpsp' Chasses pour composition en capitales dans Grec lookup 2" dx=5 dy=0 dh=10 dv=0
Position2: "sous-table 'cpsp' Chasses pour composition en capitales dans '    ' lookup 1" dx=5 dy=0 dh=10 dv=0
Position2: "sous-table 'cpsp' Chasses pour composition en capitales dans Latin lookup 0" dx=5 dy=0 dh=10 dv=0
EndChar

StartChar: Z
Encoding: 90 90 83
Width: 668
Flags: MW
HStem: -1 45<198 481 198 612> 638 46<210 448 210 210> 670 14<186 622> 674 20G<80 80>
VStem: 30 593<11 216>
LayerCount: 2
Back
Fore
SplineSet
623 216 m 1xc8
 612 -1 l 1
 37 -1 l 1
 30 11 l 1
 448 638 l 1
 210 638 l 1xc8
 78 465 l 1
 74 465 l 1
 80 694 l 1x98
 186 684 l 1
 615 684 l 1xc8
 622 670 l 1xa8
 198 44 l 1
 481 44 l 1
 619 216 l 1
 623 216 l 1xc8
EndSplineSet
Position2: "sous-table 'cpsp' Chasses pour composition en capitales dans Grec lookup 2" dx=5 dy=0 dh=10 dv=0
Position2: "sous-table 'cpsp' Chasses pour composition en capitales dans '    ' lookup 1" dx=5 dy=0 dh=10 dv=0
Position2: "sous-table 'cpsp' Chasses pour composition en capitales dans Latin lookup 0" dx=5 dy=0 dh=10 dv=0
EndChar

StartChar: Zacute
Encoding: 377 377 84
Width: 668
Flags: MW
HStem: 0 36<192 476 192 612> 649 36<216 455 216 216> 649 220<305 431 305 455 216 431> 671 14<186 622> 675 20G<80 80>
VStem: 30 593<12 215>
LayerCount: 2
Back
Fore
SplineSet
302 740 m 1x00
 287 740 l 1
 305 869 l 1
 431 869 l 1
 302 740 l 1x00
192 36 m 1
 476 36 l 1
 615 215 l 1
 623 215 l 1
 612 0 l 1
 37 0 l 1
 30 12 l 1
 455 649 l 1
 216 649 l 1x8c
 82 468 l 1
 74 468 l 1
 80 695 l 1xc4
 186 685 l 1
 615 685 l 1x94
 622 671 l 1xa4
 192 36 l 1
EndSplineSet
Position2: "sous-table 'cpsp' Chasses pour composition en capitales dans Grec lookup 2" dx=5 dy=0 dh=10 dv=0
Position2: "sous-table 'cpsp' Chasses pour composition en capitales dans '    ' lookup 1" dx=5 dy=0 dh=10 dv=0
Position2: "sous-table 'cpsp' Chasses pour composition en capitales dans Latin lookup 0" dx=5 dy=0 dh=10 dv=0
EndChar

StartChar: Zcaron
Encoding: 381 381 85
Width: 668
Flags: MW
HStem: 0 36<192 476 192 612> 649 36<216 455 216 216> 671 14<186 622> 675 20G<80 80> 740 59<342 342 342 383 300 342>
VStem: 30 593<12 215>
LayerCount: 2
Back
Fore
SplineSet
342 799 m 1xcc
 431 869 l 1
 446 869 l 1
 383 740 l 1
 300 740 l 1
 238 869 l 1
 253 869 l 1
 342 799 l 1xcc
192 36 m 1
 476 36 l 1
 615 215 l 1
 623 215 l 1
 612 0 l 1
 37 0 l 1
 30 12 l 1
 455 649 l 1
 216 649 l 1xcc
 82 468 l 1
 74 468 l 1
 80 695 l 1x9c
 186 685 l 1
 615 685 l 1xcc
 622 671 l 1xac
 192 36 l 1
EndSplineSet
Position2: "sous-table 'cpsp' Chasses pour composition en capitales dans Grec lookup 2" dx=5 dy=0 dh=10 dv=0
Position2: "sous-table 'cpsp' Chasses pour composition en capitales dans '    ' lookup 1" dx=5 dy=0 dh=10 dv=0
Position2: "sous-table 'cpsp' Chasses pour composition en capitales dans Latin lookup 0" dx=5 dy=0 dh=10 dv=0
EndChar

StartChar: Zdotaccent
Encoding: 379 379 86
Width: 668
Flags: MW
HStem: 0 36<192 476 192 612> 649 36<216 455 216 216> 671 14<186 622> 675 20G<80 80>
VStem: 30 593<12 215>
LayerCount: 2
Back
Fore
SplineSet
261 820 m 1xc8
 332 900 l 1
 402 820 l 1
 332 739 l 1
 261 820 l 1xc8
192 36 m 1
 476 36 l 1
 615 215 l 1
 623 215 l 1
 612 0 l 1
 37 0 l 1
 30 12 l 1
 455 649 l 1
 216 649 l 1xc8
 82 468 l 1
 74 468 l 1
 80 695 l 1x98
 186 685 l 1
 615 685 l 1xc8
 622 671 l 1xa8
 192 36 l 1
EndSplineSet
Position2: "sous-table 'cpsp' Chasses pour composition en capitales dans Grec lookup 2" dx=5 dy=0 dh=10 dv=0
Position2: "sous-table 'cpsp' Chasses pour composition en capitales dans '    ' lookup 1" dx=5 dy=0 dh=10 dv=0
Position2: "sous-table 'cpsp' Chasses pour composition en capitales dans Latin lookup 0" dx=5 dy=0 dh=10 dv=0
EndChar

StartChar: a
Encoding: 97 97 87
Width: 534
Flags: MW
HStem: -10 79<110.5 247.5> 0 69 462 28<195 276>
VStem: 25 132<114 156> 49 7<330 490> 319 120<65 84 84 84 111 292 292 292 320 360>
LayerCount: 2
Back
Fore
SplineSet
319 0 m 1x6c
 319 84 l 1
 281 47 211 -10 145 -10 c 0
 76 -10 25 24 25 105 c 0xb4
 25 207 146 259 319 320 c 1
 319 400 317 462 235 462 c 0
 155 462 107 406 56 330 c 1
 49 330 l 1
 49 490 l 1
 461 490 l 1
 439 404 l 1
 439 65 l 1
 440 65 l 1
 514 0 l 1
 319 0 l 1x6c
319 111 m 1x74
 319 292 l 1
 162 229 157 186 157 138 c 0
 157 90 190 69 232 69 c 0
 263 69 294 85 319 111 c 1x74
EndSplineSet
EndChar

StartChar: aacute
Encoding: 225 225 88
Width: 534
Flags: MW
HStem: -10 79<110.5 247.5> 0 69 455 35<184 271.5> 552 129<212 356 212 356>
VStem: 25 132<114 156> 49 7<330 490> 319 120<65 84 84 84 111 283 283 283 310 355>
LayerCount: 2
Back
Fore
SplineSet
227 552 m 1x76
 212 552 l 1
 230 681 l 1
 356 681 l 1
 227 552 l 1x76
319 0 m 1
 319 84 l 1
 281 47 211 -10 145 -10 c 0
 76 -10 25 24 25 105 c 0xba
 25 207 146 259 319 310 c 1
 319 400 317 455 226 455 c 0
 142 455 93 404 56 330 c 1
 49 330 l 1
 49 490 l 1
 487 490 l 1
 439 425 l 1
 439 65 l 1
 440 65 l 1
 514 0 l 1
 319 0 l 1
319 111 m 1x7a
 319 283 l 1
 197 245 157 186 157 138 c 0
 157 90 190 69 232 69 c 0
 263 69 294 85 319 111 c 1x7a
EndSplineSet
EndChar

StartChar: acircumflex
Encoding: 226 226 89
Width: 534
Flags: MW
HStem: -10 79<110.5 247.5> 0 69 455 35<184 271.5> 625 56<255 255>
VStem: 25 132<114 156> 49 7<330 490> 319 120<65 84 84 84 111 283 283 283 310 355>
LayerCount: 2
Back
Fore
SplineSet
156 552 m 1x76
 213 681 l 1
 296 681 l 1
 354 552 l 1
 338 552 l 1
 255 625 l 1
 170 552 l 1
 156 552 l 1x76
319 0 m 1
 319 84 l 1
 281 47 211 -10 145 -10 c 0
 76 -10 25 24 25 105 c 0xba
 25 207 146 259 319 310 c 1
 319 400 317 455 226 455 c 0
 142 455 93 404 56 330 c 1
 49 330 l 1
 49 490 l 1
 487 490 l 1
 439 425 l 1
 439 65 l 1
 440 65 l 1
 514 0 l 1
 319 0 l 1
319 111 m 1x7a
 319 283 l 1
 197 245 157 186 157 138 c 0
 157 90 190 69 232 69 c 0
 263 69 294 85 319 111 c 1x7a
EndSplineSet
EndChar

StartChar: adieresis
Encoding: 228 228 90
Width: 534
Flags: MW
HStem: -10 79<110.5 247.5> 0 69 455 35<184 271.5> 678 20G<160 160 365 365>
VStem: 25 132<114 156> 49 7<330 490> 319 120<65 84 84 84 111 283 283 283 310 355>
LayerCount: 2
Back
Fore
SplineSet
92 622 m 1x76
 160 698 l 1
 227 622 l 1
 160 545 l 1
 92 622 l 1x76
297 622 m 1
 365 698 l 1
 432 622 l 1
 365 545 l 1
 297 622 l 1
319 0 m 1
 319 84 l 1
 281 47 211 -10 145 -10 c 0
 76 -10 25 24 25 105 c 0xba
 25 207 146 259 319 310 c 1
 319 400 317 455 226 455 c 0
 142 455 93 404 56 330 c 1
 49 330 l 1
 49 490 l 1
 487 490 l 1
 439 425 l 1
 439 65 l 1
 440 65 l 1
 514 0 l 1
 319 0 l 1
319 111 m 1x7a
 319 283 l 1
 197 245 157 186 157 138 c 0
 157 90 190 69 232 69 c 0
 263 69 294 85 319 111 c 1x7a
EndSplineSet
EndChar

StartChar: agrave
Encoding: 224 224 91
Width: 534
Flags: MW
HStem: -10 79<110.5 247.5> 0 69 455 35<184 271.5> 552 129<177 306 177 321>
VStem: 25 132<114 156> 49 7<330 490> 319 120<65 84 84 84 111 283 283 283 310 355>
LayerCount: 2
Back
Fore
SplineSet
306 552 m 1x76
 177 681 l 1
 303 681 l 1
 321 552 l 1
 306 552 l 1x76
319 0 m 1
 319 84 l 1
 281 47 211 -10 145 -10 c 0
 76 -10 25 24 25 105 c 0xba
 25 207 146 259 319 310 c 1
 319 400 317 455 226 455 c 0
 142 455 93 404 56 330 c 1
 49 330 l 1
 49 490 l 1
 487 490 l 1
 439 425 l 1
 439 65 l 1
 440 65 l 1
 514 0 l 1
 319 0 l 1
319 111 m 1x7a
 319 283 l 1
 197 245 157 186 157 138 c 0
 157 90 190 69 232 69 c 0
 263 69 294 85 319 111 c 1x7a
EndSplineSet
EndChar

StartChar: aring
Encoding: 229 229 92
Width: 534
Flags: MW
HStem: -10 79<110.5 247.5> 0 69 455 35<184 271.5> 546 28<246 280 246 287.5> 696 28<246 280>
VStem: 25 132<114 156> 49 7<330 490> 174 28<618 652 618 659.5> 319 120<65 84 84 84 111 283 283 283 310 355> 324 28<618 652>
LayerCount: 2
Back
Fore
SplineSet
174 635 m 0x7b80
 174 684 214 724 263 724 c 0
 312 724 352 684 352 635 c 0x7b40
 352 586 312 546 263 546 c 0
 214 546 174 586 174 635 c 0x7b80
202 635 m 0
 202 601 229 574 263 574 c 0
 297 574 324 601 324 635 c 0x7b40
 324 669 297 696 263 696 c 0
 229 696 202 669 202 635 c 0
319 0 m 1
 319 84 l 1
 281 47 211 -10 145 -10 c 0
 76 -10 25 24 25 105 c 0xbd80
 25 207 146 259 319 310 c 1
 319 400 317 455 226 455 c 0
 142 455 93 404 56 330 c 1
 49 330 l 1
 49 490 l 1
 487 490 l 1
 439 425 l 1
 439 65 l 1
 440 65 l 1
 514 0 l 1
 319 0 l 1
319 111 m 1x7d80
 319 283 l 1
 197 245 157 186 157 138 c 0
 157 90 190 69 232 69 c 0
 263 69 294 85 319 111 c 1x7d80
EndSplineSet
EndChar

StartChar: atilde
Encoding: 227 227 93
Width: 534
Flags: MW
HStem: -10 79<110.5 247.5> 0 69 455 35<184 271.5> 675 20G<394 394>
VStem: 25 132<114 156> 49 7<330 490> 319 120<65 84 84 84 111 283 283 283 310 355>
LayerCount: 2
Back
Fore
SplineSet
133 571 m 1x76
 196 680 l 1
 242 676 289 667 335 667 c 0
 350 667 364 682 379 701 c 1
 394 695 l 1
 335 592 l 1
 286 596 236 605 187 605 c 0
 174 605 160 584 147 562 c 1
 133 571 l 1x76
319 0 m 1
 319 84 l 1
 281 47 211 -10 145 -10 c 0
 76 -10 25 24 25 105 c 0xba
 25 207 146 259 319 310 c 1
 319 400 317 455 226 455 c 0
 142 455 93 404 56 330 c 1
 49 330 l 1
 49 490 l 1
 487 490 l 1
 439 425 l 1
 439 65 l 1
 440 65 l 1
 514 0 l 1
 319 0 l 1
319 111 m 1x7a
 319 283 l 1
 197 245 157 186 157 138 c 0
 157 90 190 69 232 69 c 0
 263 69 294 85 319 111 c 1x7a
EndSplineSet
EndChar

StartChar: ae
Encoding: 230 230 94
Width: 775
Flags: MW
HStem: -12 113<543 573.5> -10 79<110.5 246.5> 284 26<424 615 422 745 424 424> 458 32<188 271> 472 18<49 551> 472 30<538 551>
VStem: 25 132<114 156> 309 115<207 284> 322 100 616 129<321 352.5 284 376.5>
LayerCount: 2
Back
Fore
SplineSet
745 284 m 1xb2c0
 424 284 l 1xb340
 435 155 504 101 582 101 c 0
 650 101 710 135 725 177 c 1
 740 171 l 1
 704 80 633 -12 514 -12 c 0xb2c0
 432 -12 373 34 339 97 c 1
 277 28 206 -10 145 -10 c 0
 76 -10 25 24 25 105 c 0
 25 207 146 259 319 310 c 1
 329 400 316 458 226 458 c 0
 150 458 89 411 55 344 c 1
 49 344 l 1
 49 490 l 1
 476 490 l 1x72c0
 499 498 524 502 552 502 c 0xa6c0
 672 502 745 421 745 284 c 1xb2c0
422 310 m 1x6ac0
 615 310 l 1
 616 314 616 319 616 323 c 0
 616 430 573 472 529 472 c 0
 453 472 422 381 422 321 c 2
 422 310 l 1x6ac0
232 69 m 0
 261 69 300 83 328 121 c 1
 316 153 309 189 309 225 c 0x7340
 309 244 311 263 314 281 c 1
 196 243 157 185 157 138 c 0
 157 90 190 69 232 69 c 0
EndSplineSet
EndChar

StartChar: b
Encoding: 98 98 95
Width: 598
Flags: MW
HStem: -9 44<312.5 384 312.5 396.5> 426 74<324.5 336.5>
VStem: 88 120<103 398 425 576 576 576> 443 118<209.5 252>
LayerCount: 2
Back
Fore
SplineSet
208 710 m 1
 208 425 l 1
 244 467 288 500 361 500 c 0
 491 500 561 385 561 265 c 0
 561 154 492 -9 301 -9 c 0
 271 -9 210 0 160 14 c 1
 88 -11 l 1
 88 576 l 1
 20 653 l 1
 208 710 l 1
208 398 m 1
 208 103 l 1
 237 70 285 35 340 35 c 0
 428 35 443 104 443 174 c 0
 443 330 382 426 291 426 c 0
 264 426 238 417 208 398 c 1
EndSplineSet
EndChar

StartChar: c
Encoding: 99 99 96
Width: 468
Flags: MW
HStem: -12 119<254.5 287> 455 35<211.5 414>
VStem: 30 115<238 284.5> 407 7<330 330>
LayerCount: 2
Back
Fore
SplineSet
414 330 m 1
 407 330 l 1
 372 401 327 455 250 455 c 0
 173 455 145 384 145 316 c 0
 145 160 215 107 294 107 c 0
 363 107 415 162 427 197 c 1
 438 193 l 1
 417 112 349 -12 225 -12 c 0
 94 -12 30 105 30 225 c 0
 30 344 103 490 294 490 c 2
 414 490 l 1
 414 330 l 1
EndSplineSet
EndChar

StartChar: cacute
Encoding: 263 263 97
Width: 468
Flags: MW
HStem: -12 119<254.5 287> 455 35<213 414> 552 129<241 385 241 385>
VStem: 30 115<238 284.5>
LayerCount: 2
Back
Fore
SplineSet
256 552 m 1
 241 552 l 1
 259 681 l 1
 385 681 l 1
 256 552 l 1
414 354 m 1
 409 354 l 1
 380 398 329 455 255 455 c 0
 171 455 145 386 145 316 c 0
 145 160 215 107 294 107 c 0
 363 107 415 162 427 197 c 1
 438 193 l 1
 417 112 349 -12 225 -12 c 0
 94 -12 30 105 30 225 c 0
 30 344 103 490 294 490 c 2
 414 490 l 1
 414 354 l 1
EndSplineSet
EndChar

StartChar: ccaron
Encoding: 269 269 98
Width: 468
Flags: MW
HStem: -12 119<254.5 287> 455 35<213 414> 552 56<259 259 259 300 217 259> 552 129<160 300 160 217>
VStem: 30 115<238 284.5>
LayerCount: 2
Back
Fore
SplineSet
259 608 m 1xe8
 342 681 l 1
 358 681 l 1xd8
 300 552 l 1
 217 552 l 1xe8
 160 681 l 1
 174 681 l 1xd8
 259 608 l 1xe8
414 354 m 1
 409 354 l 1
 380 398 329 455 255 455 c 0
 171 455 145 386 145 316 c 0
 145 160 215 107 294 107 c 0
 363 107 415 162 427 197 c 1
 438 193 l 1
 417 112 349 -12 225 -12 c 0
 94 -12 30 105 30 225 c 0
 30 344 103 490 294 490 c 2
 414 490 l 1
 414 354 l 1
EndSplineSet
EndChar

StartChar: ccedilla
Encoding: 231 231 99
Width: 468
Flags: MW
HStem: -162 17<206.5 233.5 206.5 243> -11 21G<207 207> 455 35<213 414>
VStem: 30 115<238 284.5> 267 45<-114 -108.5>
LayerCount: 2
Back
Fore
SplineSet
414 354 m 1
 409 354 l 1
 380 398 329 455 255 455 c 0
 171 455 145 386 145 316 c 0
 145 160 215 107 294 107 c 0
 363 107 415 162 427 197 c 1
 438 193 l 1
 418 115 354 -3 238 -12 c 1
 226 -34 l 1
 255 -45 312 -63 312 -96 c 0
 312 -132 268 -162 218 -162 c 0
 189 -162 166 -153 143 -133 c 1
 150 -119 l 1
 170 -136 193 -145 220 -145 c 0
 247 -145 267 -138 267 -128 c 0
 267 -89 165 -87 165 -72 c 1
 207 -11 l 1
 88 -1 30 111 30 225 c 0
 30 344 103 490 294 490 c 2
 414 490 l 1
 414 354 l 1
EndSplineSet
EndChar

StartChar: ccircumflex
Encoding: 265 265 100
Width: 468
Flags: MW
HStem: -12 119<254.5 287> 455 35<213 414> 625 56<255 255>
VStem: 30 115<238 284.5>
LayerCount: 2
Back
Fore
SplineSet
156 552 m 1
 213 681 l 1
 296 681 l 1
 354 552 l 1
 338 552 l 1
 255 625 l 1
 170 552 l 1
 156 552 l 1
414 354 m 1
 409 354 l 1
 380 398 329 455 255 455 c 0
 171 455 145 386 145 316 c 0
 145 160 215 107 294 107 c 0
 363 107 415 162 427 197 c 1
 438 193 l 1
 417 112 349 -12 225 -12 c 0
 94 -12 30 105 30 225 c 0
 30 344 103 490 294 490 c 2
 414 490 l 1
 414 354 l 1
EndSplineSet
EndChar

StartChar: cdotaccent
Encoding: 267 267 101
Width: 468
Flags: MW
HStem: -12 119<254.5 287> 455 35<213 414>
VStem: 30 115<238 284.5>
LayerCount: 2
Back
Fore
SplineSet
184 627 m 1
 255 707 l 1
 325 627 l 1
 255 546 l 1
 184 627 l 1
414 354 m 1
 409 354 l 1
 380 398 329 455 255 455 c 0
 171 455 145 386 145 316 c 0
 145 160 215 107 294 107 c 0
 363 107 415 162 427 197 c 1
 438 193 l 1
 417 112 349 -12 225 -12 c 0
 94 -12 30 105 30 225 c 0
 30 344 103 490 294 490 c 2
 414 490 l 1
 414 354 l 1
EndSplineSet
EndChar

StartChar: d
Encoding: 100 100 102
Width: 597
Flags: MW
HStem: -10 110<265.5 268.5> -9 79 0 21G<577 577> 455 35<216 383>
VStem: 35 119<238 289.5> 383 120<70 89 89 89 125 394 394 394 490 576 576 576>
LayerCount: 2
Back
Fore
SplineSet
383 -9 m 1x9c
 383 89 l 1
 353 37 307 -10 230 -10 c 0x9c
 99 -10 35 105 35 225 c 0
 35 354 117 490 299 490 c 2
 383 490 l 1
 383 576 l 1
 315 653 l 1
 503 710 l 1
 503 70 l 1x5c
 577 0 l 1x3c
 383 -9 l 1x9c
383 125 m 1
 383 394 l 1
 353 426 312 455 260 455 c 0
 172 455 154 376 154 316 c 0
 154 160 223 100 308 100 c 0
 343 100 364 110 383 125 c 1
EndSplineSet
EndChar

StartChar: eth
Encoding: 240 240 103
Width: 540
Flags: MW
HStem: -12 38<253 334 253 335> 464 38<202.5 300>
VStem: 30 127<236 287.5> 385 125<202.5 254>
LayerCount: 2
Back
Fore
SplineSet
426 669 m 1
 338 626 l 1
 423 529 510 401 510 267 c 0
 510 138 428 -12 242 -12 c 0
 100 -12 30 103 30 223 c 0
 30 352 112 502 298 502 c 2
 300 502 l 1
 285 529 267 555 248 582 c 1
 131 525 l 1
 131 559 l 1
 224 613 l 1
 198 646 169 680 135 717 c 1
 251 717 l 1
 268 700 287 681 307 660 c 1
 424 727 l 1
 426 669 l 1
244 464 m 0
 161 464 157 374 157 314 c 0
 157 158 209 26 297 26 c 0
 371 26 385 124 385 176 c 0
 385 332 332 464 244 464 c 0
EndSplineSet
EndChar

StartChar: dcaron
Encoding: 271 271 104
Width: 758
Flags: MW
HStem: -10 110<265.5 268.5> -9 79 0 21G<577 577> 455 35<216 383> 470 20G<299 383 383 383>
VStem: 35 119<238 289.5> 383 120<70 89 89 89 125 394 394 394 490 576 576 576> 640 93<524 631>
LayerCount: 2
Back
Fore
SplineSet
586 459 m 1x97
 572 469 l 1
 606 488 640 505 640 543 c 0x8f
 640 569 621 581 608 595 c 2
 569 626 l 1
 652 711 l 1
 685 691 733 648 733 614 c 0
 733 516 608 464 586 459 c 1x97
383 -9 m 1
 383 89 l 1
 353 37 307 -10 230 -10 c 0x97
 99 -10 35 105 35 225 c 0
 35 354 117 490 299 490 c 2
 383 490 l 1
 383 576 l 1
 315 653 l 1
 503 710 l 1
 503 70 l 1x57
 577 0 l 1x37
 383 -9 l 1
383 125 m 1
 383 394 l 1
 353 426 312 455 260 455 c 0
 172 455 154 376 154 316 c 0
 154 160 223 100 308 100 c 0
 343 100 364 110 383 125 c 1
EndSplineSet
EndChar

StartChar: e
Encoding: 101 101 105
Width: 492
Flags: MW
HStem: -14 113<259 289.5> 282 30<140 332 138 461 140 140> 470 30<207 267>
VStem: 25 113<163 319> 332 129<282 321 282 374.5>
LayerCount: 2
Back
Fore
SplineSet
461 283 m 1
 461 282 l 1
 140 282 l 1
 151 153 220 99 298 99 c 0
 366 99 426 133 441 175 c 1
 456 169 l 1
 420 78 349 -14 230 -14 c 0
 99 -14 25 103 25 223 c 0
 25 352 105 500 268 500 c 0
 387 500 460 420 461 285 c 1
 462 283 l 1
 461 283 l 1
332 312 m 1
 332 321 l 2
 332 428 289 470 245 470 c 0
 169 470 138 379 138 319 c 2
 138 312 l 1
 332 312 l 1
EndSplineSet
EndChar

StartChar: eacute
Encoding: 233 233 106
Width: 497
Flags: MW
HStem: -14 113<264 294.5> 282 30<145 337 143 466 145 145> 470 30<212 272> 550 129<226 370 226 370>
VStem: 30 113<163 319> 337 129<282 321 282 374.5>
LayerCount: 2
Back
Fore
SplineSet
241 550 m 1
 226 550 l 1
 244 679 l 1
 370 679 l 1
 241 550 l 1
466 283 m 1
 466 282 l 1
 145 282 l 1
 156 153 225 99 303 99 c 0
 371 99 431 133 446 175 c 1
 461 169 l 1
 425 78 354 -14 235 -14 c 0
 104 -14 30 103 30 223 c 0
 30 352 110 500 273 500 c 0
 392 500 465 420 466 285 c 1
 467 283 l 1
 466 283 l 1
337 312 m 1
 337 321 l 2
 337 428 294 470 250 470 c 0
 174 470 143 379 143 319 c 2
 143 312 l 1
 337 312 l 1
EndSplineSet
EndChar

StartChar: ecaron
Encoding: 283 283 107
Width: 496
Flags: MW
HStem: -12 113<264 294.5> 284 26<145 336 143 466 145 145> 472 30<212 272> 552 56<259 259 259 300 217 259> 552 129<160 300 160 217>
VStem: 30 113<165 310> 337 129<321 352.5 284 376.5>
LayerCount: 2
Back
Fore
SplineSet
259 608 m 1xf6
 342 681 l 1
 358 681 l 1xee
 300 552 l 1
 217 552 l 1xf6
 160 681 l 1
 174 681 l 1xee
 259 608 l 1xf6
466 284 m 1
 145 284 l 1
 156 155 225 101 303 101 c 0
 371 101 431 135 446 177 c 1
 461 171 l 1
 425 80 354 -12 235 -12 c 0
 104 -12 30 105 30 225 c 0
 30 354 110 502 273 502 c 0
 393 502 466 421 466 284 c 1
143 310 m 1
 336 310 l 1
 337 314 337 319 337 323 c 0
 337 430 294 472 250 472 c 0
 174 472 143 381 143 321 c 2
 143 310 l 1
EndSplineSet
EndChar

StartChar: ecircumflex
Encoding: 234 234 108
Width: 497
Flags: MW
HStem: -14 113<264 294.5> 282 30<145 337 143 466 145 145> 470 30<212 272> 623 56<260 260>
VStem: 30 113<163 319> 337 129<282 321 282 374.5>
LayerCount: 2
Back
Fore
SplineSet
175 550 m 1
 161 550 l 1
 218 679 l 1
 301 679 l 1
 359 550 l 1
 343 550 l 1
 260 623 l 1
 175 550 l 1
466 283 m 1
 466 282 l 1
 145 282 l 1
 156 153 225 99 303 99 c 0
 371 99 431 133 446 175 c 1
 461 169 l 1
 425 78 354 -14 235 -14 c 0
 104 -14 30 103 30 223 c 0
 30 352 110 500 273 500 c 0
 392 500 465 420 466 285 c 1
 467 283 l 1
 466 283 l 1
337 312 m 1
 337 321 l 2
 337 428 294 470 250 470 c 0
 174 470 143 379 143 319 c 2
 143 312 l 1
 337 312 l 1
EndSplineSet
EndChar

StartChar: edieresis
Encoding: 235 235 109
Width: 497
Flags: MW
HStem: -14 113<264 294.5> 282 30<145 337 143 466 145 145> 470 30<212 272> 676 20G<160 160 365 365>
VStem: 30 113<163 319> 337 129<282 321 282 374.5>
LayerCount: 2
Back
Fore
SplineSet
160 543 m 1
 92 620 l 1
 160 696 l 1
 227 620 l 1
 160 543 l 1
365 543 m 1
 297 620 l 1
 365 696 l 1
 432 620 l 1
 365 543 l 1
466 283 m 1
 466 282 l 1
 145 282 l 1
 156 153 225 99 303 99 c 0
 371 99 431 133 446 175 c 1
 461 169 l 1
 425 78 354 -14 235 -14 c 0
 104 -14 30 103 30 223 c 0
 30 352 110 500 273 500 c 0
 392 500 465 420 466 285 c 1
 467 283 l 1
 466 283 l 1
337 312 m 1
 337 321 l 2
 337 428 294 470 250 470 c 0
 174 470 143 379 143 319 c 2
 143 312 l 1
 337 312 l 1
EndSplineSet
EndChar

StartChar: edotaccent
Encoding: 279 279 110
Width: 496
Flags: MW
HStem: -12 113<264 294.5> 284 26<145 336 143 466 145 145> 472 30<212 272>
VStem: 30 113<165 310> 337 129<321 352.5 284 376.5>
LayerCount: 2
Back
Fore
SplineSet
194 627 m 1
 265 707 l 1
 335 627 l 1
 265 546 l 1
 194 627 l 1
466 284 m 1
 145 284 l 1
 156 155 225 101 303 101 c 0
 371 101 431 135 446 177 c 1
 461 171 l 1
 425 80 354 -12 235 -12 c 0
 104 -12 30 105 30 225 c 0
 30 354 110 502 273 502 c 0
 393 502 466 421 466 284 c 1
143 310 m 1
 336 310 l 1
 337 314 337 319 337 323 c 0
 337 430 294 472 250 472 c 0
 174 472 143 381 143 321 c 2
 143 310 l 1
EndSplineSet
EndChar

StartChar: egrave
Encoding: 232 232 111
Width: 497
Flags: MW
HStem: -14 113<264 294.5> 282 30<145 337 143 466 145 145> 470 30<212 272> 550 129<138 267 138 282>
VStem: 30 113<163 319> 337 129<282 321 282 374.5>
LayerCount: 2
Back
Fore
SplineSet
267 550 m 1
 138 679 l 1
 264 679 l 1
 282 550 l 1
 267 550 l 1
466 283 m 1
 466 282 l 1
 145 282 l 1
 156 153 225 99 303 99 c 0
 371 99 431 133 446 175 c 1
 461 169 l 1
 425 78 354 -14 235 -14 c 0
 104 -14 30 103 30 223 c 0
 30 352 110 500 273 500 c 0
 392 500 465 420 466 285 c 1
 467 283 l 1
 466 283 l 1
337 312 m 1
 337 321 l 2
 337 428 294 470 250 470 c 0
 174 470 143 379 143 319 c 2
 143 312 l 1
 337 312 l 1
EndSplineSet
EndChar

StartChar: f
Encoding: 102 102 112
Width: 387
Flags: MW
HStem: -1 86<89 89 15 89> 436 54<209 379> 660 34<238.5 427>
VStem: 89 120<85 427 427 427> 420 7<544 694>
LayerCount: 2
Back
Fore
SplineSet
427 694 m 1
 427 544 l 1
 420 544 l 1
 391 588 342 660 268 660 c 0
 209 660 191 623 191 579 c 0
 191 549 199 516 209 490 c 1
 401 490 l 1
 379 436 l 1
 209 436 l 1
 209 85 l 1
 300 -1 l 1
 15 -1 l 1
 89 85 l 1
 89 427 l 1
 19 489 l 1
 24 487 l 1
 19 490 l 1
 90 490 l 1
 101 586 163 694 307 694 c 2
 427 694 l 1
EndSplineSet
EndChar

StartChar: g
Encoding: 103 103 113
Width: 506
Flags: MW
HStem: -232 23<189 290 189 302> -42 113<181 384 129 450> 156 28<236.5 289.5 236.5 300.5> 473 29<201.5 254.5> 477 20G<320 320>
VStem: 20 76<-143 -96 -143 -94.5> 45 81<34.5 126> 45 128<322.5 356> 320 129<306 340.5> 398 75<-123 6>
LayerCount: 2
Back
Fore
SplineSet
447 589 m 1x00
 451 588 l 1xea80
 446 527 436 492 414 446 c 1
 437 419 449 385 449 349 c 0
 449 263 378 156 223 156 c 0
 201 156 181 159 163 164 c 1
 149 151 126 133 126 119 c 0
 126 89 146 75 181 71 c 1xf440
 450 71 l 1
 461 53 473 23 473 -11 c 0
 473 -127 384 -232 220 -232 c 0
 85 -232 20 -189 20 -119 c 0xf240
 20 -70 72 -42 105 -28 c 1
 76 -16 45 16 45 53 c 0xf140
 45 114 99 148 138 172 c 1
 76 198 45 254 45 313 c 0
 45 399 114 502 269 502 c 0xec40
 288 502 305 500 320 497 c 1
 447 589 l 1x00
226 473 m 0xec40
 177 473 173 414 173 374 c 0
 173 271 208 184 265 184 c 0
 314 184 320 249 320 289 c 0
 320 392 283 473 226 473 c 0xec40
384 -42 m 1xf180
 129 -42 l 1
 107 -59 96 -82 96 -110 c 0
 96 -176 144 -209 234 -209 c 0
 346 -209 398 -147 398 -99 c 0
 398 -74 394 -55 384 -42 c 1xf180
EndSplineSet
EndChar

StartChar: h
Encoding: 104 104 114
Width: 624
Flags: MW
HStem: 0 21G<20 288 20 20 336 604 336 336> 436 68<349 359.5>
VStem: 94 120<86 377 411 566 566 566> 409 120<86 310 310 344 86 348.5>
LayerCount: 2
Back
Fore
SplineSet
214 710 m 1
 214 411 l 1
 254 473 319 504 379 504 c 0
 481 504 529 438 529 344 c 2
 529 86 l 1
 530 86 l 1
 604 0 l 1
 336 0 l 1
 409 85 l 1
 409 310 l 2
 409 387 398 436 321 436 c 0
 284 436 246 420 214 377 c 1
 214 86 l 1
 288 0 l 1
 20 0 l 1
 94 86 l 1
 94 566 l 1
 26 643 l 1
 214 710 l 1
EndSplineSet
EndChar

StartChar: i
Encoding: 105 105 115
Width: 318
Flags: MW
HStem: 0 21G<25 293 25 25> 480 20G<219 219>
VStem: 99 120<86 356 356 356>
LayerCount: 2
Back
Fore
SplineSet
70 639 m 1
 156 731 l 1
 241 639 l 1
 156 546 l 1
 70 639 l 1
31 433 m 1
 219 500 l 1
 219 86 l 1
 293 0 l 1
 25 0 l 1
 99 86 l 1
 99 356 l 1
 31 433 l 1
EndSplineSet
EndChar

StartChar: dotlessi
Encoding: 305 305 116
Width: 318
Flags: MW
HStem: 0 21G<25 293 25 25> 480 20G<219 219>
VStem: 99 120<86 356 356 356>
LayerCount: 2
Back
Fore
SplineSet
31 433 m 1
 219 500 l 1
 219 86 l 1
 293 0 l 1
 25 0 l 1
 99 86 l 1
 99 356 l 1
 31 433 l 1
EndSplineSet
EndChar

StartChar: iacute
Encoding: 237 237 117
Width: 318
Flags: MW
HStem: 0 21G<25 293 25 25> 480 20G<219 219> 552 129<98 242 98 242>
VStem: 99 120<86 356 356 356>
LayerCount: 2
Back
Fore
SplineSet
113 552 m 1
 98 552 l 1
 116 681 l 1
 242 681 l 1
 113 552 l 1
31 433 m 1
 219 500 l 1
 219 86 l 1
 293 0 l 1
 25 0 l 1
 99 86 l 1
 99 356 l 1
 31 433 l 1
EndSplineSet
EndChar

StartChar: icircumflex
Encoding: 238 238 118
Width: 318
Flags: MW
HStem: 0 21G<25 293 25 25> 480 20G<219 219> 625 56<150 150>
VStem: 99 120<86 356 356 356>
LayerCount: 2
Back
Fore
SplineSet
51 552 m 1
 108 681 l 1
 191 681 l 1
 249 552 l 1
 233 552 l 1
 150 625 l 1
 65 552 l 1
 51 552 l 1
31 433 m 1
 219 500 l 1
 219 86 l 1
 293 0 l 1
 25 0 l 1
 99 86 l 1
 99 356 l 1
 31 433 l 1
EndSplineSet
EndChar

StartChar: idieresis
Encoding: 239 239 119
Width: 390
Flags: MW
HStem: 0 21G<71 339 71 71> 480 20G<265 265> 678 20G<93 93 298 298>
VStem: 145 120<86 356 356 356>
LayerCount: 2
Back
Fore
SplineSet
25 622 m 1
 93 698 l 1
 160 622 l 1
 93 545 l 1
 25 622 l 1
230 622 m 1
 298 698 l 1
 365 622 l 1
 298 545 l 1
 230 622 l 1
77 433 m 1
 265 500 l 1
 265 86 l 1
 339 0 l 1
 71 0 l 1
 145 86 l 1
 145 356 l 1
 77 433 l 1
EndSplineSet
EndChar

StartChar: igrave
Encoding: 236 236 120
Width: 318
Flags: MW
HStem: 0 21G<25 293 25 25> 480 20G<219 219> 552 129<36 180 36 165>
VStem: 99 120<86 356 356 356>
LayerCount: 2
Back
Fore
SplineSet
180 552 m 1
 165 552 l 1
 36 681 l 1
 162 681 l 1
 180 552 l 1
31 433 m 1
 219 500 l 1
 219 86 l 1
 293 0 l 1
 25 0 l 1
 99 86 l 1
 99 356 l 1
 31 433 l 1
EndSplineSet
EndChar

StartChar: ij
Encoding: 307 307 121
Width: 575
Flags: MW
HStem: -222 21G<386 386> 0 21G<25 293 25 25> 480 20G<219 219 523 523>
VStem: 99 120<86 356 356 356> 403 120<73 356 356 356>
LayerCount: 2
Back
Fore
SplineSet
70 639 m 1
 156 731 l 1
 241 639 l 1
 156 546 l 1
 70 639 l 1
374 639 m 1
 460 731 l 1
 545 639 l 1
 460 546 l 1
 374 639 l 1
31 433 m 1
 219 500 l 1
 219 86 l 1
 293 0 l 1
 25 0 l 1
 99 86 l 1
 99 356 l 1
 31 433 l 1
523 500 m 1
 523 73 l 1
 524 73 l 1
 524 -65 l 2
 524 -142 427 -189 393 -225 c 1
 386 -222 l 1
 401 -198 403 -147 403 -147 c 1
 403 356 l 1
 335 433 l 1
 523 500 l 1
EndSplineSet
EndChar

StartChar: j
Encoding: 106 106 122
Width: 260
Flags: MW
HStem: -222 21G<71 71> 480 20G<208 208>
VStem: 88 120<73 356 356 356>
LayerCount: 2
Back
Fore
SplineSet
59 639 m 1
 145 731 l 1
 230 639 l 1
 145 546 l 1
 59 639 l 1
208 500 m 1
 208 73 l 1
 209 73 l 1
 209 -65 l 2
 209 -142 112 -189 78 -225 c 1
 71 -222 l 1
 86 -198 88 -147 88 -147 c 1
 88 356 l 1
 20 433 l 1
 208 500 l 1
EndSplineSet
EndChar

StartChar: k
Encoding: 107 107 123
Width: 579
Flags: MW
HStem: 0 9<402 579> 483 7<337 552>
VStem: 94 120<86 233 242 576 576 576>
LayerCount: 2
Back
Fore
SplineSet
214 710 m 1
 214 242 l 1
 380 411 l 1
 337 490 l 1
 552 490 l 1
 552 483 l 1
 448 422 l 1
 304 292 l 1
 498 72 l 1
 579 9 l 1
 579 0 l 1
 402 0 l 1
 374 44 l 1
 214 233 l 1
 214 86 l 1
 288 0 l 1
 20 0 l 1
 94 86 l 1
 94 576 l 1
 26 653 l 1
 214 710 l 1
EndSplineSet
EndChar

StartChar: l
Encoding: 108 108 124
Width: 308
Flags: MW
HStem: 0 21G<20 288 20 20>
VStem: 94 120<86 440 440 440 538 576 576 576>
LayerCount: 2
Back
Fore
SplineSet
94 86 m 1
 94 440 l 1
 26 517 l 1
 94 538 l 1
 94 576 l 1
 26 653 l 1
 214 710 l 1
 214 86 l 1
 288 0 l 1
 20 0 l 1
 94 86 l 1
EndSplineSet
EndChar

StartChar: lacute
Encoding: 314 314 125
Width: 308
Flags: MW
HStem: 0 21G<20 288 20 20> 740 129<107 251 107 251>
VStem: 94 120<86 440 440 440 538 576 576 576>
LayerCount: 2
Back
Fore
SplineSet
122 740 m 1
 107 740 l 1
 125 869 l 1
 251 869 l 1
 122 740 l 1
94 86 m 1
 94 440 l 1
 26 517 l 1
 94 538 l 1
 94 576 l 1
 26 653 l 1
 214 710 l 1
 214 86 l 1
 288 0 l 1
 20 0 l 1
 94 86 l 1
EndSplineSet
EndChar

StartChar: lcaron
Encoding: 318 318 126
Width: 464
Flags: MW
HStem: 0 21G<20 288 20 20>
VStem: 94 120<86 440 440 440 538 576 576 576> 346 93<524 631>
LayerCount: 2
Back
Fore
SplineSet
292 459 m 1
 278 469 l 1
 312 488 346 505 346 543 c 0
 346 569 327 581 314 595 c 2
 275 626 l 1
 358 711 l 1
 391 691 439 648 439 614 c 0
 439 516 314 464 292 459 c 1
94 86 m 1
 94 440 l 1
 26 517 l 1
 94 538 l 1
 94 576 l 1
 26 653 l 1
 214 710 l 1
 214 86 l 1
 288 0 l 1
 20 0 l 1
 94 86 l 1
EndSplineSet
EndChar

StartChar: ldot
Encoding: 320 320 127
Width: 437
Flags: MW
HStem: 0 21G<20 288 20 20>
VStem: 94 120<86 440 440 440 538 576 576 576>
LayerCount: 2
Back
Fore
SplineSet
94 86 m 1
 94 440 l 1
 26 517 l 1
 94 538 l 1
 94 576 l 1
 26 653 l 1
 214 710 l 1
 214 86 l 1
 288 0 l 1
 20 0 l 1
 94 86 l 1
285 304 m 1
 371 397 l 1
 456 304 l 1
 371 212 l 1
 285 304 l 1
EndSplineSet
Ligature2: "sous-table Remplacement de ligature lookups36" l periodcentered
EndChar

StartChar: lslash
Encoding: 322 322 128
Width: 311
Flags: MW
HStem: 0 21G<14 282 14 14>
VStem: 88 120<86 307 307 307 420 440 440 440 538 576 576 576>
LayerCount: 2
Back
Fore
SplineSet
208 86 m 1
 282 0 l 1
 14 0 l 1
 88 86 l 1
 88 307 l 1
 -5 268 l 1
 -5 330 l 1
 88 369 l 1
 88 440 l 1
 20 517 l 1
 88 538 l 1
 88 576 l 1
 20 653 l 1
 208 710 l 1
 208 420 l 1
 316 465 l 1
 316 401 l 1
 208 356 l 1
 208 86 l 1
EndSplineSet
EndChar

StartChar: m
Encoding: 109 109 129
Width: 914
Flags: MW
HStem: 0 21G<20 288 20 20 323 591 323 323 626 894 626 626> 434 68<334 346.5 636 649.5>
VStem: 94 120<86 356 356 356> 396 120<86 308 308 342 86 346.5> 699 120<86 308 308 342 86 346.5>
LayerCount: 2
Back
Fore
SplineSet
214 500 m 1
 214 427 l 1
 253 472 302 502 366 502 c 0
 439 502 485 468 504 414 c 1
 539 462 603 502 669 502 c 0
 771 502 819 436 819 342 c 2
 819 86 l 1
 820 86 l 1
 894 0 l 1
 626 0 l 1
 699 85 l 1
 699 308 l 2
 699 385 688 434 611 434 c 0
 574 434 544 418 513 383 c 1
 515 370 516 356 516 342 c 2
 516 86 l 1
 517 86 l 1
 591 0 l 1
 323 0 l 1
 396 85 l 1
 396 308 l 2
 396 385 385 434 308 434 c 0
 273 434 244 420 214 388 c 1
 214 86 l 1
 288 0 l 1
 20 0 l 1
 94 86 l 1
 94 356 l 1
 26 433 l 1
 214 500 l 1
EndSplineSet
EndChar

StartChar: n
Encoding: 110 110 130
Width: 627
Flags: MW
HStem: 0 21G<20 288 20 20 339 607 339 339> 434 68<351 361.5>
VStem: 96 120<86 356 356 356> 411 120<86 308 308 342 86 346.5>
LayerCount: 2
Back
Fore
SplineSet
607 0 m 1
 339 0 l 1
 411 86 l 1
 411 308 l 2
 411 385 400 434 323 434 c 0
 286 434 248 418 216 375 c 1
 216 86 l 1
 288 0 l 1
 20 0 l 1
 96 86 l 1
 96 356 l 1
 28 433 l 1
 216 500 l 1
 216 409 l 1
 256 471 321 502 381 502 c 0
 483 502 531 436 531 342 c 2
 531 86 l 1
 607 0 l 1
EndSplineSet
EndChar

StartChar: nacute
Encoding: 324 324 131
Width: 624
Flags: MW
HStem: 0 21G<20 288 20 20 336 604 336 336> 434 68<349 359.5> 552 129<290 434 290 434>
VStem: 94 120<86 356 356 356> 409 120<86 308 308 342 86 346.5>
LayerCount: 2
Back
Fore
SplineSet
305 552 m 1
 290 552 l 1
 308 681 l 1
 434 681 l 1
 305 552 l 1
214 500 m 1
 214 409 l 1
 254 471 319 502 379 502 c 0
 481 502 529 436 529 342 c 2
 529 86 l 1
 604 0 l 1
 336 0 l 1
 409 85 l 1
 409 308 l 2
 409 385 398 434 321 434 c 0
 284 434 246 418 214 375 c 1
 214 86 l 1
 288 0 l 1
 20 0 l 1
 94 86 l 1
 94 356 l 1
 26 433 l 1
 214 500 l 1
EndSplineSet
EndChar

StartChar: ncaron
Encoding: 328 328 132
Width: 624
Flags: MW
HStem: 0 21G<20 288 20 20 336 604 336 336> 434 68<349 359.5> 552 56<315 315 315 356 273 315> 552 129<216 356 216 273>
VStem: 94 120<86 356 356 356> 409 120<86 308 308 342 86 346.5>
LayerCount: 2
Back
Fore
SplineSet
315 608 m 1xec
 398 681 l 1
 414 681 l 1xdc
 356 552 l 1
 273 552 l 1xec
 216 681 l 1
 230 681 l 1xdc
 315 608 l 1xec
214 500 m 1
 214 409 l 1
 254 471 319 502 379 502 c 0
 481 502 529 436 529 342 c 2
 529 86 l 1
 530 86 l 1
 604 0 l 1
 336 0 l 1
 409 85 l 1
 409 308 l 2
 409 385 398 434 321 434 c 0
 284 434 246 418 214 375 c 1
 214 86 l 1
 288 0 l 1
 20 0 l 1
 94 86 l 1
 94 356 l 1
 26 433 l 1
 214 500 l 1
EndSplineSet
EndChar

StartChar: ntilde
Encoding: 241 241 133
Width: 624
Flags: MW
HStem: 0 21G<20 288 20 20 336 604 336 336> 434 68<349 359.5> 675 20G<443 443>
VStem: 94 120<86 356 356 356> 409 120<86 308 308 342 86 346.5>
LayerCount: 2
Back
Fore
SplineSet
182 571 m 1
 245 680 l 1
 291 676 338 667 384 667 c 0
 399 667 413 682 428 701 c 1
 443 695 l 1
 384 592 l 1
 335 596 285 605 236 605 c 0
 223 605 209 584 196 562 c 1
 182 571 l 1
214 500 m 1
 214 409 l 1
 254 471 319 502 379 502 c 0
 481 502 529 436 529 342 c 2
 529 86 l 1
 530 86 l 1
 604 0 l 1
 336 0 l 1
 409 85 l 1
 409 308 l 2
 409 385 398 434 321 434 c 0
 284 434 246 418 214 375 c 1
 214 86 l 1
 288 0 l 1
 20 0 l 1
 94 86 l 1
 94 356 l 1
 26 433 l 1
 214 500 l 1
EndSplineSet
EndChar

StartChar: o
Encoding: 111 111 134
Width: 557
Flags: MW
HStem: -12 38<258 339 258 340> 464 38<210 293>
VStem: 30 127<236 287.5> 395 125<202.5 254>
LayerCount: 2
Back
Fore
SplineSet
520 267 m 0
 520 138 433 -12 247 -12 c 0
 105 -12 30 103 30 223 c 0
 30 352 117 502 303 502 c 0
 445 502 520 387 520 267 c 0
249 464 m 0
 166 464 157 374 157 314 c 0
 157 158 214 26 302 26 c 0
 376 26 395 124 395 176 c 0
 395 332 337 464 249 464 c 0
EndSplineSet
EndChar

StartChar: oacute
Encoding: 243 243 135
Width: 557
Flags: MW
HStem: -12 38<258 339 258 340> 464 38<210 293> 552 129<227 371 227 371>
VStem: 30 127<236 287.5> 395 125<202.5 254>
LayerCount: 2
Back
Fore
SplineSet
242 552 m 1
 227 552 l 1
 245 681 l 1
 371 681 l 1
 242 552 l 1
520 267 m 0
 520 138 433 -12 247 -12 c 0
 105 -12 30 103 30 223 c 0
 30 352 117 502 303 502 c 0
 445 502 520 387 520 267 c 0
249 464 m 0
 166 464 157 374 157 314 c 0
 157 158 214 26 302 26 c 0
 376 26 395 124 395 176 c 0
 395 332 337 464 249 464 c 0
EndSplineSet
EndChar

StartChar: ocircumflex
Encoding: 244 244 136
Width: 557
Flags: MW
HStem: -12 38<258 339 258 340> 464 38<210 293> 625 56<275 275>
VStem: 30 127<236 287.5> 395 125<202.5 254>
LayerCount: 2
Back
Fore
SplineSet
176 552 m 1
 233 681 l 1
 316 681 l 1
 374 552 l 1
 358 552 l 1
 275 625 l 1
 190 552 l 1
 176 552 l 1
520 267 m 0
 520 138 433 -12 247 -12 c 0
 105 -12 30 103 30 223 c 0
 30 352 117 502 303 502 c 0
 445 502 520 387 520 267 c 0
249 464 m 0
 166 464 157 374 157 314 c 0
 157 158 214 26 302 26 c 0
 376 26 395 124 395 176 c 0
 395 332 337 464 249 464 c 0
EndSplineSet
EndChar

StartChar: odieresis
Encoding: 246 246 137
Width: 557
Flags: MW
HStem: -12 38<258 339 258 340> 464 38<210 293>
VStem: 30 127<236 287.5> 395 125<202.5 254>
LayerCount: 2
Back
Fore
SplineSet
101 625 m 1
 169 701 l 1
 236 625 l 1
 169 548 l 1
 101 625 l 1
306 625 m 1
 374 701 l 1
 441 625 l 1
 374 548 l 1
 306 625 l 1
520 267 m 0
 520 138 433 -12 247 -12 c 0
 105 -12 30 103 30 223 c 0
 30 352 117 502 303 502 c 0
 445 502 520 387 520 267 c 0
249 464 m 0
 166 464 157 374 157 314 c 0
 157 158 214 26 302 26 c 0
 376 26 395 124 395 176 c 0
 395 332 337 464 249 464 c 0
EndSplineSet
EndChar

StartChar: ograve
Encoding: 242 242 138
Width: 557
Flags: MW
HStem: -12 38<258 339 258 340> 464 38<210 293> 552 129<162 291 162 306>
VStem: 30 127<236 287.5> 395 125<202.5 254>
LayerCount: 2
Back
Fore
SplineSet
291 552 m 1
 162 681 l 1
 288 681 l 1
 306 552 l 1
 291 552 l 1
520 267 m 0
 520 138 433 -12 247 -12 c 0
 105 -12 30 103 30 223 c 0
 30 352 117 502 303 502 c 0
 445 502 520 387 520 267 c 0
249 464 m 0
 166 464 157 374 157 314 c 0
 157 158 214 26 302 26 c 0
 376 26 395 124 395 176 c 0
 395 332 337 464 249 464 c 0
EndSplineSet
EndChar

StartChar: oslash
Encoding: 248 248 139
Width: 563
Flags: MW
HStem: -12 38<291 348 291 349> 464 38<219 277>
VStem: 39 127<285.5 287.5> 404 125<202.5 206.5>
LayerCount: 2
Back
Fore
SplineSet
533 564 m 1
 454 450 l 1
 504 405 529 337 529 267 c 0
 529 138 442 -12 256 -12 c 0
 216 -12 182 -3 153 12 c 1
 102 -62 l 1
 35 -62 l 1
 109 45 l 1
 63 90 39 156 39 223 c 0
 39 352 126 502 312 502 c 0
 349 502 381 494 409 481 c 1
 466 564 l 1
 533 564 l 1
187 159 m 1
 353 399 l 1
 328 440 296 464 258 464 c 0
 175 464 166 374 166 314 c 0
 166 257 173 204 187 159 c 1
379 341 m 1
 212 98 l 1
 237 54 271 26 311 26 c 0
 385 26 404 124 404 176 c 0
 404 237 395 294 379 341 c 1
EndSplineSet
EndChar

StartChar: otilde
Encoding: 245 245 140
Width: 557
Flags: MW
HStem: -12 38<258 339 258 340> 464 38<210 293> 566 75
VStem: 30 127<236 287.5> 395 125<202.5 254>
LayerCount: 2
Back
Fore
SplineSet
337 635 m 1
 381 669 l 1
 396 663 l 1
 337 560 l 1
 189 573 l 1
 149 530 l 1
 135 539 l 1
 198 648 l 1
 337 635 l 1
520 267 m 0
 520 138 433 -12 247 -12 c 0
 105 -12 30 103 30 223 c 0
 30 352 117 502 303 502 c 0
 445 502 520 387 520 267 c 0
249 464 m 0
 166 464 157 374 157 314 c 0
 157 158 214 26 302 26 c 0
 376 26 395 124 395 176 c 0
 395 332 337 464 249 464 c 0
EndSplineSet
EndChar

StartChar: oe
Encoding: 339 339 141
Width: 837
Flags: MW
HStem: -12 38<256.5 287.5> 284 26<505 680 502 808 505 505> 464 38<209 290> 472 30<584.5 619.5>
VStem: 35 126<236 287.5> 387 118<252 254> 680 128<310 310>
LayerCount: 2
Back
Fore
SplineSet
789 177 m 1xee
 803 171 l 1
 769 80 696 -12 583 -12 c 0
 518 -12 467 21 434 69 c 1
 391 21 329 -12 246 -12 c 0
 106 -12 35 103 35 223 c 0
 35 352 119 502 299 502 c 0
 369 502 422 471 456 425 c 1
 494 471 549 502 620 502 c 0
 734 502 808 421 808 284 c 1
 505 284 l 1
 505 278 506 273 506 267 c 0
 506 262 505 257 505 252 c 0
 521 144 579 101 648 101 c 0
 713 101 775 135 789 177 c 1xee
502 310 m 1
 680 310 l 1
 683 426 641 472 598 472 c 0xde
 527 472 502 380 501 320 c 1
 502 310 l 1
248 464 m 0xee
 169 464 161 374 161 314 c 0
 161 158 215 26 298 26 c 0
 369 26 387 124 387 176 c 0
 387 332 332 464 248 464 c 0xee
EndSplineSet
EndChar

StartChar: p
Encoding: 112 112 142
Width: 604
Flags: MW
HStem: -215 86<94 94 20 94> -9 44<318.5 390 318.5 402.5> 426 74<330.5 340>
VStem: 94 120<-129 3 -129 103 103 377 377 377> 449 118<209.5 252>
LayerCount: 2
Back
Fore
SplineSet
214 511 m 1
 214 425 l 1
 250 467 294 500 367 500 c 0
 497 500 567 385 567 265 c 0
 567 154 498 -9 307 -9 c 0
 286 -9 251 -5 214 3 c 1
 214 -129 l 1
 307 -215 l 1
 20 -215 l 1
 94 -129 l 1
 94 377 l 1
 26 454 l 1
 214 511 l 1
214 398 m 1
 214 103 l 1
 243 70 291 35 346 35 c 0
 434 35 449 104 449 174 c 0
 449 330 383 426 297 426 c 0
 270 426 244 417 214 398 c 1
EndSplineSet
EndChar

StartChar: thorn
Encoding: 254 254 143
Width: 604
Flags: MW
HStem: -215 86<94 94 20 94> -9 44<318.5 390 318.5 402.5> 426 74<330.5 340>
VStem: 94 120<-129 3 -129 103 103 398 425 576 576 576> 449 118<209.5 252>
LayerCount: 2
Back
Fore
SplineSet
214 710 m 1
 214 425 l 1
 250 467 294 500 367 500 c 0
 497 500 567 385 567 265 c 0
 567 154 498 -9 307 -9 c 0
 286 -9 251 -5 214 3 c 1
 214 -129 l 1
 307 -215 l 1
 20 -215 l 1
 94 -129 l 1
 94 576 l 1
 26 653 l 1
 214 710 l 1
214 398 m 1
 214 103 l 1
 243 70 291 35 346 35 c 0
 434 35 449 104 449 174 c 0
 449 330 383 426 297 426 c 0
 270 426 244 417 214 398 c 1
EndSplineSet
EndChar

StartChar: q
Encoding: 113 113 144
Width: 557
Flags: MW
HStem: -215 86<378 378> -10 110<159.5 321> 455 35<211 281> 480 20G<498 498>
VStem: 30 119<238 289.5> 378 120<-129 91 91 91 124 394 394 394>
LayerCount: 2
Back
Fore
SplineSet
285 -215 m 1xec
 378 -129 l 1
 378 91 l 1
 342 35 288 -10 225 -10 c 0
 94 -10 30 105 30 225 c 0
 30 354 112 490 294 490 c 0
 343 490 371 486 407 478 c 1xec
 498 500 l 1xdc
 498 -129 l 1
 572 -215 l 1
 285 -215 l 1xec
378 124 m 1
 378 394 l 1
 348 426 307 455 255 455 c 0
 167 455 149 376 149 316 c 0
 149 160 218 100 303 100 c 0
 339 100 358 109 378 124 c 1
EndSplineSet
EndChar

StartChar: r
Encoding: 114 114 145
Width: 460
Flags: MW
HStem: 0 86<99 99 25 99> 453 37<253.5 311>
VStem: 99 120<86 301 86 413 86 413> 437 8<313 313>
LayerCount: 2
Back
Fore
SplineSet
445 313 m 1
 437 313 l 1
 393 418 334 453 288 453 c 0
 219 453 219 403 219 301 c 2
 219 86 l 1
 312 0 l 1
 25 0 l 1
 99 86 l 1
 99 413 l 1
 31 490 l 1
 445 490 l 1
 445 313 l 1
EndSplineSet
Substitution2: "sous-table 'ss01' Style 1 dans Grec lookup 35" r.ss01
Substitution2: "sous-table 'ss01' Style 1 dans '    ' lookup 34" r.ss01
Substitution2: "sous-table 'ss01' Style 1 dans Latin lookup 33" r.ss01
Substitution2: "sous-table 'salt' Alternatives stylistiques dans Grec lookup 32" r.ss01
Substitution2: "sous-table 'salt' Alternatives stylistiques dans '    ' lookup 31" r.ss01
Substitution2: "sous-table 'salt' Alternatives stylistiques dans Latin lookup 30" r.ss01
Substitution2: "sous-table 'aalt' Activer toutes les variantes dans Latin lookup 0" r.ss01
EndChar

StartChar: racute
Encoding: 341 341 146
Width: 460
Flags: MW
HStem: 0 86<99 99 25 99> 453 37<253.5 311> 552 129<215 359 215 359>
VStem: 99 120<86 301 86 413 86 413> 437 8<313 313>
LayerCount: 2
Back
Fore
SplineSet
215 552 m 1
 233 681 l 1
 359 681 l 1
 230 552 l 1
 215 552 l 1
445 313 m 1
 437 313 l 1
 393 418 334 453 288 453 c 0
 219 453 219 403 219 301 c 2
 219 86 l 1
 312 0 l 1
 25 0 l 1
 99 86 l 1
 99 413 l 1
 31 490 l 1
 445 490 l 1
 445 313 l 1
EndSplineSet
Substitution2: "sous-table 'ss01' Style 1 dans Grec lookup 35" racute.ss01
Substitution2: "sous-table 'ss01' Style 1 dans '    ' lookup 34" racute.ss01
Substitution2: "sous-table 'ss01' Style 1 dans Latin lookup 33" racute.ss01
Substitution2: "sous-table 'salt' Alternatives stylistiques dans Grec lookup 32" racute.ss01
Substitution2: "sous-table 'salt' Alternatives stylistiques dans '    ' lookup 31" racute.ss01
Substitution2: "sous-table 'salt' Alternatives stylistiques dans Latin lookup 30" racute.ss01
Substitution2: "sous-table 'aalt' Activer toutes les variantes dans Latin lookup 0" racute.ss01
EndChar

StartChar: rcaron
Encoding: 345 345 147
Width: 460
Flags: MW
HStem: 0 86<99 99 25 99> 453 37<253.5 311> 552 56<258 258 258 299 216 258> 552 129<159 299 159 216>
VStem: 99 120<86 301 86 413 86 413> 437 8<313 313>
LayerCount: 2
Back
Fore
SplineSet
159 681 m 1x00
 173 681 l 1xec
 258 608 l 1xdc
 341 681 l 1
 357 681 l 1xec
 299 552 l 1
 216 552 l 1xdc
 159 681 l 1x00
445 313 m 1
 437 313 l 1
 393 418 334 453 288 453 c 0
 219 453 219 403 219 301 c 2
 219 86 l 1
 312 0 l 1
 25 0 l 1
 99 86 l 1
 99 413 l 1
 31 490 l 1
 445 490 l 1
 445 313 l 1
EndSplineSet
Substitution2: "sous-table 'ss01' Style 1 dans Grec lookup 35" rcaron.ss01
Substitution2: "sous-table 'ss01' Style 1 dans '    ' lookup 34" rcaron.ss01
Substitution2: "sous-table 'ss01' Style 1 dans Latin lookup 33" rcaron.ss01
Substitution2: "sous-table 'salt' Alternatives stylistiques dans Grec lookup 32" rcaron.ss01
Substitution2: "sous-table 'salt' Alternatives stylistiques dans '    ' lookup 31" rcaron.ss01
Substitution2: "sous-table 'salt' Alternatives stylistiques dans Latin lookup 30" rcaron.ss01
Substitution2: "sous-table 'aalt' Activer toutes les variantes dans Latin lookup 0" rcaron.ss01
EndChar

StartChar: s
Encoding: 115 115 148
Width: 411
Flags: MW
HStem: -10 38<179 229.5> 458 32
VStem: 30 82<340.5 388> 295 91<93 152>
LayerCount: 2
Back
Fore
SplineSet
25 189 m 1
 33 189 l 1
 59 103 138 28 220 28 c 0
 261 28 295 48 295 93 c 0
 295 211 30 153 30 351 c 0
 30 425 95 490 197 490 c 2
 307 490 l 1
 344 511 l 1
 344 345 l 1
 338 346 l 1
 302 411 242 459 178 458 c 0
 136 457 112 431 112 392 c 0
 112 289 386 334 386 151 c 0
 386 35 269 -10 190 -10 c 0
 140 -10 72 -3 34 13 c 1
 25 189 l 1
EndSplineSet
EndChar

StartChar: sacute
Encoding: 347 347 149
Width: 411
Flags: MW
HStem: -10 38<179 229.5> 458 32<197 205> 552 129<186 330 186 330>
VStem: 30 82<340.5 388> 295 91<93 152>
LayerCount: 2
Back
Fore
SplineSet
201 552 m 1
 186 552 l 1
 204 681 l 1
 330 681 l 1
 201 552 l 1
25 189 m 1
 33 189 l 1
 59 103 138 28 220 28 c 0
 261 28 295 48 295 93 c 0
 295 211 30 153 30 351 c 0
 30 425 95 490 197 490 c 2
 307 490 l 1
 344 511 l 1
 344 345 l 1
 338 346 l 1
 302 411 232 458 178 458 c 0
 136 458 112 431 112 392 c 0
 112 289 386 334 386 151 c 0
 386 35 269 -10 190 -10 c 0
 140 -10 72 -3 34 13 c 1
 25 189 l 1
EndSplineSet
EndChar

StartChar: scaron
Encoding: 353 353 150
Width: 411
Flags: MW
HStem: -10 38<179 229.5> 458 32<197 205> 552 56<215 215 215 256 173 215> 552 129<116 256 116 173>
VStem: 30 82<340.5 388> 295 91<93 152>
LayerCount: 2
Back
Fore
SplineSet
215 608 m 1xec
 298 681 l 1
 314 681 l 1xdc
 256 552 l 1
 173 552 l 1xec
 116 681 l 1
 130 681 l 1xdc
 215 608 l 1xec
25 189 m 1
 33 189 l 1
 59 103 138 28 220 28 c 0
 261 28 295 48 295 93 c 0
 295 211 30 153 30 351 c 0
 30 425 95 490 197 490 c 2
 307 490 l 1
 344 511 l 1
 344 345 l 1
 338 346 l 1
 302 411 232 458 178 458 c 0
 136 458 112 431 112 392 c 0
 112 289 386 334 386 151 c 0
 386 35 269 -10 190 -10 c 0
 140 -10 72 -3 34 13 c 1
 25 189 l 1
EndSplineSet
EndChar

StartChar: germandbls
Encoding: 223 223 151
Width: 584
Flags: MW
HStem: -4 34<396 431.5 396 442> 0 21G<20 214 20 20 264 264> 427 63<24 94> 470 20G<24 94 94 94 214 214> 661 34<247.5 300.5>
VStem: 94 120<86 427 427 427 0 510> 372 107<529.5 588> 479 80<115.5 155>
LayerCount: 2
Back
Fore
SplineSet
24 490 m 1x9d
 94 490 l 1
 94 530 154 695 312 695 c 0
 383 695 479 677 479 563 c 0x9e
 479 496 399 415 371 391 c 1
 434 349 559 293 559 168 c 0
 559 63 503 -4 381 -4 c 0x9d
 377 -4 317 -4 264 0 c 1x5d
 271 165 l 1
 282 165 l 1
 324 49 381 30 411 30 c 0
 452 30 479 53 479 111 c 0x9d
 479 199 306 301 265 315 c 1
 341 408 372 465 372 549 c 0
 372 627 324 661 277 661 c 0
 218 661 161 608 200 521 c 2
 214 490 l 1
 214 0 l 1
 20 0 l 1
 94 86 l 1
 94 427 l 1x6e
 24 490 l 1x9d
EndSplineSet
EndChar

StartChar: t
Encoding: 116 116 152
Width: 420
Flags: MW
HStem: -12 80<169.5 292> 436 54<196 366>
VStem: 76 120<142 190 190 427 427 427>
LayerCount: 2
Back
Fore
SplineSet
196 632 m 1
 196 490 l 1
 388 490 l 1
 366 436 l 1
 196 436 l 1
 196 190 l 2
 196 94 218 68 277 68 c 0
 307 68 353 83 375 126 c 1
 387 110 l 1
 339 29 285 -12 204 -12 c 0
 135 -12 76 28 76 142 c 2
 76 427 l 1
 10 490 l 1
 196 632 l 1
EndSplineSet
EndChar

StartChar: tcaron
Encoding: 357 357 153
Width: 540
Flags: MW
HStem: 470 20G<10 10 196 388 196 196> 490 79<349 349 349 388>
VStem: 417 93<624 731>
LayerCount: 2
Back
Fore
SplineSet
363 559 m 1xa0
 349 569 l 1
 383 588 417 605 417 643 c 0x60
 417 669 398 681 385 695 c 2
 346 726 l 1
 429 811 l 1
 462 791 510 748 510 714 c 0
 510 616 385 564 363 559 c 1xa0
76 427 m 1xa0
 76 142 l 2
 76 28 135 -12 204 -12 c 0
 285 -12 339 29 387 110 c 1
 375 126 l 1
 353 83 307 68 277 68 c 0
 218 68 196 94 196 190 c 2
 196 436 l 1
 366 436 l 1
 388 490 l 1
 196 490 l 1x60
 196 632 l 1
 10 490 l 1
 76 427 l 1xa0
EndSplineSet
EndChar

StartChar: u
Encoding: 117 117 154
Width: 591
Flags: MW
HStem: -10 68<249.5 265.5> -6 21G<383 383> 0 21G<571 571> 471 20G<5 200 200 200 309 503 503 503>
VStem: 80 120<150 184 184 404 404 404> 383 120<-6 491 74 491 105 404 404 404>
LayerCount: 2
Back
Fore
SplineSet
200 491 m 1x9c
 200 184 l 2
 200 107 211 58 288 58 c 0
 322 58 357 75 383 105 c 1x9c
 383 404 l 1
 309 491 l 1
 503 491 l 1
 503 82 l 1
 571 0 l 1x3c
 383 -6 l 1x5c
 383 74 l 1
 347 24 301 -10 230 -10 c 0
 128 -10 80 56 80 150 c 2
 80 404 l 1
 5 491 l 1
 200 491 l 1x9c
EndSplineSet
EndChar

StartChar: uacute
Encoding: 250 250 155
Width: 591
Flags: MW
HStem: -10 68<249.5 265.5> -6 21G<383 383> 0 21G<571 571> 471 20G<5 200 200 200 309 503 503 503> 552 129<255 399 255 399>
VStem: 80 120<150 184 184 404 404 404> 383 120<-6 491 74 491 105 404 404 404>
LayerCount: 2
Back
Fore
SplineSet
270 552 m 1x9e
 255 552 l 1
 273 681 l 1
 399 681 l 1
 270 552 l 1x9e
200 491 m 1
 200 184 l 2
 200 107 211 58 288 58 c 0
 322 58 357 75 383 105 c 1x9e
 383 404 l 1
 309 491 l 1
 503 491 l 1
 503 82 l 1
 571 0 l 1x3e
 383 -6 l 1x5e
 383 74 l 1
 347 24 301 -10 230 -10 c 0
 128 -10 80 56 80 150 c 2
 80 404 l 1
 5 491 l 1
 200 491 l 1
EndSplineSet
EndChar

StartChar: ucircumflex
Encoding: 251 251 156
Width: 591
Flags: MW
HStem: -10 68<249.5 265.5> -6 21G<383 383> 0 21G<571 571> 471 20G<5 200 200 200 309 503 503 503> 625 56<268 268>
VStem: 80 120<150 184 184 404 404 404> 383 120<-6 491 74 491 105 404 404 404>
LayerCount: 2
Back
Fore
SplineSet
169 552 m 1x9e
 226 681 l 1
 309 681 l 1
 367 552 l 1
 351 552 l 1
 268 625 l 1
 183 552 l 1
 169 552 l 1x9e
200 491 m 1
 200 184 l 2
 200 107 211 58 288 58 c 0
 322 58 357 75 383 105 c 1x9e
 383 404 l 1
 309 491 l 1
 503 491 l 1
 503 82 l 1
 571 0 l 1x3e
 383 -6 l 1x5e
 383 74 l 1
 347 24 301 -10 230 -10 c 0
 128 -10 80 56 80 150 c 2
 80 404 l 1
 5 491 l 1
 200 491 l 1
EndSplineSet
EndChar

StartChar: udieresis
Encoding: 252 252 157
Width: 591
Flags: MW
HStem: -10 68<249.5 265.5> -6 21G<383 383> 0 21G<571 571> 471 20G<5 200 200 200 309 503 503 503>
VStem: 80 120<150 184 184 404 404 404> 383 120<-6 491 74 491 105 404 404 404>
LayerCount: 2
Back
Fore
SplineSet
106 625 m 1x9c
 174 701 l 1
 241 625 l 1
 174 548 l 1
 106 625 l 1x9c
311 625 m 1
 379 701 l 1
 446 625 l 1
 379 548 l 1
 311 625 l 1
200 491 m 1
 200 184 l 2
 200 107 211 58 288 58 c 0
 322 58 357 75 383 105 c 1x9c
 383 404 l 1
 309 491 l 1
 503 491 l 1
 503 82 l 1
 571 0 l 1x3c
 383 -6 l 1x5c
 383 74 l 1
 347 24 301 -10 230 -10 c 0
 128 -10 80 56 80 150 c 2
 80 404 l 1
 5 491 l 1
 200 491 l 1
EndSplineSet
EndChar

StartChar: ugrave
Encoding: 249 249 158
Width: 591
Flags: MW
HStem: -10 68<249.5 265.5> -6 21G<383 383> 0 21G<571 571> 471 20G<5 200 200 200 309 503 503 503> 552 129<151 280 151 295>
VStem: 80 120<150 184 184 404 404 404> 383 120<-6 491 74 491 105 404 404 404>
LayerCount: 2
Back
Fore
SplineSet
280 552 m 1x9e
 151 681 l 1
 277 681 l 1
 295 552 l 1
 280 552 l 1x9e
200 491 m 1
 200 184 l 2
 200 107 211 58 288 58 c 0
 322 58 357 75 383 105 c 1x9e
 383 404 l 1
 309 491 l 1
 503 491 l 1
 503 82 l 1
 571 0 l 1x3e
 383 -6 l 1x5e
 383 74 l 1
 347 24 301 -10 230 -10 c 0
 128 -10 80 56 80 150 c 2
 80 404 l 1
 5 491 l 1
 200 491 l 1
EndSplineSet
EndChar

StartChar: uring
Encoding: 367 367 159
Width: 591
Flags: MW
HStem: -10 68<249.5 265.5> -6 21G<383 383> 0 21G<571 571> 471 20G<5 200 200 200 309 503 503 503> 546 28<263 297 263 304.5> 696 28<263 297>
VStem: 80 120<150 184 184 404 404 404> 191 28<618 652 618 659.5> 341 28<618 652> 383 120<-6 491 74 491 105 404 404 404>
LayerCount: 2
Back
Fore
SplineSet
191 635 m 0x00
 191 684 231 724 280 724 c 0
 329 724 369 684 369 635 c 0
 369 586 329 546 280 546 c 0
 231 546 191 586 191 635 c 0x00
219 635 m 0
 219 601 246 574 280 574 c 0
 314 574 341 601 341 635 c 0
 341 669 314 696 280 696 c 0
 246 696 219 669 219 635 c 0
200 491 m 1x9dc0
 200 184 l 2
 200 107 211 58 288 58 c 0
 322 58 357 75 383 105 c 1x3e40
 383 404 l 1
 309 491 l 1
 503 491 l 1
 503 82 l 1
 571 0 l 1x5e40
 383 -6 l 1x9e40
 383 74 l 1
 347 24 301 -10 230 -10 c 0
 128 -10 80 56 80 150 c 2
 80 404 l 1
 5 491 l 1
 200 491 l 1x9dc0
EndSplineSet
EndChar

StartChar: v
Encoding: 118 118 160
Width: 543
Flags: MW
HStem: 426 64<196 196 434 434>
VStem: 5 533<490 490>
LayerCount: 2
Back
Fore
SplineSet
361 490 m 1
 538 490 l 1
 482 427 l 1
 285 -14 l 1
 281 -22 l 1
 261 -22 l 1
 61 427 l 1
 5 490 l 1
 269 490 l 1
 196 426 l 1
 301 168 l 1
 313 134 l 1
 434 426 l 1
 361 490 l 1
EndSplineSet
EndChar

StartChar: w
Encoding: 119 119 161
Width: 823
Flags: MW
HStem: 426 64<192 192 498 498 722 722>
VStem: 0 828<490 490>
LayerCount: 2
Back
Fore
SplineSet
66 409 m 1
 0 490 l 1
 265 490 l 1
 192 426 l 1
 297 168 l 1
 309 134 l 1
 398 349 l 1
 372 409 l 1
 306 490 l 1
 570 490 l 1
 498 426 l 1
 602 168 l 1
 614 146 l 1
 722 426 l 1
 650 490 l 1
 828 490 l 1
 769 428 l 1
 584 -22 l 1
 562 -22 l 1
 420 300 l 1
 278 -22 l 1
 256 -22 l 1
 66 409 l 1
EndSplineSet
EndChar

StartChar: wacute
Encoding: 7811 7811 162
Width: 823
Flags: MW
HStem: 426 64<192 192 498 498 722 722> 552 129<400 544 400 544>
VStem: 0 828<490 490>
LayerCount: 2
Back
Fore
SplineSet
415 552 m 1
 400 552 l 1
 418 681 l 1
 544 681 l 1
 415 552 l 1
66 409 m 1
 0 490 l 1
 265 490 l 1
 192 426 l 1
 297 168 l 1
 309 134 l 1
 398 349 l 1
 372 409 l 1
 306 490 l 1
 570 490 l 1
 498 426 l 1
 602 168 l 1
 614 146 l 1
 722 426 l 1
 650 490 l 1
 828 490 l 1
 769 428 l 1
 584 -22 l 1
 562 -22 l 1
 420 300 l 1
 278 -22 l 1
 256 -22 l 1
 66 409 l 1
EndSplineSet
EndChar

StartChar: wcircumflex
Encoding: 373 373 163
Width: 823
Flags: MW
HStem: 426 64<192 192 498 498 722 722> 552 129<329 464 329 464 381 501 381 517>
VStem: 0 828<490 490>
LayerCount: 2
Back
Fore
SplineSet
329 552 m 1
 381 681 l 1
 464 681 l 1
 517 552 l 1
 501 552 l 1
 423 625 l 1
 343 552 l 1
 329 552 l 1
66 409 m 1
 0 490 l 1
 265 490 l 1
 192 426 l 1
 297 168 l 1
 309 134 l 1
 398 349 l 1
 372 409 l 1
 306 490 l 1
 570 490 l 1
 498 426 l 1
 602 168 l 1
 614 146 l 1
 722 426 l 1
 650 490 l 1
 828 490 l 1
 769 428 l 1
 584 -22 l 1
 562 -22 l 1
 420 300 l 1
 278 -22 l 1
 256 -22 l 1
 66 409 l 1
EndSplineSet
EndChar

StartChar: wdieresis
Encoding: 7813 7813 164
Width: 823
Flags: MW
HStem: 426 64<192 192 498 498 722 722> 678 20G<339 339 544 544>
VStem: 0 828<490 490>
LayerCount: 2
Back
Fore
SplineSet
271 622 m 1
 339 698 l 1
 406 622 l 1
 339 545 l 1
 271 622 l 1
476 622 m 1
 544 698 l 1
 611 622 l 1
 544 545 l 1
 476 622 l 1
66 409 m 1
 0 490 l 1
 265 490 l 1
 192 426 l 1
 297 168 l 1
 309 134 l 1
 398 349 l 1
 372 409 l 1
 306 490 l 1
 570 490 l 1
 498 426 l 1
 602 168 l 1
 614 146 l 1
 722 426 l 1
 650 490 l 1
 828 490 l 1
 769 428 l 1
 584 -22 l 1
 562 -22 l 1
 420 300 l 1
 278 -22 l 1
 256 -22 l 1
 66 409 l 1
EndSplineSet
EndChar

StartChar: wgrave
Encoding: 7809 7809 165
Width: 823
Flags: MW
HStem: 426 64<192 192 498 498 722 722> 552 129<332 461 332 476>
VStem: 0 828<490 490>
LayerCount: 2
Back
Fore
SplineSet
461 552 m 1
 332 681 l 1
 458 681 l 1
 476 552 l 1
 461 552 l 1
66 409 m 1
 0 490 l 1
 265 490 l 1
 192 426 l 1
 297 168 l 1
 309 134 l 1
 398 349 l 1
 372 409 l 1
 306 490 l 1
 570 490 l 1
 498 426 l 1
 602 168 l 1
 614 146 l 1
 722 426 l 1
 650 490 l 1
 828 490 l 1
 769 428 l 1
 584 -22 l 1
 562 -22 l 1
 420 300 l 1
 278 -22 l 1
 256 -22 l 1
 66 409 l 1
EndSplineSet
EndChar

StartChar: x
Encoding: 120 120 166
Width: 584
Flags: MW
HStem: 0 66<363 363 363 584 299 363> 426 64<225 225 401 401>
VStem: 5 579<0 0>
LayerCount: 2
Back
Fore
SplineSet
584 0 m 1
 299 0 l 1
 363 66 l 1
 265 195 l 1
 159 64 l 1
 214 0 l 1
 5 0 l 1
 94 63 l 1
 235 235 l 1
 89 427 l 1
 16 490 l 1
 289 490 l 1
 225 426 l 1
 312 312 l 1
 401 426 l 1
 346 490 l 1
 556 490 l 1
 467 427 l 1
 340 275 l 1
 500 65 l 1
 584 0 l 1
EndSplineSet
EndChar

StartChar: y
Encoding: 121 121 167
Width: 535
Flags: MW
HStem: -215 21G<100 315 100 100> 426 64<192 192 430 430>
VStem: 0 535<490 490>
LayerCount: 2
Back
Fore
SplineSet
0 490 m 1
 265 490 l 1
 192 426 l 1
 297 168 l 1
 309 134 l 1
 430 426 l 1
 357 490 l 1
 535 490 l 1
 476 428 l 1
 243 -129 l 1
 315 -215 l 1
 100 -215 l 1
 188 -125 l 1
 247 10 l 1
 66 409 l 1
 0 490 l 1
EndSplineSet
EndChar

StartChar: yacute
Encoding: 253 253 168
Width: 535
Flags: MW
HStem: -215 21G<100 316 100 100> 426 64<192 192 430 430> 552 129<279 423 279 423>
VStem: 0 535<490 490>
LayerCount: 2
Back
Fore
SplineSet
294 552 m 1
 279 552 l 1
 297 681 l 1
 423 681 l 1
 294 552 l 1
0 490 m 1
 265 490 l 1
 192 426 l 1
 297 168 l 1
 309 134 l 1
 430 426 l 1
 357 490 l 1
 535 490 l 1
 476 428 l 1
 244 -129 l 1
 316 -215 l 1
 100 -215 l 1
 188 -125 l 1
 247 10 l 1
 66 409 l 1
 0 490 l 1
EndSplineSet
EndChar

StartChar: ycircumflex
Encoding: 375 375 169
Width: 535
Flags: MW
HStem: -215 21G<100 315 100 100> 426 64<192 192 430 430> 625 56<305 305>
VStem: 0 535<490 490>
LayerCount: 2
Back
Fore
SplineSet
206 552 m 1
 263 681 l 1
 346 681 l 1
 404 552 l 1
 388 552 l 1
 305 625 l 1
 220 552 l 1
 206 552 l 1
0 490 m 1
 265 490 l 1
 192 426 l 1
 297 168 l 1
 309 134 l 1
 430 426 l 1
 357 490 l 1
 535 490 l 1
 476 428 l 1
 243 -129 l 1
 315 -215 l 1
 100 -215 l 1
 188 -125 l 1
 247 10 l 1
 66 409 l 1
 0 490 l 1
EndSplineSet
EndChar

StartChar: ydieresis
Encoding: 255 255 170
Width: 535
Flags: MW
HStem: -215 21G<100 316 100 100> 426 64<192 192 430 430> 678 20G<190 190 395 395>
VStem: 0 535<490 490>
LayerCount: 2
Back
Fore
SplineSet
122 622 m 1
 190 698 l 1
 257 622 l 1
 190 545 l 1
 122 622 l 1
327 622 m 1
 395 698 l 1
 462 622 l 1
 395 545 l 1
 327 622 l 1
0 490 m 1
 265 490 l 1
 192 426 l 1
 297 168 l 1
 309 134 l 1
 430 426 l 1
 357 490 l 1
 535 490 l 1
 476 428 l 1
 244 -129 l 1
 316 -215 l 1
 100 -215 l 1
 188 -125 l 1
 247 10 l 1
 66 409 l 1
 0 490 l 1
EndSplineSet
EndChar

StartChar: ygrave
Encoding: 7923 7923 171
Width: 535
Flags: MW
HStem: -215 21G<100 315 100 100> 426 64<192 192 430 430> 552 129<176 320 176 305>
VStem: 0 535<490 490>
LayerCount: 2
Back
Fore
SplineSet
320 552 m 1
 305 552 l 1
 176 681 l 1
 302 681 l 1
 320 552 l 1
0 490 m 1
 265 490 l 1
 192 426 l 1
 297 168 l 1
 309 134 l 1
 430 426 l 1
 357 490 l 1
 535 490 l 1
 476 428 l 1
 243 -129 l 1
 315 -215 l 1
 100 -215 l 1
 188 -125 l 1
 247 10 l 1
 66 409 l 1
 0 490 l 1
EndSplineSet
EndChar

StartChar: z
Encoding: 122 122 172
Width: 506
Flags: MW
HStem: 0 36<182 363 182 469> 454 36<166 321 166 166>
VStem: 61 105<454 454 454 508 454 508>
LayerCount: 2
Back
Fore
SplineSet
469 15 m 1
 469 0 l 1
 20 0 l 1
 321 454 l 1
 166 454 l 1
 67 304 l 1
 61 304 l 1
 61 508 l 1
 147 490 l 1
 483 490 l 1
 182 36 l 1
 363 36 l 1
 480 209 l 1
 486 207 l 1
 469 15 l 1
EndSplineSet
EndChar

StartChar: zacute
Encoding: 378 378 173
Width: 507
Flags: MW
HStem: 0 36<182 363 182 469> 454 36<166 321 166 166> 552 129<239 383 239 383>
VStem: 61 105<454 454 454 508 454 508>
LayerCount: 2
Back
Fore
SplineSet
254 552 m 1
 239 552 l 1
 257 681 l 1
 383 681 l 1
 254 552 l 1
182 36 m 1
 363 36 l 1
 487 216 l 1
 469 15 l 1
 469 0 l 1
 20 0 l 1
 321 454 l 1
 166 454 l 1
 61 296 l 1
 61 508 l 1
 147 490 l 1
 483 490 l 1
 182 36 l 1
EndSplineSet
EndChar

StartChar: zcaron
Encoding: 382 382 174
Width: 507
Flags: MW
HStem: 0 36<182 363 182 469> 454 36<166 321 166 166> 552 56<271 271 271 312 229 271> 552 129<172 312 172 229>
VStem: 61 105<454 454 454 508 454 508>
LayerCount: 2
Back
Fore
SplineSet
271 608 m 1xe8
 354 681 l 1
 370 681 l 1xd8
 312 552 l 1
 229 552 l 1xe8
 172 681 l 1
 186 681 l 1xd8
 271 608 l 1xe8
182 36 m 1
 363 36 l 1
 487 216 l 1
 469 15 l 1
 469 0 l 1
 20 0 l 1
 321 454 l 1
 166 454 l 1
 61 296 l 1
 61 508 l 1
 147 490 l 1
 483 490 l 1
 182 36 l 1
EndSplineSet
EndChar

StartChar: zdotaccent
Encoding: 380 380 175
Width: 507
Flags: MW
HStem: 0 36<182 363 182 469> 454 36<166 321 166 166>
VStem: 61 105<454 454 454 508 454 508>
LayerCount: 2
Back
Fore
SplineSet
199 625 m 1
 270 705 l 1
 340 625 l 1
 270 544 l 1
 199 625 l 1
182 36 m 1
 363 36 l 1
 487 216 l 1
 469 15 l 1
 469 0 l 1
 20 0 l 1
 321 454 l 1
 166 454 l 1
 61 296 l 1
 61 508 l 1
 147 490 l 1
 483 490 l 1
 182 36 l 1
EndSplineSet
EndChar

StartChar: r.ss01
Encoding: 65537 -1 176
Width: 415
Flags: MW
HStem: 0 80<94 94 20 94> 480 20G<214 214> 481 20G<400 400>
VStem: 94 120<80 356 356 356> 393 7<328 501>
LayerCount: 2
Back
Fore
SplineSet
214 500 m 1x00
 214 414 l 1xb8
 254 448 307 488 400 501 c 1xd8
 400 328 l 1
 393 328 l 1
 366 381 322 410 282 410 c 0
 254 410 229 395 214 370 c 1
 214 80 l 1
 300 0 l 1
 20 0 l 1
 94 80 l 1
 94 356 l 1
 26 433 l 1
 214 500 l 1x00
EndSplineSet
EndChar

StartChar: racute.ss01
Encoding: 65538 -1 177
Width: 421
Flags: MW
HStem: 0 80<94 94 20 94> 480 20G<214 214> 481 20G<398 398> 552 129<200 344 200 344>
VStem: 94 120<80 356 356 356> 391 7<328 501>
LayerCount: 2
Back
Fore
SplineSet
200 552 m 1xbc
 218 681 l 1
 344 681 l 1
 215 552 l 1
 200 552 l 1xbc
214 500 m 1xdc
 214 406 l 1xdc
 254 448 305 488 398 501 c 1xbc
 398 328 l 1
 391 328 l 1
 366 376 328 410 292 410 c 0
 257 410 226 389 214 362 c 1
 214 80 l 1
 300 0 l 1
 20 0 l 1
 94 80 l 1
 94 356 l 1
 26 433 l 1
 214 500 l 1xdc
EndSplineSet
EndChar

StartChar: rcaron.ss01
Encoding: 65539 -1 178
Width: 421
Flags: MW
HStem: 0 80<94 94 20 94> 480 20G<214 214> 481 20G<398 398> 552 56<231 231 231 272 189 231> 552 129<132 272 132 189>
VStem: 94 120<80 356 356 356> 391 7<328 501>
LayerCount: 2
Back
Fore
SplineSet
132 681 m 1x00
 146 681 l 1xb6
 231 608 l 1xae
 314 681 l 1
 330 681 l 1xb6
 272 552 l 1
 189 552 l 1xae
 132 681 l 1x00
214 500 m 1
 214 406 l 1xb6
 254 448 305 488 398 501 c 1xce
 398 328 l 1
 391 328 l 1
 366 376 328 410 292 410 c 0
 257 410 226 389 214 362 c 1
 214 80 l 1
 300 0 l 1
 20 0 l 1
 94 80 l 1
 94 356 l 1
 26 433 l 1
 214 500 l 1
EndSplineSet
EndChar

StartChar: f_f
Encoding: 65540 -1 179
Width: 678
Flags: MW
HStem: 0 85<526 526 526 620> 436 54<209 406 526 696> 660 35<238.5 390>
VStem: 89 120<86 427 427 427> 94 97<490 601> 383 7<559 695> 406 120<86 436 85 436> 411 97<490 601> 700 7<559 695>
LayerCount: 2
Back
Fore
SplineSet
526 436 m 1xf280
 526 85 l 1
 620 0 l 1
 332 0 l 1
 406 86 l 1
 406 436 l 1
 209 436 l 1
 209 77 l 1
 285 0 l 1
 15 0 l 1
 89 86 l 1
 89 427 l 1
 19 490 l 1xf280
 94 490 l 1
 94 530 149 695 307 695 c 2
 390 695 l 1
 390 559 l 1
 383 559 l 1xee80
 364 600 328 660 268 660 c 0
 209 660 191 623 191 579 c 0
 191 549 199 516 209 490 c 1
 411 490 l 1xf180
 411 530 466 695 624 695 c 2
 707 695 l 1
 707 559 l 1
 700 559 l 1
 681 600 645 660 585 660 c 0
 526 660 508 623 508 579 c 0
 508 549 516 516 526 490 c 1
 718 490 l 1
 696 436 l 1
 526 436 l 1xf280
EndSplineSet
Ligature2: "sous-table 'liga' Ligatures standard dans Grec lookup 26" f f
Ligature2: "sous-table 'liga' Ligatures standard dans '    ' lookup 25" f f
Ligature2: "sous-table 'liga' Ligatures standard dans Latin lookup 24" f f
EndChar

StartChar: f_f_l
Encoding: 65541 -1 180
Width: 933
Flags: MW
HStem: 0 21G<15 281 15 15 342 590 342 342 649 649 649 913> 436 54<209 406 526 718> 660 35<238.5 390>
VStem: 89 120<85 427 427 427> 94 97<490 601> 383 7<559 695> 406 120<86 436 84 436> 411 97<490 601> 719 120<86 436 436 436 488 588 588 588>
LayerCount: 2
Back
Fore
SplineSet
719 86 m 1xf280
 719 436 l 1
 526 436 l 1
 526 84 l 1
 590 0 l 1
 342 0 l 1
 406 86 l 1
 406 436 l 1
 209 436 l 1
 209 85 l 1
 281 0 l 1
 15 0 l 1
 89 85 l 1
 89 427 l 1
 19 490 l 1xf280
 94 490 l 1
 94 530 149 695 307 695 c 2
 390 695 l 1
 390 559 l 1
 383 559 l 1xee80
 364 600 328 660 268 660 c 0
 209 660 191 623 191 579 c 0
 191 549 199 516 209 490 c 1
 411 490 l 1xf180
 411 530 466 695 624 695 c 2
 807 695 l 1
 839 710 l 1
 839 86 l 1
 913 0 l 1
 649 0 l 1
 719 86 l 1xf280
719 488 m 1
 719 588 l 1
 688 625 643 660 585 660 c 0
 526 660 508 623 508 579 c 0
 508 549 516 516 526 490 c 1
 718 490 l 1
 719 488 l 1
EndSplineSet
Ligature2: "sous-table 'liga' Ligatures standard dans Grec lookup 26" f f l
Ligature2: "sous-table 'liga' Ligatures standard dans '    ' lookup 25" f f l
Ligature2: "sous-table 'liga' Ligatures standard dans Latin lookup 24" f f l
EndChar

StartChar: uni0066006C
Encoding: 64258 64258 181
Width: 616
Flags: MW
HStem: 0 21G<15 273 15 15 332 596 332 332> 436 54<209 401> 660 35<238.5 490>
VStem: 89 120<86 427 427 427> 94 97<490 601> 402 120<86 436 436 436 488 588 588 588>
LayerCount: 2
Back
Fore
SplineSet
522 86 m 1xf4
 596 0 l 1
 332 0 l 1
 402 86 l 1
 402 436 l 1
 209 436 l 1
 209 84 l 1
 273 0 l 1
 15 0 l 1
 89 86 l 1
 89 427 l 1
 19 490 l 1xf4
 94 490 l 1xec
 94 530 149 695 307 695 c 2
 490 695 l 1
 522 710 l 1
 522 86 l 1xf4
402 488 m 1
 402 588 l 1
 371 625 326 660 268 660 c 0
 209 660 191 623 191 579 c 0
 191 549 199 516 209 490 c 1
 401 490 l 1
 402 488 l 1
EndSplineSet
Ligature2: "sous-table 'liga' Ligatures standard dans Grec lookup 26" f l
Ligature2: "sous-table 'liga' Ligatures standard dans '    ' lookup 25" f l
Ligature2: "sous-table 'liga' Ligatures standard dans Latin lookup 24" f l
EndChar

StartChar: Lambda
Encoding: 923 923 182
Width: 683
Flags: MW
HStem: 0 61<485 485 485 678>
VStem: 5 673<0 0>
LayerCount: 2
Back
Fore
SplineSet
298 547 m 1
 129 86 l 1
 214 0 l 1
 5 0 l 1
 75 89 l 1
 314 705 l 1
 362 705 l 1
 626 59 l 1
 678 0 l 1
 405 0 l 1
 485 61 l 1
 311 500 l 1
 298 547 l 1
EndSplineSet
Position2: "sous-table 'cpsp' Chasses pour composition en capitales dans Grec lookup 2" dx=5 dy=0 dh=10 dv=0
Position2: "sous-table 'cpsp' Chasses pour composition en capitales dans '    ' lookup 1" dx=5 dy=0 dh=10 dv=0
Position2: "sous-table 'cpsp' Chasses pour composition en capitales dans Latin lookup 0" dx=5 dy=0 dh=10 dv=0
EndChar

StartChar: mu
Encoding: 956 956 183
Width: 591
Flags: MW
HStem: -214 21G<6 200 6 6> -10 68<249.5 265.5> -6 21G<383 383> -3 21G<194 194> 0 21G<571 571> 471 20G<5 200 200 200 309 503 503 503>
VStem: 80 120<-128 -31 145.5 184 184 404 404 404> 383 120<-6 491 74 491 105 404 404 404>
LayerCount: 2
Back
Fore
SplineSet
383 -6 m 1x00
 383 74 l 1
 347 24 301 -10 230 -10 c 0x97
 219 -10 209 -9 194 -3 c 1
 200 -31 l 1xc7
 200 -214 l 1
 6 -214 l 1
 80 -128 l 1
 80 404 l 1
 5 491 l 1
 200 491 l 1
 200 184 l 2
 200 107 211 58 288 58 c 0
 322 58 357 75 383 105 c 1x8f
 383 404 l 1
 309 491 l 1
 503 491 l 1
 503 82 l 1
 571 0 l 1xa7
 383 -6 l 1x00
EndSplineSet
EndChar

StartChar: pi
Encoding: 960 960 184
Width: 639
Flags: MW
HStem: -11 65<429.5 538.5> 0 53<136 136 136 228> 378 112<111.5 571 136 571 228 357 228 228 477 477 477 571>
VStem: 140 87 356 120
LayerCount: 2
Back
Fore
SplineSet
588 84 m 1x00
 598 72 l 1
 558 19 526 -11 461 -11 c 0x78
 398 -11 357 23 357 114 c 2
 357 378 l 1
 228 378 l 1
 228 0 l 1
 52 0 l 1
 136 53 l 1xb8
 145 378 l 1
 136 378 l 2
 87 378 61 363 32 308 c 1
 25 308 l 1
 31 338 l 2
 58 467 79 490 169 490 c 2
 571 490 l 1
 571 378 l 1
 477 378 l 1
 477 134 l 2
 477 72 497 54 523 54 c 0
 554 54 573 67 588 84 c 1x00
EndSplineSet
EndChar

StartChar: zero
Encoding: 48 48 185
Width: 561
Flags: MW
HStem: -14 45<264.5 340.5 264.5 342.5> 557 45<218.5 297.5>
VStem: 40 125<283.5 345.5> 398 123<242.5 304.5>
LayerCount: 2
Back
Fore
SplineSet
521 320 m 0
 521 165 432 -14 253 -14 c 0
 116 -14 40 124 40 268 c 0
 40 423 129 602 308 602 c 0
 446 602 521 464 521 320 c 0
256 557 m 0
 178 557 165 449 165 377 c 0
 165 190 223 31 306 31 c 0
 375 31 398 149 398 211 c 0
 398 398 339 557 256 557 c 0
EndSplineSet
Substitution2: "sous-table 'zero' Z+AOkA-ro barr+AOkA dans Grec lookup 29" zero.zero
Substitution2: "sous-table 'zero' Z+AOkA-ro barr+AOkA dans '    ' lookup 28" zero.zero
Substitution2: "sous-table 'zero' Z+AOkA-ro barr+AOkA dans Latin lookup 27" zero.zero
Substitution2: "sous-table 'onum' Chiffres +AOAA l'ancienne dans Grec lookup 20" zero.osf
Substitution2: "sous-table 'onum' Chiffres +AOAA l'ancienne dans '    ' lookup 19" zero.osf
Substitution2: "sous-table 'onum' Chiffres +AOAA l'ancienne dans Latin lookup 18" zero.osf
Substitution2: "sous-table 'frac' Fractions lookups13" zero.numr
Substitution2: "sous-table 'dnom' D+AOkA-nominateurs dans Grec lookup 11" zero.dnom
Substitution2: "sous-table 'dnom' D+AOkA-nominateurs dans '    ' lookup 10" zero.dnom
Substitution2: "sous-table 'dnom' D+AOkA-nominateurs dans Latin lookup 9" zero.dnom
Substitution2: "sous-table 'numr' Num+AOkA-rateurs dans Grec lookup 8" zero.numr
Substitution2: "sous-table 'numr' Num+AOkA-rateurs dans '    ' lookup 7" zero.numr
Substitution2: "sous-table 'numr' Num+AOkA-rateurs dans Latin lookup 6" zero.numr
Substitution2: "sous-table 'sups' Exposant dans Grec lookup 5" zerosuperior
Substitution2: "sous-table 'sups' Exposant dans '    ' lookup 4" zerosuperior
Substitution2: "sous-table 'sups' Exposant dans Latin lookup 3" zerosuperior
AlternateSubs2: "sous-table 'aalt' Activer toutes les variantes dans Latin lookup 1" zerosuperior zero.numr zero.dnom zero.osf zero.zero
EndChar

StartChar: one
Encoding: 49 49 186
Width: 382
Flags: MW
HStem: 0 66<133 133> 587 20G<253 253>
VStem: 133 120<66 420 420 420>
LayerCount: 2
Back
Fore
SplineSet
36 384 m 1
 35 386 l 1
 253 607 l 1
 253 66 l 1
 347 0 l 1
 44 0 l 1
 133 66 l 1
 133 420 l 1
 36 384 l 1
EndSplineSet
Substitution2: "sous-table 'onum' Chiffres +AOAA l'ancienne dans Grec lookup 20" one.osf
Substitution2: "sous-table 'onum' Chiffres +AOAA l'ancienne dans '    ' lookup 19" one.osf
Substitution2: "sous-table 'onum' Chiffres +AOAA l'ancienne dans Latin lookup 18" one.osf
Substitution2: "sous-table 'frac' Fractions lookups13" one.numr
Substitution2: "sous-table 'dnom' D+AOkA-nominateurs dans Grec lookup 11" one.dnom
Substitution2: "sous-table 'dnom' D+AOkA-nominateurs dans '    ' lookup 10" one.dnom
Substitution2: "sous-table 'dnom' D+AOkA-nominateurs dans Latin lookup 9" one.dnom
Substitution2: "sous-table 'numr' Num+AOkA-rateurs dans Grec lookup 8" one.numr
Substitution2: "sous-table 'numr' Num+AOkA-rateurs dans '    ' lookup 7" one.numr
Substitution2: "sous-table 'numr' Num+AOkA-rateurs dans Latin lookup 6" one.numr
Substitution2: "sous-table 'sups' Exposant dans Grec lookup 5" onesuperior
Substitution2: "sous-table 'sups' Exposant dans '    ' lookup 4" onesuperior
Substitution2: "sous-table 'sups' Exposant dans Latin lookup 3" onesuperior
AlternateSubs2: "sous-table 'aalt' Activer toutes les variantes dans Latin lookup 1" onesuperior one.numr one.dnom one.osf
EndChar

StartChar: two
Encoding: 50 50 187
Width: 528
Flags: MW
HStem: 0 117 567 27
VStem: 309 136<369.5 490>
LayerCount: 2
Back
Fore
SplineSet
43 0 m 1
 35 33 l 1
 119 99 309 277 309 458 c 0
 309 522 268 568 199 568 c 0
 128 568 88 512 53 422 c 1
 48 422 l 1
 48 595 l 1
 184 595 l 2
 318 595 445 546 445 440 c 0
 445 299 245 216 159 116 c 1
 161 111 l 1
 223 116 l 1
 426 119 l 1
 484 240 l 1
 488 240 l 1
 467 0 l 1
 43 0 l 1
EndSplineSet
Substitution2: "sous-table 'onum' Chiffres +AOAA l'ancienne dans Grec lookup 20" two.osf
Substitution2: "sous-table 'onum' Chiffres +AOAA l'ancienne dans '    ' lookup 19" two.osf
Substitution2: "sous-table 'onum' Chiffres +AOAA l'ancienne dans Latin lookup 18" two.osf
Substitution2: "sous-table 'frac' Fractions lookups13" two.numr
Substitution2: "sous-table 'dnom' D+AOkA-nominateurs dans Grec lookup 11" two.dnom
Substitution2: "sous-table 'dnom' D+AOkA-nominateurs dans '    ' lookup 10" two.dnom
Substitution2: "sous-table 'dnom' D+AOkA-nominateurs dans Latin lookup 9" two.dnom
Substitution2: "sous-table 'numr' Num+AOkA-rateurs dans Grec lookup 8" two.numr
Substitution2: "sous-table 'numr' Num+AOkA-rateurs dans '    ' lookup 7" two.numr
Substitution2: "sous-table 'numr' Num+AOkA-rateurs dans Latin lookup 6" two.numr
Substitution2: "sous-table 'sups' Exposant dans Grec lookup 5" twosuperior
Substitution2: "sous-table 'sups' Exposant dans '    ' lookup 4" twosuperior
Substitution2: "sous-table 'sups' Exposant dans Latin lookup 3" twosuperior
AlternateSubs2: "sous-table 'aalt' Activer toutes les variantes dans Latin lookup 1" twosuperior two.numr two.dnom two.osf
EndChar

StartChar: three
Encoding: 51 51 188
Width: 502
Flags: MW
HStem: -16 25<43 85.5 35 96.5> 567 28<153 203 203 227>
VStem: 299 158<114 196> 312 136<441.5 493>
LayerCount: 2
Back
Fore
SplineSet
43 -16 m 1xe0
 35 9 l 1
 136 9 299 46 299 152 c 0xe0
 299 240 223 273 130 291 c 0
 120 289 110 286 99 284 c 1
 97 301 l 1
 130 313 l 2
 195 336 312 375 312 461 c 0
 312 525 264 567 190 567 c 0
 116 567 83 497 54 425 c 1
 49 425 l 1
 49 595 l 1
 203 595 l 2
 335 595 448 565 448 475 c 0xd0
 448 408 375 362 216 319 c 1
 323 310 457 282 457 186 c 0
 457 42 150 -16 43 -16 c 1xe0
EndSplineSet
Substitution2: "sous-table 'onum' Chiffres +AOAA l'ancienne dans Grec lookup 20" three.osf
Substitution2: "sous-table 'onum' Chiffres +AOAA l'ancienne dans '    ' lookup 19" three.osf
Substitution2: "sous-table 'onum' Chiffres +AOAA l'ancienne dans Latin lookup 18" three.osf
Substitution2: "sous-table 'frac' Fractions lookups13" three.numr
Substitution2: "sous-table 'dnom' D+AOkA-nominateurs dans Grec lookup 11" three.dnom
Substitution2: "sous-table 'dnom' D+AOkA-nominateurs dans '    ' lookup 10" three.dnom
Substitution2: "sous-table 'dnom' D+AOkA-nominateurs dans Latin lookup 9" three.dnom
Substitution2: "sous-table 'numr' Num+AOkA-rateurs dans Grec lookup 8" three.numr
Substitution2: "sous-table 'numr' Num+AOkA-rateurs dans '    ' lookup 7" three.numr
Substitution2: "sous-table 'numr' Num+AOkA-rateurs dans Latin lookup 6" three.numr
Substitution2: "sous-table 'sups' Exposant dans Grec lookup 5" threesuperior
Substitution2: "sous-table 'sups' Exposant dans '    ' lookup 4" threesuperior
Substitution2: "sous-table 'sups' Exposant dans Latin lookup 3" threesuperior
AlternateSubs2: "sous-table 'aalt' Activer toutes les variantes dans Latin lookup 1" threesuperior three.numr three.dnom three.osf
EndChar

StartChar: four
Encoding: 52 52 189
Width: 568
Flags: MW
HStem: 0 193<400 494> 149 45<138 278 138 279> 575 20G<276 422 422 422>
VStem: 278 122<194 274 274 274>
LayerCount: 2
Back
Fore
SplineSet
400 193 m 1xb0
 528 193 l 1xb0
 528 148 l 1
 400 148 l 1
 400 66 l 1x70
 494 0 l 1
 191 0 l 1
 279 66 l 1xb0
 279 149 l 1
 35 149 l 1
 276 595 l 1
 422 595 l 1
 138 194 l 1
 278 194 l 1
 278 274 l 1x70
 400 452 l 1
 400 193 l 1xb0
EndSplineSet
Substitution2: "sous-table 'onum' Chiffres +AOAA l'ancienne dans Grec lookup 20" four.osf
Substitution2: "sous-table 'onum' Chiffres +AOAA l'ancienne dans '    ' lookup 19" four.osf
Substitution2: "sous-table 'onum' Chiffres +AOAA l'ancienne dans Latin lookup 18" four.osf
Substitution2: "sous-table 'frac' Fractions lookups13" four.numr
Substitution2: "sous-table 'dnom' D+AOkA-nominateurs dans Grec lookup 11" four.dnom
Substitution2: "sous-table 'dnom' D+AOkA-nominateurs dans '    ' lookup 10" four.dnom
Substitution2: "sous-table 'dnom' D+AOkA-nominateurs dans Latin lookup 9" four.dnom
Substitution2: "sous-table 'numr' Num+AOkA-rateurs dans Grec lookup 8" four.numr
Substitution2: "sous-table 'numr' Num+AOkA-rateurs dans '    ' lookup 7" four.numr
Substitution2: "sous-table 'numr' Num+AOkA-rateurs dans Latin lookup 6" four.numr
Substitution2: "sous-table 'sups' Exposant dans Grec lookup 5" foursuperior
Substitution2: "sous-table 'sups' Exposant dans '    ' lookup 4" foursuperior
Substitution2: "sous-table 'sups' Exposant dans Latin lookup 3" foursuperior
AlternateSubs2: "sous-table 'aalt' Activer toutes les variantes dans Latin lookup 1" foursuperior four.numr four.dnom four.osf
EndChar

StartChar: five
Encoding: 53 53 190
Width: 481
Flags: MW
HStem: 1 28<40 247> 357 40<222.5 253> 476 120<119 377 93 399 119 119>
VStem: 40 11 314 122<142 211>
LayerCount: 2
Back
Fore
SplineSet
99 354 m 1
 138 375 l 2
 173 390 207 397 238 397 c 0
 334 397 436 327 436 213 c 0
 436 71 328 1 160 1 c 2
 40 1 l 1
 40 1 43 106 44 173 c 1
 51 173 l 1
 51 173 112 29 216 29 c 0
 278 29 314 57 314 173 c 0
 314 249 304 357 202 357 c 0
 175 357 135 342 94 320 c 1
 90 320 l 1
 85 293 l 1
 50 293 l 1
 92 586 l 1
 93 596 l 1
 377 596 l 1
 436 647 l 1
 425 596 l 1
 399 476 l 1
 119 476 l 1
 99 354 l 1
EndSplineSet
Substitution2: "sous-table 'onum' Chiffres +AOAA l'ancienne dans Grec lookup 20" five.osf
Substitution2: "sous-table 'onum' Chiffres +AOAA l'ancienne dans '    ' lookup 19" five.osf
Substitution2: "sous-table 'onum' Chiffres +AOAA l'ancienne dans Latin lookup 18" five.osf
Substitution2: "sous-table 'frac' Fractions lookups13" five.numr
Substitution2: "sous-table 'dnom' D+AOkA-nominateurs dans Grec lookup 11" five.dnom
Substitution2: "sous-table 'dnom' D+AOkA-nominateurs dans '    ' lookup 10" five.dnom
Substitution2: "sous-table 'dnom' D+AOkA-nominateurs dans Latin lookup 9" five.dnom
Substitution2: "sous-table 'numr' Num+AOkA-rateurs dans Grec lookup 8" five.numr
Substitution2: "sous-table 'numr' Num+AOkA-rateurs dans '    ' lookup 7" five.numr
Substitution2: "sous-table 'numr' Num+AOkA-rateurs dans Latin lookup 6" five.numr
Substitution2: "sous-table 'sups' Exposant dans Grec lookup 5" fivesuperior
Substitution2: "sous-table 'sups' Exposant dans '    ' lookup 4" fivesuperior
Substitution2: "sous-table 'sups' Exposant dans Latin lookup 3" fivesuperior
AlternateSubs2: "sous-table 'aalt' Activer toutes les variantes dans Latin lookup 1" fivesuperior five.numr five.dnom five.osf
EndChar

StartChar: six
Encoding: 54 54 191
Width: 508
Flags: MW
HStem: -12 30<226.5 292 226.5 309.5> 320 41<222.5 333.5> 583 20G<431 431>
VStem: 40 121<137 210.5 137 275> 345 118<140 214.5>
LayerCount: 2
Back
Fore
SplineSet
431 603 m 1
 437 584 l 1
 308 526 213 449 177 319 c 1
 206 338 249 361 286 361 c 0
 381 361 463 299 463 184 c 0
 463 94 380 -12 239 -12 c 0
 127 -12 40 63 40 173 c 0
 40 377 217 520 431 603 c 1
171 294 m 1
 164 263 161 229 161 192 c 0
 161 82 194 18 259 18 c 0
 325 18 345 117 345 163 c 0
 345 266 285 320 237 320 c 0
 208 320 193 314 171 294 c 1
EndSplineSet
Substitution2: "sous-table 'onum' Chiffres +AOAA l'ancienne dans Grec lookup 20" six.osf
Substitution2: "sous-table 'onum' Chiffres +AOAA l'ancienne dans '    ' lookup 19" six.osf
Substitution2: "sous-table 'onum' Chiffres +AOAA l'ancienne dans Latin lookup 18" six.osf
Substitution2: "sous-table 'frac' Fractions lookups13" six.numr
Substitution2: "sous-table 'dnom' D+AOkA-nominateurs dans Grec lookup 11" six.dnom
Substitution2: "sous-table 'dnom' D+AOkA-nominateurs dans '    ' lookup 10" six.dnom
Substitution2: "sous-table 'dnom' D+AOkA-nominateurs dans Latin lookup 9" six.dnom
Substitution2: "sous-table 'numr' Num+AOkA-rateurs dans Grec lookup 8" six.numr
Substitution2: "sous-table 'numr' Num+AOkA-rateurs dans '    ' lookup 7" six.numr
Substitution2: "sous-table 'numr' Num+AOkA-rateurs dans Latin lookup 6" six.numr
Substitution2: "sous-table 'sups' Exposant dans Grec lookup 5" sixsuperior
Substitution2: "sous-table 'sups' Exposant dans '    ' lookup 4" sixsuperior
Substitution2: "sous-table 'sups' Exposant dans Latin lookup 3" sixsuperior
AlternateSubs2: "sous-table 'aalt' Activer toutes les variantes dans Latin lookup 1" sixsuperior six.numr six.dnom six.osf
EndChar

StartChar: seven
Encoding: 55 55 192
Width: 483
Flags: MW
HStem: 475 120<88 343 88 88>
VStem: 35 53<475 475 475 595>
LayerCount: 2
Back
Fore
SplineSet
38 402 m 1
 35 402 l 1
 35 595 l 1
 463 595 l 1
 119 -40 l 1
 85 -24 l 1
 343 475 l 1
 88 475 l 1
 38 402 l 1
EndSplineSet
Substitution2: "sous-table 'onum' Chiffres +AOAA l'ancienne dans Grec lookup 20" seven.osf
Substitution2: "sous-table 'onum' Chiffres +AOAA l'ancienne dans '    ' lookup 19" seven.osf
Substitution2: "sous-table 'onum' Chiffres +AOAA l'ancienne dans Latin lookup 18" seven.osf
Substitution2: "sous-table 'frac' Fractions lookups13" seven.numr
Substitution2: "sous-table 'dnom' D+AOkA-nominateurs dans Grec lookup 11" seven.dnom
Substitution2: "sous-table 'dnom' D+AOkA-nominateurs dans '    ' lookup 10" seven.dnom
Substitution2: "sous-table 'dnom' D+AOkA-nominateurs dans Latin lookup 9" seven.dnom
Substitution2: "sous-table 'numr' Num+AOkA-rateurs dans Grec lookup 8" seven.numr
Substitution2: "sous-table 'numr' Num+AOkA-rateurs dans '    ' lookup 7" seven.numr
Substitution2: "sous-table 'numr' Num+AOkA-rateurs dans Latin lookup 6" seven.numr
Substitution2: "sous-table 'sups' Exposant dans Grec lookup 5" sevensuperior
Substitution2: "sous-table 'sups' Exposant dans '    ' lookup 4" sevensuperior
Substitution2: "sous-table 'sups' Exposant dans Latin lookup 3" sevensuperior
AlternateSubs2: "sous-table 'aalt' Activer toutes les variantes dans Latin lookup 1" sevensuperior seven.numr seven.dnom seven.osf
EndChar

StartChar: eight
Encoding: 56 56 193
Width: 495
Flags: MW
HStem: -15 625<215.5 266>
VStem: 89 271<104 169> 149 217<456.5 517 455 520.5>
LayerCount: 2
Back
Fore
SplineSet
262 610 m 0x00
 331 610 419 574 419 490 c 0
 419 426 375 388 325 357 c 1
 391 313 457 269 457 173 c 0
 457 32 307 -15 225 -15 c 0
 117 -15 36 44 36 131 c 0
 36 224 109 263 159 294 c 1
 108 338 60 372 60 453 c 0
 60 564 169 610 262 610 c 0x00
302 368 m 1
 347 397 366 432 366 478 c 0
 366 556 316 585 253 585 c 0
 201 585 149 554 149 487 c 0
 149 426 228 403 302 368 c 1
187 281 m 1
 141 255 89 203 89 135 c 0
 89 73 128 10 226 10 c 0
 302 10 360 48 360 125 c 0
 360 224 271 246 187 281 c 1
EndSplineSet
Substitution2: "sous-table 'onum' Chiffres +AOAA l'ancienne dans Grec lookup 20" eight.osf
Substitution2: "sous-table 'onum' Chiffres +AOAA l'ancienne dans '    ' lookup 19" eight.osf
Substitution2: "sous-table 'onum' Chiffres +AOAA l'ancienne dans Latin lookup 18" eight.osf
Substitution2: "sous-table 'frac' Fractions lookups13" eight.numr
Substitution2: "sous-table 'dnom' D+AOkA-nominateurs dans Grec lookup 11" eight.dnom
Substitution2: "sous-table 'dnom' D+AOkA-nominateurs dans '    ' lookup 10" eight.dnom
Substitution2: "sous-table 'dnom' D+AOkA-nominateurs dans Latin lookup 9" eight.dnom
Substitution2: "sous-table 'numr' Num+AOkA-rateurs dans Grec lookup 8" eight.numr
Substitution2: "sous-table 'numr' Num+AOkA-rateurs dans '    ' lookup 7" eight.numr
Substitution2: "sous-table 'numr' Num+AOkA-rateurs dans Latin lookup 6" eight.numr
Substitution2: "sous-table 'sups' Exposant dans Grec lookup 5" eightsuperior
Substitution2: "sous-table 'sups' Exposant dans '    ' lookup 4" eightsuperior
Substitution2: "sous-table 'sups' Exposant dans Latin lookup 3" eightsuperior
AlternateSubs2: "sous-table 'aalt' Activer toutes les variantes dans Latin lookup 1" eightsuperior eight.numr eight.dnom eight.osf
EndChar

StartChar: nine
Encoding: 57 57 194
Width: 503
Flags: MW
HStem: -10 21G<72 72> 233 41<169.5 280.5> 576 30<211 276.5>
VStem: 40 118<379 453 379 455> 342 121<382.5 456.5>
LayerCount: 2
Back
Fore
SplineSet
66 10 m 1
 195 67 290 144 326 275 c 1
 294 251 254 233 217 233 c 0
 122 233 40 295 40 410 c 0
 40 500 123 606 264 606 c 0
 376 606 463 540 463 430 c 0
 463 226 285 74 72 -10 c 1
 72 -10 68 2 66 10 c 1
332 299 m 1
 338 330 342 364 342 401 c 0
 342 512 309 576 244 576 c 0
 178 576 158 476 158 430 c 0
 158 328 218 274 266 274 c 0
 295 274 310 279 332 299 c 1
EndSplineSet
Substitution2: "sous-table 'onum' Chiffres +AOAA l'ancienne dans Grec lookup 20" nine.osf
Substitution2: "sous-table 'onum' Chiffres +AOAA l'ancienne dans '    ' lookup 19" nine.osf
Substitution2: "sous-table 'onum' Chiffres +AOAA l'ancienne dans Latin lookup 18" nine.osf
Substitution2: "sous-table 'frac' Fractions lookups13" nine.numr
Substitution2: "sous-table 'dnom' D+AOkA-nominateurs dans Grec lookup 11" nine.dnom
Substitution2: "sous-table 'dnom' D+AOkA-nominateurs dans '    ' lookup 10" nine.dnom
Substitution2: "sous-table 'dnom' D+AOkA-nominateurs dans Latin lookup 9" nine.dnom
Substitution2: "sous-table 'numr' Num+AOkA-rateurs dans Grec lookup 8" nine.numr
Substitution2: "sous-table 'numr' Num+AOkA-rateurs dans '    ' lookup 7" nine.numr
Substitution2: "sous-table 'numr' Num+AOkA-rateurs dans Latin lookup 6" nine.numr
Substitution2: "sous-table 'sups' Exposant dans Grec lookup 5" ninesuperior
Substitution2: "sous-table 'sups' Exposant dans '    ' lookup 4" ninesuperior
Substitution2: "sous-table 'sups' Exposant dans Latin lookup 3" ninesuperior
AlternateSubs2: "sous-table 'aalt' Activer toutes les variantes dans Latin lookup 1" ninesuperior nine.numr nine.dnom nine.osf
EndChar

StartChar: zero.osf
Encoding: 65542 -1 195
Width: 597
Flags: MW
HStem: -12 40<279.5 365.5> 502 40<231.5 318.5>
VStem: 39 125<256 311> 436 122<219 274>
LayerCount: 2
Back
Fore
SplineSet
558 288 m 0
 558 150 462 -12 269 -12 c 0
 121 -12 39 114 39 242 c 0
 39 380 135 542 328 542 c 0
 477 542 558 416 558 288 c 0
270 502 m 0
 179 502 164 403 164 339 c 0
 164 173 231 28 328 28 c 0
 409 28 436 136 436 191 c 0
 436 357 367 502 270 502 c 0
EndSplineSet
Substitution2: "sous-table 'zero' Z+AOkA-ro barr+AOkA dans Grec lookup 29" zero.osf.zero
Substitution2: "sous-table 'zero' Z+AOkA-ro barr+AOkA dans '    ' lookup 28" zero.osf.zero
Substitution2: "sous-table 'zero' Z+AOkA-ro barr+AOkA dans Latin lookup 27" zero.osf.zero
Substitution2: "sous-table 'lnum' Chiffres modernes dans Grec lookup 17" zero
Substitution2: "sous-table 'lnum' Chiffres modernes dans '    ' lookup 16" zero
Substitution2: "sous-table 'lnum' Chiffres modernes dans Latin lookup 15" zero
AlternateSubs2: "sous-table 'aalt' Activer toutes les variantes dans Latin lookup 1" zero zero.osf.zero
EndChar

StartChar: one.osf
Encoding: 65543 -1 196
Width: 382
Flags: MW
HStem: 0 66<133 133>
VStem: 133 120<66 331 331 331>
LayerCount: 2
Back
Fore
SplineSet
36 323 m 1
 35 325 l 1
 253 548 l 1
 253 66 l 1
 347 0 l 1
 44 0 l 1
 133 66 l 1
 133 331 l 1
 36 323 l 1
EndSplineSet
Substitution2: "sous-table 'lnum' Chiffres modernes dans Grec lookup 17" one
Substitution2: "sous-table 'lnum' Chiffres modernes dans '    ' lookup 16" one
Substitution2: "sous-table 'lnum' Chiffres modernes dans Latin lookup 15" one
AlternateSubs2: "sous-table 'aalt' Activer toutes les variantes dans Latin lookup 1" one
EndChar

StartChar: two.osf
Encoding: 65544 -1 197
Width: 523
Flags: MW
HStem: 0 117 508 27
VStem: 309 136<330.5 431>
LayerCount: 2
Back
Fore
SplineSet
43 0 m 1
 35 33 l 1
 119 99 309 218 309 399 c 0
 309 463 268 509 199 509 c 0
 128 509 88 453 53 363 c 1
 48 363 l 1
 48 536 l 1
 184 536 l 2
 318 536 445 487 445 381 c 0
 445 280 261 178 160 114 c 1
 161 111 l 1
 223 116 l 1
 493 119 l 1
 481 0 l 1
 43 0 l 1
EndSplineSet
Substitution2: "sous-table 'lnum' Chiffres modernes dans Grec lookup 17" two
Substitution2: "sous-table 'lnum' Chiffres modernes dans '    ' lookup 16" two
Substitution2: "sous-table 'lnum' Chiffres modernes dans Latin lookup 15" two
AlternateSubs2: "sous-table 'aalt' Activer toutes les variantes dans Latin lookup 1" two
EndChar

StartChar: three.osf
Encoding: 65545 -1 198
Width: 507
Flags: MW
HStem: -75 611<49 96.5>
VStem: 35 422<-50 175>
LayerCount: 2
Back
Fore
SplineSet
43 -75 m 1
 35 -50 l 1
 136 -50 299 -13 299 93 c 0
 299 181 223 214 130 232 c 0
 120 230 110 227 99 225 c 1
 97 242 l 1
 130 254 l 2
 195 277 312 316 312 402 c 0
 312 466 264 508 190 508 c 0
 116 508 83 438 54 366 c 1
 49 366 l 1
 49 536 l 1
 203 536 l 2
 335 536 448 506 448 416 c 0
 448 349 375 302 234 260 c 1
 323 251 457 223 457 127 c 0
 457 -17 150 -75 43 -75 c 1
EndSplineSet
Substitution2: "sous-table 'lnum' Chiffres modernes dans Grec lookup 17" three
Substitution2: "sous-table 'lnum' Chiffres modernes dans '    ' lookup 16" three
Substitution2: "sous-table 'lnum' Chiffres modernes dans Latin lookup 15" three
AlternateSubs2: "sous-table 'aalt' Activer toutes les variantes dans Latin lookup 1" three
EndChar

StartChar: four.osf
Encoding: 65546 -1 199
Width: 568
Flags: MW
HStem: -1 46<133 280 400 528>
VStem: 280 120<-75 -1 -75 -1>
LayerCount: 2
Back
Fore
SplineSet
400 45 m 1
 528 45 l 1
 528 -1 l 1
 400 -1 l 1
 400 -75 l 1
 280 -75 l 1
 280 -1 l 1
 35 -1 l 1
 276 536 l 1
 422 536 l 1
 133 45 l 1
 281 45 l 1
 281 157 l 1
 400 303 l 1
 400 45 l 1
EndSplineSet
Substitution2: "sous-table 'lnum' Chiffres modernes dans Grec lookup 17" four
Substitution2: "sous-table 'lnum' Chiffres modernes dans '    ' lookup 16" four
Substitution2: "sous-table 'lnum' Chiffres modernes dans Latin lookup 15" four
AlternateSubs2: "sous-table 'aalt' Activer toutes les variantes dans Latin lookup 1" four
EndChar

StartChar: five.osf
Encoding: 65547 -1 200
Width: 481
Flags: MW
HStem: -59 28<35 242> 296 40<217 247> 416 120<114 114 114 394>
VStem: 35 11 309 122<82 150>
LayerCount: 2
Back
Fore
SplineSet
114 416 m 1
 96 296 l 1
 132 315 l 2
 167 330 201 336 233 336 c 0
 328 336 431 266 431 153 c 0
 431 11 322 -59 155 -59 c 2
 35 -59 l 1
 35 -59 37 46 39 113 c 1
 46 113 l 1
 46 113 107 -31 211 -31 c 0
 273 -31 309 -4 309 112 c 0
 309 188 298 296 196 296 c 0
 170 296 132 283 91 262 c 1
 88 240 l 1
 52 244 l 1
 88 536 l 1
 420 536 l 1
 394 416 l 1
 114 416 l 1
EndSplineSet
Substitution2: "sous-table 'lnum' Chiffres modernes dans Grec lookup 17" five
Substitution2: "sous-table 'lnum' Chiffres modernes dans '    ' lookup 16" five
Substitution2: "sous-table 'lnum' Chiffres modernes dans Latin lookup 15" five
AlternateSubs2: "sous-table 'aalt' Activer toutes les variantes dans Latin lookup 1" five
EndChar

StartChar: six.osf
Encoding: 65548 -1 201
Width: 503
Flags: MW
HStem: -12 615<183 431>
VStem: 161 184<140 210.5>
LayerCount: 2
Back
Fore
SplineSet
431 603 m 1
 437 584 l 1
 308 526 213 449 177 319 c 1
 208 343 249 361 286 361 c 0
 381 361 463 299 463 184 c 0
 463 94 380 -12 239 -12 c 0
 127 -12 40 63 40 173 c 0
 40 377 217 520 431 603 c 1
171 294 m 1
 164 263 161 229 161 192 c 0
 161 82 194 18 259 18 c 0
 325 18 345 117 345 163 c 0
 345 266 285 320 237 320 c 0
 208 320 193 314 171 294 c 1
EndSplineSet
Substitution2: "sous-table 'lnum' Chiffres modernes dans Grec lookup 17" six
Substitution2: "sous-table 'lnum' Chiffres modernes dans '    ' lookup 16" six
Substitution2: "sous-table 'lnum' Chiffres modernes dans Latin lookup 15" six
AlternateSubs2: "sous-table 'aalt' Activer toutes les variantes dans Latin lookup 1" six
EndChar

StartChar: seven.osf
Encoding: 65549 -1 202
Width: 483
Flags: MW
HStem: 416 120<88 343 88 88>
VStem: 35 53<416 416 416 536>
LayerCount: 2
Back
Fore
SplineSet
35 343 m 1
 35 536 l 1
 463 536 l 1
 119 -99 l 1
 85 -83 l 1
 343 416 l 1
 88 416 l 1
 35 343 l 1
EndSplineSet
Substitution2: "sous-table 'lnum' Chiffres modernes dans Grec lookup 17" seven
Substitution2: "sous-table 'lnum' Chiffres modernes dans '    ' lookup 16" seven
Substitution2: "sous-table 'lnum' Chiffres modernes dans Latin lookup 15" seven
AlternateSubs2: "sous-table 'aalt' Activer toutes les variantes dans Latin lookup 1" seven
EndChar

StartChar: eight.osf
Encoding: 65550 -1 203
Width: 495
Flags: MW
HStem: -15 625<215.5 266>
VStem: 89 271<104 169> 149 217<456.5 517 455 520.5>
LayerCount: 2
Back
Fore
SplineSet
262 610 m 0x00
 331 610 419 574 419 490 c 0
 419 426 375 388 325 357 c 1
 391 313 457 269 457 173 c 0
 457 32 307 -15 225 -15 c 0
 117 -15 36 44 36 131 c 0
 36 224 109 263 159 294 c 1
 108 338 60 372 60 453 c 0
 60 564 169 610 262 610 c 0x00
302 368 m 1
 347 397 366 432 366 478 c 0
 366 556 316 585 253 585 c 0
 201 585 149 554 149 487 c 0
 149 426 228 403 302 368 c 1
187 281 m 1
 141 255 89 203 89 135 c 0
 89 73 128 10 226 10 c 0
 302 10 360 48 360 125 c 0
 360 224 271 246 187 281 c 1
EndSplineSet
Substitution2: "sous-table 'lnum' Chiffres modernes dans Grec lookup 17" eight
Substitution2: "sous-table 'lnum' Chiffres modernes dans '    ' lookup 16" eight
Substitution2: "sous-table 'lnum' Chiffres modernes dans Latin lookup 15" eight
AlternateSubs2: "sous-table 'aalt' Activer toutes les variantes dans Latin lookup 1" eight
EndChar

StartChar: nine.osf
Encoding: 65551 -1 204
Width: 497
Flags: MW
HStem: -75 616<72 320>
VStem: 158 184<317.5 388>
LayerCount: 2
Back
Fore
SplineSet
72 -75 m 1
 66 -56 l 1
 195 2 290 79 326 209 c 1
 294 186 254 168 217 168 c 0
 122 168 40 229 40 345 c 0
 40 435 123 541 264 541 c 0
 376 541 463 475 463 365 c 0
 463 161 285 9 72 -75 c 1
332 234 m 1
 338 265 342 299 342 336 c 0
 342 446 309 511 244 511 c 0
 178 511 158 411 158 365 c 0
 158 263 218 208 266 208 c 0
 295 208 310 214 332 234 c 1
EndSplineSet
Substitution2: "sous-table 'lnum' Chiffres modernes dans Grec lookup 17" nine
Substitution2: "sous-table 'lnum' Chiffres modernes dans '    ' lookup 16" nine
Substitution2: "sous-table 'lnum' Chiffres modernes dans Latin lookup 15" nine
AlternateSubs2: "sous-table 'aalt' Activer toutes les variantes dans Latin lookup 1" nine
EndChar

StartChar: zero.osf.zero
Encoding: 65552 -1 205
Width: 597
Flags: MW
HStem: -12 40<304 365.5> 502 40<231.5 292>
VStem: 39 124<303 311> 435 123<219 227.5>
LayerCount: 2
Back
Fore
SplineSet
328 542 m 0
 477 542 558 416 558 288 c 0
 558 150 462 -12 269 -12 c 0
 121 -12 39 114 39 242 c 0
 39 380 135 542 328 542 c 0
198 144 m 1
 384 418 l 1
 355 470 315 502 269 502 c 0
 178 502 163 403 163 339 c 0
 163 267 176 198 198 144 c 1
399 387 m 1
 213 113 l 1
 242 61 281 28 327 28 c 0
 408 28 435 136 435 191 c 0
 435 264 422 332 399 387 c 1
EndSplineSet
EndChar

StartChar: zero.zero
Encoding: 65553 -1 206
Width: 555
Flags: MW
HStem: -14 45<283 335.5 283 338.5> 557 45<214.5 269>
VStem: 36 124<333.5 345.5> 393 124<242.5 254.5>
LayerCount: 2
Back
Fore
SplineSet
304 602 m 0
 442 602 517 464 517 320 c 0
 517 165 428 -14 249 -14 c 0
 112 -14 36 124 36 268 c 0
 36 423 125 602 304 602 c 0
194 147 m 1
 343 477 l 1
 319 527 287 557 251 557 c 0
 173 557 160 449 160 377 c 0
 160 290 173 209 194 147 c 1
358 441 m 1
 209 111 l 1
 233 61 265 31 301 31 c 0
 370 31 393 149 393 211 c 0
 393 298 380 379 358 441 c 1
EndSplineSet
EndChar

StartChar: fraction
Encoding: 8260 8260 207
Width: 470
Flags: MW
HStem: -33 752<4 503 4 503>
VStem: 4 499
LayerCount: 2
Back
Fore
SplineSet
503 719 m 1
 51 -33 l 1
 4 -33 l 1
 455 719 l 1
 503 719 l 1
EndSplineSet
EndChar

StartChar: onehalf
Encoding: 189 189 208
Width: 844
Flags: MW
HStem: 0 75 297 42<131 131> 358 20<553.5 568 568 603> 667 20G<215 215>
VStem: 131 84<339 567 567 567> 656 96<235 312> 738 36
LayerCount: 2
Back
Fore
SplineSet
611 719 m 1xbc
 159 -33 l 1
 112 -33 l 1
 563 719 l 1
 611 719 l 1xbc
63 544 m 1
 62 545 l 1xbc
 215 687 l 1
 215 339 l 1
 282 297 l 1
 69 297 l 1
 131 339 l 1xfc
 131 567 l 1
 63 544 l 1
469 0 m 1
 463 21 l 1
 522 63 656 176 656 292 c 0
 656 332 627 358 579 358 c 0
 528 358 500 325 476 268 c 1
 473 268 l 1
 473 378 l 1
 568 378 l 2
 662 378 752 347 752 280 c 0xbc
 752 190 620 138 559 74 c 1
 561 71 l 1
 595 74 l 1
 738 76 l 1
 779 153 l 1
 782 153 l 1
 767 0 l 1xba
 469 0 l 1
EndSplineSet
EndChar

StartChar: onequarter
Encoding: 188 188 209
Width: 745
Flags: MW
HStem: 0 123<641 708> 95 29<457 556 457 557> 297 42<131 131> 667 20G<215 215>
VStem: 131 84<339 567 567 567> 556 85<124 175 175 175>
LayerCount: 2
Back
Fore
SplineSet
652 719 m 1xbc
 200 -33 l 1
 153 -33 l 1
 604 719 l 1
 652 719 l 1xbc
63 544 m 1
 62 545 l 1
 215 687 l 1
 215 339 l 1
 282 297 l 1
 69 297 l 1
 131 339 l 1
 131 567 l 1
 63 544 l 1
641 123 m 1
 732 123 l 1xbc
 732 94 l 1
 641 94 l 1
 641 42 l 1x7c
 708 0 l 1
 495 0 l 1
 557 42 l 1xbc
 557 95 l 1
 385 95 l 1
 555 379 l 1
 657 379 l 1
 457 124 l 1
 556 124 l 1
 556 175 l 1x7c
 641 288 l 1
 641 123 l 1
EndSplineSet
EndChar

StartChar: threequarters
Encoding: 190 190 210
Width: 807
Flags: MW
HStem: 0 123<676 743> 95 29<492 591 492 592> 296 19<48 78.5 43 85.5> 665 20<126 162 162 178>
VStem: 228 112<379 431> 238 96<587 619.5> 591 85<124 175 175 175>
LayerCount: 2
Back
Fore
SplineSet
687 719 m 1xba
 235 -33 l 1
 188 -33 l 1
 639 719 l 1
 687 719 l 1xba
48 296 m 1
 43 315 l 1
 114 315 228 336 228 403 c 0xba
 228 459 175 480 110 491 c 0
 103 490 96 488 88 487 c 1
 86 498 l 1
 110 505 l 2
 155 520 238 545 238 599 c 0
 238 640 204 665 152 665 c 0
 100 665 77 622 56 577 c 1
 52 577 l 1
 52 685 l 1
 162 685 l 2
 254 685 334 666 334 608 c 0xb6
 334 566 282 537 176 509 c 1
 246 504 340 486 340 425 c 0
 340 333 123 296 48 296 c 1
676 123 m 1
 767 123 l 1xba
 767 94 l 1
 676 94 l 1
 676 42 l 1x7a
 743 0 l 1
 530 0 l 1
 592 42 l 1xba
 592 95 l 1
 420 95 l 1
 590 379 l 1
 692 379 l 1
 492 124 l 1
 591 124 l 1
 591 175 l 1x7a
 676 288 l 1
 676 123 l 1
EndSplineSet
EndChar

StartChar: oneeighth
Encoding: 8539 8539 211
Width: 766
Flags: MW
HStem: 297 42<131 131> 667 20G<215 215>
VStem: 131 84<339 567 567 567> 520 181<66 107.5> 553 143<290.5 328 289.5 330>
LayerCount: 2
Back
Fore
SplineSet
662 719 m 1xe8
 210 -33 l 1
 163 -33 l 1
 614 719 l 1
 662 719 l 1xe8
63 544 m 1
 62 545 l 1
 215 687 l 1
 215 339 l 1
 282 297 l 1
 69 297 l 1
 131 339 l 1
 131 567 l 1
 63 544 l 1
629 388 m 0
 564 388 490 357 490 288 c 0
 490 237 524 215 560 187 c 1
 525 167 473 142 473 83 c 0
 473 28 530 -10 609 -10 c 0
 664 -10 770 20 770 110 c 0
 770 171 723 199 677 227 c 1
 712 247 743 271 743 312 c 0
 743 363 678 388 629 388 c 0
661 234 m 1
 609 256 553 271 553 310 c 0
 553 350 587 370 623 370 c 0
 657 370 696 352 696 304 c 0
 696 275 688 252 661 234 c 1
580 179 m 1xf0
 639 156 701 142 701 79 c 0
 701 31 661 8 610 8 c 0
 547 8 520 46 520 86 c 0
 520 129 551 162 580 179 c 1xf0
EndSplineSet
EndChar

StartChar: threeeighths
Encoding: 8540 8540 212
Width: 788
Flags: MW
HStem: 296 19<48 78.5 43 85.5> 665 20<126 162 162 178>
VStem: 228 112<379 431> 238 96<587 619.5> 514 181<66 107.5> 547 143<290.5 328 289.5 330>
LayerCount: 2
Back
Fore
SplineSet
657 719 m 1xe4
 205 -33 l 1
 158 -33 l 1
 609 719 l 1
 657 719 l 1xe4
48 296 m 1
 43 315 l 1
 114 315 228 336 228 403 c 0xe4
 228 459 175 480 110 491 c 0
 103 490 96 488 88 487 c 1
 86 498 l 1
 110 505 l 2
 155 520 238 545 238 599 c 0
 238 640 204 665 152 665 c 0
 100 665 77 622 56 577 c 1
 52 577 l 1
 52 685 l 1
 162 685 l 2
 254 685 334 666 334 608 c 0xd4
 334 566 282 537 176 509 c 1
 246 504 340 486 340 425 c 0
 340 333 123 296 48 296 c 1
623 388 m 0
 558 388 484 357 484 288 c 0
 484 237 518 215 554 187 c 1
 519 167 467 142 467 83 c 0
 467 28 524 -10 603 -10 c 0
 658 -10 764 20 764 110 c 0
 764 171 717 199 671 227 c 1
 706 247 737 271 737 312 c 0
 737 363 672 388 623 388 c 0
655 234 m 1
 603 256 547 271 547 310 c 0
 547 350 581 370 617 370 c 0
 651 370 690 352 690 304 c 0
 690 275 682 252 655 234 c 1
574 179 m 1xe8
 633 156 695 142 695 79 c 0
 695 31 655 8 604 8 c 0
 541 8 514 46 514 86 c 0
 514 129 545 162 574 179 c 1xe8
EndSplineSet
EndChar

StartChar: fiveeighths
Encoding: 8541 8541 213
Width: 767
Flags: MW
HStem: -10 18<540.5 597.5 540.5 598.5> 307 20<39 184.5> 370 18<567 602> 533 25<167.5 188.5> 609 76<95 276 76 291 95 95>
VStem: 232 85<396 440> 435 47<66 107.5 66 112.5> 452 63<290.5 322.5> 658 47<291.5 328> 663 69<65 110.5>
LayerCount: 2
Back
Fore
SplineSet
645 719 m 1xfe80
 193 -33 l 1
 146 -33 l 1
 597 719 l 1
 645 719 l 1xfe80
80 533 m 1
 108 544 l 2
 133 554 157 558 178 558 c 0
 246 558 317 514 317 441 c 0
 317 351 241 307 124 307 c 2
 39 307 l 1
 39 307 41 373 41 416 c 1
 46 416 l 1
 46 416 90 327 163 327 c 0
 206 327 232 342 232 416 c 0
 232 464 225 533 152 533 c 0
 128 533 100 524 72 503 c 1
 70 492 l 1
 46 492 l 1
 74 672 l 1
 76 685 l 1
 276 685 l 1
 317 717 l 1
 310 685 l 1
 291 609 l 1
 95 609 l 1
 80 533 l 1
639 227 m 1
 685 199 732 171 732 110 c 0
 732 20 626 -10 571 -10 c 0
 492 -10 435 28 435 83 c 0xfe40
 435 142 487 167 522 187 c 1
 486 215 452 237 452 288 c 0xfd80
 452 357 526 388 591 388 c 0
 640 388 705 363 705 312 c 0
 705 271 674 247 639 227 c 1
515 310 m 0xfd80
 515 271 571 256 623 234 c 1
 650 252 658 275 658 304 c 0
 658 352 619 370 585 370 c 0
 549 370 515 350 515 310 c 0xfd80
572 8 m 0xfe40
 623 8 663 31 663 79 c 0
 663 142 601 156 542 179 c 1
 513 162 482 129 482 86 c 0
 482 46 509 8 572 8 c 0xfe40
EndSplineSet
EndChar

StartChar: seveneighths
Encoding: 8542 8542 214
Width: 770
Flags: MW
HStem: 609 76<71 240 71 71>
VStem: 35 36<609 609 609 685> 475 181<66 107.5> 508 143<290.5 328 289.5 330>
LayerCount: 2
Back
Fore
SplineSet
614 719 m 1xd0
 162 -33 l 1
 115 -33 l 1
 566 719 l 1
 614 719 l 1xd0
37 563 m 1
 35 563 l 1
 35 685 l 1
 327 685 l 1
 100 297 l 1
 72 307 l 1
 240 609 l 1
 71 609 l 1
 37 563 l 1
584 388 m 0
 519 388 445 357 445 288 c 0
 445 237 479 215 515 187 c 1
 480 167 428 142 428 83 c 0
 428 28 485 -10 564 -10 c 0
 619 -10 725 20 725 110 c 0
 725 171 678 199 632 227 c 1
 667 247 698 271 698 312 c 0
 698 363 633 388 584 388 c 0
616 234 m 1
 564 256 508 271 508 310 c 0
 508 350 542 370 578 370 c 0
 612 370 651 352 651 304 c 0
 651 275 643 252 616 234 c 1
535 179 m 1xe0
 594 156 656 142 656 79 c 0
 656 31 616 8 565 8 c 0
 502 8 475 46 475 86 c 0
 475 129 506 162 535 179 c 1xe0
EndSplineSet
EndChar

StartChar: zero.dnom
Encoding: 65554 -1 215
Width: 371
Flags: MW
HStem: -8 29<168.5 220> 359 29<136 190>
VStem: 14 86<183.5 222.5> 259 84<157.5 196.5>
LayerCount: 2
Back
Fore
SplineSet
343 207 m 0
 343 108 281 -8 159 -8 c 0
 65 -8 14 82 14 173 c 0
 14 272 75 388 197 388 c 0
 292 388 343 298 343 207 c 0
162 359 m 0
 108 359 100 289 100 243 c 0
 100 124 140 21 197 21 c 0
 244 21 259 98 259 137 c 0
 259 256 218 359 162 359 c 0
EndSplineSet
EndChar

StartChar: one.dnom
Encoding: 65555 -1 216
Width: 329
Flags: MW
HStem: 0 42<131 131>
VStem: 131 84<42 270 270 270>
LayerCount: 2
Back
Fore
SplineSet
63 247 m 1
 62 248 l 1
 215 390 l 1
 215 42 l 1
 282 0 l 1
 69 0 l 1
 131 42 l 1
 131 270 l 1
 63 247 l 1
EndSplineSet
EndChar

StartChar: two.dnom
Encoding: 65556 -1 217
Width: 355
Flags: MW
HStem: 0 75 358 20<123.5 138 138 173>
VStem: 226 96<235 312> 308 36
LayerCount: 2
Back
Fore
SplineSet
39 0 m 1xe0
 33 21 l 1
 92 63 226 176 226 292 c 0
 226 332 197 358 149 358 c 0
 98 358 70 325 46 268 c 1
 43 268 l 1
 43 378 l 1
 138 378 l 2
 232 378 322 347 322 280 c 0xe0
 322 190 190 138 129 74 c 1
 131 71 l 1
 165 74 l 1
 308 76 l 1
 349 153 l 1
 352 153 l 1
 337 0 l 1xd0
 39 0 l 1xe0
EndSplineSet
EndChar

StartChar: three.dnom
Encoding: 65557 -1 218
Width: 355
Flags: MW
HStem: -11 19<48 78.5 43 85.5> 358 20<126 162 162 178>
VStem: 228 112<72 124> 238 96<280 312.5>
LayerCount: 2
Back
Fore
SplineSet
48 -11 m 1xe0
 43 8 l 1
 114 8 228 29 228 96 c 0xe0
 228 152 175 173 110 184 c 0
 103 183 96 181 88 180 c 1
 86 191 l 1
 110 198 l 2
 155 213 238 238 238 292 c 0
 238 333 204 358 152 358 c 0
 100 358 77 315 56 270 c 1
 52 270 l 1
 52 378 l 1
 162 378 l 2
 254 378 334 359 334 301 c 0xd0
 334 259 282 230 176 202 c 1
 246 197 340 179 340 118 c 0
 340 26 123 -11 48 -11 c 1xe0
EndSplineSet
EndChar

StartChar: four.dnom
Encoding: 65558 -1 219
Width: 387
Flags: MW
HStem: 0 123<276 343> 95 29<92 191 92 192>
VStem: 191 85<124 175 175 175>
LayerCount: 2
Back
Fore
SplineSet
276 123 m 1xa0
 367 123 l 1xa0
 367 94 l 1
 276 94 l 1
 276 42 l 1x60
 343 0 l 1
 130 0 l 1
 192 42 l 1xa0
 192 95 l 1
 20 95 l 1
 190 379 l 1
 292 379 l 1
 92 124 l 1
 191 124 l 1
 191 175 l 1x60
 276 288 l 1
 276 123 l 1xa0
EndSplineSet
EndChar

StartChar: five.dnom
Encoding: 65559 -1 220
Width: 340
Flags: MW
HStem: 0 20<39 184.5> 226 25<167.5 188.5> 302 76<95 276 76 291 95 95>
VStem: 232 85<89 133>
LayerCount: 2
Back
Fore
SplineSet
80 226 m 1
 108 237 l 2
 133 247 157 251 178 251 c 0
 246 251 317 207 317 134 c 0
 317 44 241 0 124 0 c 2
 39 0 l 1
 39 0 41 66 41 109 c 1
 46 109 l 1
 46 109 90 20 163 20 c 0
 206 20 232 35 232 109 c 0
 232 157 225 226 152 226 c 0
 128 226 100 217 72 196 c 1
 70 185 l 1
 46 185 l 1
 74 365 l 1
 76 378 l 1
 276 378 l 1
 317 410 l 1
 310 378 l 1
 291 302 l 1
 95 302 l 1
 80 226 l 1
EndSplineSet
EndChar

StartChar: six.dnom
Encoding: 65560 -1 221
Width: 327
Flags: MW
HStem: -8 21<149 192.5 149 204.5> 203 26<143.5 221.5>
VStem: 15 85<87 133.5 87 179> 229 83<88.5 136>
LayerCount: 2
Back
Fore
SplineSet
290 388 m 1
 294 372 l 1
 203 339 136 285 112 205 c 1
 131 215 162 229 188 229 c 0
 255 229 312 190 312 117 c 0
 312 59 254 -8 155 -8 c 0
 75 -8 15 40 15 119 c 0
 15 239 139 335 290 388 c 1
106 183 m 1
 101 163 100 145 100 122 c 0
 100 52 129 13 169 13 c 0
 216 13 229 74 229 103 c 0
 229 169 187 203 154 203 c 0
 133 203 117 191 106 183 c 1
EndSplineSet
EndChar

StartChar: seven.dnom
Encoding: 65561 -1 222
Width: 362
Flags: MW
HStem: -10 21G<100 100> 0 21G<72 72> 302 76<71 240 71 71>
VStem: 35 36<302 302 302 378>
LayerCount: 2
Back
Fore
SplineSet
37 256 m 1x70
 35 256 l 1x70
 35 378 l 1
 327 378 l 1
 100 -10 l 1xb0
 72 0 l 1
 240 302 l 1
 71 302 l 1
 37 256 l 1x70
EndSplineSet
EndChar

StartChar: eight.dnom
Encoding: 65562 -1 223
Width: 364
Flags: MW
HStem: -10 398<156.5 196.5>
VStem: 80 181<66 107.5> 113 143<290.5 328 289.5 330>
LayerCount: 2
Back
Fore
SplineSet
189 388 m 0x00
 238 388 303 363 303 312 c 0
 303 271 272 247 237 227 c 1
 283 199 330 171 330 110 c 0
 330 20 224 -10 169 -10 c 0
 90 -10 33 28 33 83 c 0
 33 142 85 167 120 187 c 1
 84 215 50 237 50 288 c 0
 50 357 124 388 189 388 c 0x00
221 234 m 1
 248 252 256 275 256 304 c 0
 256 352 217 370 183 370 c 0
 147 370 113 350 113 310 c 0
 113 271 169 256 221 234 c 1
140 179 m 1
 111 162 80 129 80 86 c 0
 80 46 107 8 170 8 c 0
 221 8 261 31 261 79 c 0
 261 142 199 156 140 179 c 1
EndSplineSet
EndChar

StartChar: nine.dnom
Encoding: 65563 -1 224
Width: 355
Flags: MW
HStem: -9 21G<62 62> 150 26<132.5 213> 366 21<163 207.5>
VStem: 40 85<243 290.5 243 291> 258 88<245.5 292>
LayerCount: 2
Back
Fore
SplineSet
62 -9 m 1
 58 7 l 1
 152 40 221 94 246 174 c 1
 226 164 194 150 167 150 c 0
 98 150 40 189 40 262 c 0
 40 320 99 387 201 387 c 0
 284 387 346 339 346 260 c 0
 346 140 218 44 62 -9 c 1
252 196 m 1
 257 216 258 234 258 257 c 0
 258 327 228 366 187 366 c 0
 139 366 125 305 125 276 c 0
 125 210 168 176 202 176 c 0
 224 176 240 188 252 196 c 1
EndSplineSet
EndChar

StartChar: zero.numr
Encoding: 65564 -1 225
Width: 371
Flags: MW
HStem: 293 29<168.5 220> 660 29<136 190>
VStem: 14 86<484.5 523.5> 259 84<458.5 497.5>
LayerCount: 2
Back
Fore
SplineSet
343 508 m 0
 343 409 281 293 159 293 c 0
 65 293 14 383 14 474 c 0
 14 573 75 689 197 689 c 0
 292 689 343 599 343 508 c 0
162 660 m 0
 108 660 100 590 100 544 c 0
 100 425 140 322 197 322 c 0
 244 322 259 399 259 438 c 0
 259 557 218 660 162 660 c 0
EndSplineSet
Substitution2: "sous-table Substitution simple lookups37" zero.dnom
Substitution2: "sous-table 'aalt' Activer toutes les variantes dans Latin lookup 0" zero.dnom
EndChar

StartChar: one.numr
Encoding: 65565 -1 226
Width: 329
Flags: MW
HStem: 297 42<131 131> 667 20G<215 215>
VStem: 131 84<339 567 567 567>
LayerCount: 2
Back
Fore
SplineSet
63 544 m 1
 62 545 l 1
 215 687 l 1
 215 339 l 1
 282 297 l 1
 69 297 l 1
 131 339 l 1
 131 567 l 1
 63 544 l 1
EndSplineSet
Substitution2: "sous-table Substitution simple lookups37" one.dnom
Substitution2: "sous-table 'aalt' Activer toutes les variantes dans Latin lookup 0" one.dnom
EndChar

StartChar: two.numr
Encoding: 65566 -1 227
Width: 355
Flags: MW
HStem: 307 75 665 20<115.5 130 130 165>
VStem: 218 96<542 619> 300 36
LayerCount: 2
Back
Fore
SplineSet
31 307 m 1xe0
 25 328 l 1
 84 370 218 483 218 599 c 0
 218 639 189 665 141 665 c 0
 90 665 62 632 38 575 c 1
 35 575 l 1
 35 685 l 1
 130 685 l 2
 224 685 314 654 314 587 c 0xe0
 314 497 182 445 121 381 c 1
 123 378 l 1
 157 381 l 1
 300 383 l 1
 341 460 l 1
 344 460 l 1
 329 307 l 1xd0
 31 307 l 1xe0
EndSplineSet
Substitution2: "sous-table Substitution simple lookups37" two.dnom
Substitution2: "sous-table 'aalt' Activer toutes les variantes dans Latin lookup 0" two.dnom
EndChar

StartChar: three.numr
Encoding: 65567 -1 228
Width: 355
Flags: MW
HStem: 296 19<48 78.5 43 85.5> 665 20<126 162 162 178>
VStem: 228 112<379 431> 238 96<587 619.5>
LayerCount: 2
Back
Fore
SplineSet
48 296 m 1xe0
 43 315 l 1
 114 315 228 336 228 403 c 0xe0
 228 459 175 480 110 491 c 0
 103 490 96 488 88 487 c 1
 86 498 l 1
 110 505 l 2
 155 520 238 545 238 599 c 0
 238 640 204 665 152 665 c 0
 100 665 77 622 56 577 c 1
 52 577 l 1
 52 685 l 1
 162 685 l 2
 254 685 334 666 334 608 c 0xd0
 334 566 282 537 176 509 c 1
 246 504 340 486 340 425 c 0
 340 333 123 296 48 296 c 1xe0
EndSplineSet
Substitution2: "sous-table Substitution simple lookups37" three.dnom
Substitution2: "sous-table 'aalt' Activer toutes les variantes dans Latin lookup 0" three.dnom
EndChar

StartChar: four.numr
Encoding: 65568 -1 229
Width: 387
Flags: MW
HStem: 306 42<192 192> 401 29<92 191 92 192> 574 20G<276 276> 665 20G<190 292 292 292>
VStem: 191 85<430 481 481 481>
LayerCount: 2
Back
Fore
SplineSet
276 429 m 1
 367 429 l 1
 367 400 l 1
 276 400 l 1
 276 348 l 1
 343 306 l 1
 130 306 l 1
 192 348 l 1
 192 401 l 1
 20 401 l 1
 190 685 l 1
 292 685 l 1
 92 430 l 1
 191 430 l 1
 191 481 l 1
 276 594 l 1
 276 429 l 1
EndSplineSet
Substitution2: "sous-table Substitution simple lookups37" four.dnom
Substitution2: "sous-table 'aalt' Activer toutes les variantes dans Latin lookup 0" four.dnom
EndChar

StartChar: five.numr
Encoding: 65569 -1 230
Width: 340
Flags: MW
HStem: 307 20<39 184.5> 533 25<167.5 188.5> 609 76<95 276 76 291 95 95>
VStem: 232 85<396 440>
LayerCount: 2
Back
Fore
SplineSet
80 533 m 1
 108 544 l 2
 133 554 157 558 178 558 c 0
 246 558 317 514 317 441 c 0
 317 351 241 307 124 307 c 2
 39 307 l 1
 39 307 41 373 41 416 c 1
 46 416 l 1
 46 416 90 327 163 327 c 0
 206 327 232 342 232 416 c 0
 232 464 225 533 152 533 c 0
 128 533 100 524 72 503 c 1
 70 492 l 1
 46 492 l 1
 74 672 l 1
 76 685 l 1
 276 685 l 1
 317 717 l 1
 310 685 l 1
 291 609 l 1
 95 609 l 1
 80 533 l 1
EndSplineSet
Substitution2: "sous-table Substitution simple lookups37" five.dnom
Substitution2: "sous-table 'aalt' Activer toutes les variantes dans Latin lookup 0" five.dnom
EndChar

StartChar: six.numr
Encoding: 65570 -1 231
Width: 327
Flags: MW
HStem: 305 21<130 173.5 130 185.5> 516 26<124.5 202.5>
VStem: -4 85<400 446.5 400 492> 210 83<401.5 449>
LayerCount: 2
Back
Fore
SplineSet
271 701 m 1
 275 685 l 1
 184 652 117 598 93 518 c 1
 112 528 143 542 169 542 c 0
 236 542 293 503 293 430 c 0
 293 372 235 305 136 305 c 0
 56 305 -4 353 -4 432 c 0
 -4 552 120 648 271 701 c 1
87 496 m 1
 82 476 81 458 81 435 c 0
 81 365 110 326 150 326 c 0
 197 326 210 387 210 416 c 0
 210 482 168 516 135 516 c 0
 114 516 98 504 87 496 c 1
EndSplineSet
Substitution2: "sous-table Substitution simple lookups37" six.dnom
Substitution2: "sous-table 'aalt' Activer toutes les variantes dans Latin lookup 0" six.dnom
EndChar

StartChar: seven.numr
Encoding: 65571 -1 232
Width: 362
Flags: MW
HStem: 609 76<71 240 71 71>
VStem: 35 36<609 609 609 685>
LayerCount: 2
Back
Fore
SplineSet
37 563 m 1
 35 563 l 1
 35 685 l 1
 327 685 l 1
 100 297 l 1
 72 307 l 1
 240 609 l 1
 71 609 l 1
 37 563 l 1
EndSplineSet
Substitution2: "sous-table Substitution simple lookups37" seven.dnom
Substitution2: "sous-table 'aalt' Activer toutes les variantes dans Latin lookup 0" seven.dnom
EndChar

StartChar: eight.numr
Encoding: 65572 -1 233
Width: 364
Flags: MW
HStem: 474 20G
VStem: 80 181<373 414.5> 113 143<597.5 635 596.5 637>
LayerCount: 2
Back
Fore
SplineSet
189 695 m 0x00
 238 695 303 670 303 619 c 0
 303 578 272 554 237 534 c 1
 283 506 330 478 330 417 c 0
 330 327 224 297 169 297 c 0
 90 297 33 335 33 390 c 0
 33 449 85 474 120 494 c 1
 84 522 50 544 50 595 c 0
 50 664 124 695 189 695 c 0x00
221 541 m 1
 248 559 256 582 256 611 c 0
 256 659 217 677 183 677 c 0
 147 677 113 657 113 617 c 0
 113 578 169 563 221 541 c 1
140 486 m 1
 111 469 80 436 80 393 c 0
 80 353 107 315 170 315 c 0
 221 315 261 338 261 386 c 0
 261 449 199 463 140 486 c 1
EndSplineSet
Substitution2: "sous-table Substitution simple lookups37" eight.dnom
Substitution2: "sous-table 'aalt' Activer toutes les variantes dans Latin lookup 0" eight.dnom
EndChar

StartChar: nine.numr
Encoding: 65573 -1 234
Width: 355
Flags: MW
HStem: 456 26<155.5 236> 672 21<186 230.5>
VStem: 63 85<549 596.5 549 597> 281 88<551.5 598>
LayerCount: 2
Back
Fore
SplineSet
85 297 m 1
 81 313 l 1
 175 346 244 400 269 480 c 1
 249 470 217 456 190 456 c 0
 121 456 63 495 63 568 c 0
 63 626 122 693 224 693 c 0
 307 693 369 645 369 566 c 0
 369 446 241 350 85 297 c 1
275 502 m 1
 280 522 281 540 281 563 c 0
 281 633 251 672 210 672 c 0
 162 672 148 611 148 582 c 0
 148 516 191 482 225 482 c 0
 247 482 263 494 275 502 c 1
EndSplineSet
Substitution2: "sous-table Substitution simple lookups37" nine.dnom
Substitution2: "sous-table 'aalt' Activer toutes les variantes dans Latin lookup 0" nine.dnom
EndChar

StartChar: zerosuperior
Encoding: 8304 8304 235
Width: 409
Flags: MW
HStem: 388 29<194.5 246> 755 29<162 216>
VStem: 40 86<579.5 618.5> 285 84<553.5 592.5>
LayerCount: 2
Back
Fore
SplineSet
369 603 m 0
 369 504 307 388 185 388 c 0
 91 388 40 478 40 569 c 0
 40 668 101 784 223 784 c 0
 318 784 369 694 369 603 c 0
188 755 m 0
 134 755 126 685 126 639 c 0
 126 520 166 417 223 417 c 0
 270 417 285 494 285 533 c 0
 285 652 244 755 188 755 c 0
EndSplineSet
EndChar

StartChar: onesuperior
Encoding: 185 185 236
Width: 329
Flags: MW
HStem: 426 42<131 131>
VStem: 131 84<468 696 696 696>
LayerCount: 2
Back
Fore
SplineSet
63 673 m 1
 62 674 l 1
 215 816 l 1
 215 468 l 1
 282 426 l 1
 69 426 l 1
 131 468 l 1
 131 696 l 1
 63 673 l 1
EndSplineSet
EndChar

StartChar: twosuperior
Encoding: 178 178 237
Width: 355
Flags: MW
HStem: 432 71<123 123 123 329> 432 75 790 20<115.5 130 130 165>
VStem: 218 96<667 744> 300 36
LayerCount: 2
Back
Fore
SplineSet
31 432 m 1xb0
 25 453 l 1
 84 495 218 608 218 724 c 0
 218 764 189 790 141 790 c 0
 90 790 62 757 38 700 c 1
 35 700 l 1
 35 810 l 1
 130 810 l 2
 224 810 314 779 314 712 c 0
 314 622 182 570 121 506 c 1
 123 503 l 1
 157 506 l 1xb0
 300 508 l 1
 341 585 l 1
 344 585 l 1x68
 329 432 l 1xa8
 31 432 l 1xb0
EndSplineSet
EndChar

StartChar: threesuperior
Encoding: 179 179 238
Width: 355
Flags: MW
HStem: 416 19<48 78.5 43 85.5> 785 20<126 162 162 178>
VStem: 228 112<499 551> 238 96<707 739.5>
LayerCount: 2
Back
Fore
SplineSet
48 416 m 1xe0
 43 435 l 1
 114 435 228 456 228 523 c 0xe0
 228 579 175 600 110 611 c 0
 103 610 96 608 88 607 c 1
 86 618 l 1
 110 625 l 2
 155 640 238 665 238 719 c 0
 238 760 204 785 152 785 c 0
 100 785 77 742 56 697 c 1
 52 697 l 1
 52 805 l 1
 162 805 l 2
 254 805 334 786 334 728 c 0xd0
 334 686 282 657 176 629 c 1
 246 624 340 606 340 545 c 0
 340 453 123 416 48 416 c 1xe0
EndSplineSet
EndChar

StartChar: foursuperior
Encoding: 8308 8308 239
Width: 387
Flags: MW
HStem: 426 42<192 192> 521 29<92 191 92 192>
VStem: 191 85<550 601 601 601>
LayerCount: 2
Back
Fore
SplineSet
276 549 m 1
 367 549 l 1
 367 520 l 1
 276 520 l 1
 276 468 l 1
 343 426 l 1
 130 426 l 1
 192 468 l 1
 192 521 l 1
 20 521 l 1
 190 805 l 1
 292 805 l 1
 92 550 l 1
 191 550 l 1
 191 601 l 1
 276 714 l 1
 276 549 l 1
EndSplineSet
EndChar

StartChar: fivesuperior
Encoding: 8309 8309 240
Width: 340
Flags: MW
HStem: 426 20<39 184.5> 652 25<167.5 188.5> 728 76<95 276 76 291 95 95>
VStem: 232 85<515 559>
LayerCount: 2
Back
Fore
SplineSet
80 652 m 1
 108 663 l 2
 133 673 157 677 178 677 c 0
 246 677 317 633 317 560 c 0
 317 470 241 426 124 426 c 2
 39 426 l 1
 39 426 41 492 41 535 c 1
 46 535 l 1
 46 535 90 446 163 446 c 0
 206 446 232 461 232 535 c 0
 232 583 225 652 152 652 c 0
 128 652 100 643 72 622 c 1
 70 611 l 1
 46 611 l 1
 74 791 l 1
 76 804 l 1
 276 804 l 1
 317 836 l 1
 310 804 l 1
 291 728 l 1
 95 728 l 1
 80 652 l 1
EndSplineSet
EndChar

StartChar: sixsuperior
Encoding: 8310 8310 241
Width: 327
Flags: MW
HStem: 421 21<130 173.5 130 185.5> 632 26<124.5 202.5>
VStem: -4 85<516 562.5 516 608> 210 83<517.5 565>
LayerCount: 2
Back
Fore
SplineSet
271 817 m 1
 275 801 l 1
 184 768 117 714 93 634 c 1
 112 644 143 658 169 658 c 0
 236 658 293 619 293 546 c 0
 293 488 235 421 136 421 c 0
 56 421 -4 469 -4 548 c 0
 -4 668 120 764 271 817 c 1
87 612 m 1
 82 592 81 574 81 551 c 0
 81 481 110 442 150 442 c 0
 197 442 210 503 210 532 c 0
 210 598 168 632 135 632 c 0
 114 632 98 620 87 612 c 1
EndSplineSet
EndChar

StartChar: sevensuperior
Encoding: 8311 8311 242
Width: 362
Flags: MW
HStem: 726 76<71 240 71 71>
VStem: 35 36<726 726 726 802>
LayerCount: 2
Back
Fore
SplineSet
37 680 m 1
 35 680 l 1
 35 802 l 1
 327 802 l 1
 100 414 l 1
 72 424 l 1
 240 726 l 1
 71 726 l 1
 37 680 l 1
EndSplineSet
EndChar

StartChar: eightsuperior
Encoding: 8312 8312 243
Width: 364
Flags: MW
HStem: 590 20G
VStem: 80 181<497 538.5> 113 143<721.5 759 720.5 761>
LayerCount: 2
Back
Fore
SplineSet
189 819 m 0x00
 238 819 303 794 303 743 c 0
 303 702 272 678 237 658 c 1
 283 630 330 602 330 541 c 0
 330 451 224 421 169 421 c 0
 90 421 33 459 33 514 c 0
 33 573 85 598 120 618 c 1
 84 646 50 668 50 719 c 0
 50 788 124 819 189 819 c 0x00
221 665 m 1
 248 683 256 706 256 735 c 0
 256 783 217 801 183 801 c 0
 147 801 113 781 113 741 c 0
 113 702 169 687 221 665 c 1
140 610 m 1
 111 593 80 560 80 517 c 0
 80 477 107 439 170 439 c 0
 221 439 261 462 261 510 c 0
 261 573 199 587 140 610 c 1
EndSplineSet
EndChar

StartChar: ninesuperior
Encoding: 8313 8313 244
Width: 355
Flags: MW
HStem: 578 26<155.5 236> 794 21<186 230.5>
VStem: 63 85<671 718.5 671 719> 281 88<673.5 720>
LayerCount: 2
Back
Fore
SplineSet
85 419 m 1
 81 435 l 1
 175 468 244 522 269 602 c 1
 249 592 217 578 190 578 c 0
 121 578 63 617 63 690 c 0
 63 748 122 815 224 815 c 0
 307 815 369 767 369 688 c 0
 369 568 241 472 85 419 c 1
275 624 m 1
 280 644 281 662 281 685 c 0
 281 755 251 794 210 794 c 0
 162 794 148 733 148 704 c 0
 148 638 191 604 225 604 c 0
 247 604 263 616 275 624 c 1
EndSplineSet
EndChar

StartChar: asterisk
Encoding: 42 42 245
Width: 335
Flags: MW
HStem: 479 20G 583 20G<5 5 331 331> 676 20G<168 168>
VStem: 5 326<411 411 411 603>
LayerCount: 2
Back
Fore
SplineSet
178 537 m 1
 160 537 l 1
 132 654 l 1
 168 696 l 1
 205 656 l 1
 178 537 l 1
138 515 m 1
 147 531 l 1
 59 613 l 1
 5 603 l 1
 21 551 l 1
 138 515 l 1
198 515 m 1
 189 531 l 1
 276 613 l 1
 331 603 l 1
 314 551 l 1
 198 515 l 1
138 499 m 1
 147 483 l 1
 59 400 l 1
 5 411 l 1
 21 463 l 1
 138 499 l 1
198 499 m 1
 189 483 l 1
 276 400 l 1
 331 411 l 1
 314 463 l 1
 198 499 l 1
160 479 m 1
 178 479 l 1
 206 362 l 1
 170 320 l 1
 133 360 l 1
 160 479 l 1
EndSplineSet
EndChar

StartChar: backslash
Encoding: 92 92 246
Width: 432
Flags: MW
HStem: 0 21G<340 417 340 340> 675 20G<28 105 105 105>
VStem: 28 389
LayerCount: 2
Back
Fore
SplineSet
105 695 m 1
 417 0 l 1
 340 0 l 1
 28 695 l 1
 105 695 l 1
EndSplineSet
EndChar

StartChar: bullet
Encoding: 8226 8226 247
Width: 347
Flags: MW
HStem: 125 277<174 174>
VStem: 45 257<263 263>
LayerCount: 2
Back
Fore
SplineSet
45 263 m 1
 174 402 l 1
 302 263 l 1
 174 125 l 1
 45 263 l 1
EndSplineSet
EndChar

StartChar: colon
Encoding: 58 58 248
Width: 181
Flags: MW
HStem: -26 454<91 91>
VStem: 5 171<66 66>
LayerCount: 2
Back
Fore
SplineSet
5 335 m 1
 91 428 l 1
 176 335 l 1
 91 243 l 1
 5 335 l 1
5 66 m 1
 91 159 l 1
 176 66 l 1
 91 -26 l 1
 5 66 l 1
EndSplineSet
EndChar

StartChar: comma
Encoding: 44 44 249
Width: 227
Flags: MW
HStem: -123 282<47 113>
VStem: 98 96<-28 79>
LayerCount: 2
Back
Fore
SplineSet
47 -123 m 1
 33 -113 l 1
 67 -85 98 -47 98 -9 c 0
 98 17 82 29 69 43 c 2
 30 74 l 1
 113 159 l 1
 146 139 194 96 194 62 c 0
 194 -36 69 -109 47 -123 c 1
EndSplineSet
EndChar

StartChar: ellipsis
Encoding: 8230 8230 250
Width: 763
Flags: MW
HStem: -26 184<111 111>
VStem: 25 713<66 66>
LayerCount: 2
Back
Fore
SplineSet
25 66 m 1
 111 158 l 1
 196 66 l 1
 111 -26 l 1
 25 66 l 1
296 66 m 1
 382 158 l 1
 467 66 l 1
 382 -26 l 1
 296 66 l 1
567 66 m 1
 653 158 l 1
 738 66 l 1
 653 -26 l 1
 567 66 l 1
EndSplineSet
EndChar

StartChar: exclam
Encoding: 33 33 251
Width: 217
Flags: MW
HStem: -26 729<100 105>
VStem: 19 171<66 66>
LayerCount: 2
Back
Fore
SplineSet
166 657 m 1
 118 220 l 1
 82 220 l 1
 33 657 l 1
 100 703 l 1
 166 657 l 1
19 66 m 1
 105 159 l 1
 190 66 l 1
 105 -26 l 1
 19 66 l 1
EndSplineSet
EndChar

StartChar: exclamdown
Encoding: 161 161 252
Width: 217
Flags: MW
HStem: -226 21G<113 113> 483 20G<108 108>
VStem: 23 171<411 411>
LayerCount: 2
Back
Fore
SplineSet
194 411 m 1
 108 318 l 1
 23 411 l 1
 108 503 l 1
 194 411 l 1
47 -180 m 1
 95 257 l 1
 131 257 l 1
 180 -180 l 1
 113 -226 l 1
 47 -180 l 1
EndSplineSet
Substitution2: "sous-table 'case' Formes sensibles +AOAA la casse dans Grec lookup 23" exclamdown.case
Substitution2: "sous-table 'case' Formes sensibles +AOAA la casse dans '    ' lookup 22" exclamdown.case
Substitution2: "sous-table 'case' Formes sensibles +AOAA la casse dans Latin lookup 21" exclamdown.case
Substitution2: "sous-table 'aalt' Activer toutes les variantes dans Latin lookup 0" exclamdown.case
EndChar

StartChar: numbersign
Encoding: 35 35 253
Width: 584
Flags: MW
HStem: 0 227<69 130 30 143 69 69 262 322 30 336 262 262> 176 51<30 117 30 130 204 309 396 526> 379 50<58 167 58 180 254 359 446 554> 379 229<58 300 58 300 241 241 241 300 226 359 433 493 226 554 433 433>
VStem: 30 524<176 429 227 429>
LayerCount: 2
Back
Fore
SplineSet
254 429 m 1x68
 372 429 l 1x68
 419 608 l 1
 493 608 l 1x58
 446 429 l 1
 554 429 l 1
 554 379 l 1
 433 379 l 1
 396 227 l 1
 526 227 l 1
 526 176 l 1
 383 176 l 1x68
 336 0 l 1
 262 0 l 1xa8
 309 176 l 1
 191 176 l 1x68
 143 0 l 1
 69 0 l 1xa8
 117 176 l 1
 30 176 l 1
 30 227 l 1
 130 227 l 1
 167 379 l 1
 58 379 l 1
 58 429 l 1
 180 429 l 1x68
 226 608 l 1
 300 608 l 1x58
 254 429 l 1x68
204 227 m 1
 322 227 l 1
 359 379 l 1
 241 379 l 1
 204 227 l 1
EndSplineSet
EndChar

StartChar: period
Encoding: 46 46 254
Width: 181
Flags: MW
HStem: -26 185<91 91>
VStem: 5 171<66 66>
LayerCount: 2
Back
Fore
SplineSet
5 66 m 1
 91 159 l 1
 176 66 l 1
 91 -26 l 1
 5 66 l 1
EndSplineSet
EndChar

StartChar: periodcentered
Encoding: 183 183 255
Width: 181
Flags: MW
HStem: 171 185<91 91>
VStem: 5 171<263 263>
LayerCount: 2
Back
Fore
SplineSet
5 263 m 1
 91 356 l 1
 176 263 l 1
 91 171 l 1
 5 263 l 1
EndSplineSet
EndChar

StartChar: question
Encoding: 63 63 256
Width: 504
Flags: MW
HStem: 658 37<192 224>
VStem: 308 152<483.5 573>
LayerCount: 2
Back
Fore
SplineSet
66 695 m 1
 152 695 l 2
 296 695 460 677 460 540 c 0
 460 410 278 362 212 328 c 1
 200 220 l 1
 176 220 l 1
 158 342 l 1
 250 374 308 449 308 518 c 0
 308 628 270 658 230 658 c 0
 154 658 120 599 98 525 c 1
 90 524 l 1
 66 695 l 1
104 66 m 1
 190 159 l 1
 275 66 l 1
 190 -26 l 1
 104 66 l 1
EndSplineSet
EndChar

StartChar: questiondown
Encoding: 191 191 257
Width: 504
Flags: MW
HStem: -220 37<302 334 276 374> 481 20G<336 336>
VStem: 66 152<-98 -8.5 -98 0>
LayerCount: 2
Back
Fore
SplineSet
336 501 m 1
 422 409 l 1
 336 316 l 1
 251 409 l 1
 336 501 l 1
460 -220 m 1
 374 -220 l 2
 230 -220 66 -202 66 -65 c 0
 66 65 248 113 314 147 c 1
 326 255 l 1
 350 255 l 1
 368 133 l 1
 276 101 218 26 218 -43 c 0
 218 -153 256 -183 296 -183 c 0
 372 -183 406 -124 428 -50 c 1
 436 -49 l 1
 460 -220 l 1
EndSplineSet
Substitution2: "sous-table 'case' Formes sensibles +AOAA la casse dans Grec lookup 23" questiondown.case
Substitution2: "sous-table 'case' Formes sensibles +AOAA la casse dans '    ' lookup 22" questiondown.case
Substitution2: "sous-table 'case' Formes sensibles +AOAA la casse dans Latin lookup 21" questiondown.case
Substitution2: "sous-table 'aalt' Activer toutes les variantes dans Latin lookup 0" questiondown.case
EndChar

StartChar: quotedbl
Encoding: 34 34 258
Width: 246
Flags: MW
HStem: 475 220<40 80 40 40 157 157 157 197>
VStem: 32 57 149 57
LayerCount: 2
Back
Fore
SplineSet
80 475 m 1
 40 475 l 1
 24 695 l 1
 98 695 l 1
 80 475 l 1
197 475 m 1
 157 475 l 1
 141 695 l 1
 215 695 l 1
 197 475 l 1
EndSplineSet
EndChar

StartChar: quotesingle
Encoding: 39 39 259
Width: 134
Flags: MW
HStem: 475 220<42 82 42 42>
VStem: 34 57
LayerCount: 2
Back
Fore
SplineSet
82 475 m 1
 42 475 l 1
 26 695 l 1
 100 695 l 1
 82 475 l 1
EndSplineSet
EndChar

StartChar: semicolon
Encoding: 59 59 260
Width: 243
Flags: MW
HStem: -123 567<60 127>
VStem: 111 96<-28 79>
LayerCount: 2
Back
Fore
SplineSet
41 351 m 1
 127 444 l 1
 212 351 l 1
 127 259 l 1
 41 351 l 1
60 -123 m 1
 46 -113 l 1
 80 -85 111 -47 111 -9 c 0
 111 17 95 29 82 43 c 2
 43 74 l 1
 126 159 l 1
 159 139 207 96 207 62 c 0
 207 -36 82 -109 60 -123 c 1
EndSplineSet
EndChar

StartChar: slash
Encoding: 47 47 261
Width: 445
Flags: MW
HStem: 0 21G<28 105 28 28> 675 20G<340 417 417 417>
VStem: 28 389
LayerCount: 2
Back
Fore
SplineSet
105 0 m 1
 28 0 l 1
 340 695 l 1
 417 695 l 1
 105 0 l 1
EndSplineSet
Substitution2: "sous-table 'frac' Fractions lookups12" fraction
Substitution2: "sous-table 'aalt' Activer toutes les variantes dans Latin lookup 0" fraction
EndChar

StartChar: underscore
Encoding: 95 95 262
Width: 556
Flags: MW
HStem: -60 60<0 556 0 556>
VStem: 0 556<-60 0 -60 0>
LayerCount: 2
Back
Fore
SplineSet
556 -60 m 1
 0 -60 l 1
 0 0 l 1
 556 0 l 1
 556 -60 l 1
EndSplineSet
EndChar

StartChar: exclamdown.case
Encoding: 65574 -1 263
Width: 217
Flags: MW
HStem: 587 20G<23 23 194 194> 679 20G<108 108>
VStem: 23 171<607 607>
LayerCount: 2
Back
Fore
SplineSet
194 607 m 1
 108 514 l 1
 23 607 l 1
 108 699 l 1
 194 607 l 1
47 16 m 1
 95 453 l 1
 131 453 l 1
 180 16 l 1
 113 -30 l 1
 47 16 l 1
EndSplineSet
EndChar

StartChar: questiondown.case
Encoding: 65575 -1 264
Width: 504
Flags: MW
HStem: -140 37<302 334 276 374> 469 20G<251 251 422 422>
VStem: 66 152<-18 71.5 -18 80>
LayerCount: 2
Back
Fore
SplineSet
336 581 m 1
 422 489 l 1
 336 396 l 1
 251 489 l 1
 336 581 l 1
460 -140 m 1
 374 -140 l 2
 230 -140 66 -122 66 15 c 0
 66 145 248 193 314 227 c 1
 326 335 l 1
 350 335 l 1
 368 213 l 1
 276 181 218 106 218 37 c 0
 218 -73 256 -103 296 -103 c 0
 372 -103 406 -44 428 30 c 1
 436 31 l 1
 460 -140 l 1
EndSplineSet
EndChar

StartChar: braceleft
Encoding: 123 123 265
Width: 296
Flags: MW
HStem: -162 31<217 243> 695 31<217 243 193 245>
VStem: 11 40<280 284 280 297 280 297> 83 88<-56 17 547 620> 95 85<116 169.5 394.5 448>
LayerCount: 2
Back
Fore
SplineSet
51 284 m 1xf0
 51 280 l 1
 70 267 180 235 180 115 c 0
 180 64 171 51 171 -16 c 0
 171 -96 189 -131 245 -131 c 1
 243 -162 l 1
 143 -162 83 -121 83 -4 c 0xf0
 83 38 95 92 95 140 c 0
 95 199 72 233 53 248 c 0
 40 258 32 261 11 267 c 1
 11 297 l 1
 32 303 40 306 53 316 c 0
 72 331 95 365 95 424 c 0xe8
 95 472 83 526 83 568 c 0
 83 685 143 726 243 726 c 1
 245 695 l 1
 189 695 171 660 171 580 c 0
 171 513 180 500 180 449 c 0
 180 329 70 297 51 284 c 1xf0
EndSplineSet
Substitution2: "sous-table 'case' Formes sensibles +AOAA la casse dans Grec lookup 23" braceleft.case
Substitution2: "sous-table 'case' Formes sensibles +AOAA la casse dans '    ' lookup 22" braceleft.case
Substitution2: "sous-table 'case' Formes sensibles +AOAA la casse dans Latin lookup 21" braceleft.case
Substitution2: "sous-table 'aalt' Activer toutes les variantes dans Latin lookup 0" braceleft.case
EndChar

StartChar: braceright
Encoding: 125 125 266
Width: 296
Flags: MW
HStem: -162 31<21 47 19 71> 695 31<21 47>
VStem: 84 85<116 169.5 116 175 394.5 448> 93 88<-56 17 -62.5 17.5 547 620> 213 40<280 284 284 284>
LayerCount: 2
Back
Fore
SplineSet
213 280 m 1xd8
 213 284 l 1
 194 297 84 329 84 449 c 0
 84 500 93 513 93 580 c 0
 93 660 75 695 19 695 c 1
 21 726 l 1
 121 726 181 685 181 568 c 0xd8
 181 526 169 472 169 424 c 0
 169 365 192 331 211 316 c 0
 224 306 232 303 253 297 c 1
 253 267 l 1
 232 261 224 258 211 248 c 0
 192 233 169 199 169 140 c 0xe8
 169 92 181 38 181 -4 c 0
 181 -121 121 -162 21 -162 c 1
 19 -131 l 1
 75 -131 93 -96 93 -16 c 0
 93 51 84 64 84 115 c 0
 84 235 194 267 213 280 c 1xd8
EndSplineSet
Substitution2: "sous-table 'case' Formes sensibles +AOAA la casse dans Grec lookup 23" braceright.case
Substitution2: "sous-table 'case' Formes sensibles +AOAA la casse dans '    ' lookup 22" braceright.case
Substitution2: "sous-table 'case' Formes sensibles +AOAA la casse dans Latin lookup 21" braceright.case
Substitution2: "sous-table 'aalt' Activer toutes les variantes dans Latin lookup 0" braceright.case
EndChar

